Open Sans-ExtraBold.ufo
<glyph name="exclam" format="1">
  <advance width="594"/>
  <unicode hex="0021"/>
  <note>
exclam
</note>
  <outline>
    <contour>
      <point x="133" y="516" type="line"/>
      <point x="82" y="1462" type="line"/>
      <point x="514" y="1462" type="line"/>
      <point x="463" y="516" type="line"/>
    </contour>
    <contour>
      <point x="297.0" y="-25.0" type="qcurve" smooth="yes"/>
      <point x="198.0" y="-25.0"/>
      <point x="86.0" y="76.0"/>
      <point x="86.0" y="166.0" type="qcurve" smooth="yes"/>
      <point x="86.0" y="256.75"/>
      <point x="194.25" y="358.0"/>
      <point x="297.0" y="358.0" type="qcurve" smooth="yes"/>
      <point x="399.0" y="358.0"/>
      <point x="504.0" y="256.75"/>
      <point x="504.0" y="166.0" type="qcurve" smooth="yes"/>
      <point x="504.0" y="76.0"/>
      <point x="395.25" y="-25.0"/>
    </contour>
  </outline>
</glyph>
<glyph name="dollar" format="1">
  <advance width="1200"/>
  <unicode hex="0024"/>
  <note>
dollar
</note>
  <outline>
    <contour>
      <point x="504" y="-119" type="line"/>
      <point x="504.0" y="68.0" type="line"/>
      <point x="431.0" y="71.5"/>
      <point x="288.41666666666663" y="95.33333333333334"/>
      <point x="149.5" y="136.5"/>
      <point x="82" y="166" type="qcurve"/>
      <point x="82.0" y="498.0" type="line"/>
      <point x="180.25" y="447.75"/>
      <point x="406.5" y="375.25"/>
      <point x="504" y="364" type="qcurve"/>
      <point x="504" y="601" type="line"/>
      <point x="434.0" y="627.0" type="line" smooth="yes"/>
      <point x="307.25" y="674.25"/>
      <point x="151.25" y="791.25"/>
      <point x="116.0" y="864.0" type="qcurve" smooth="yes"/>
      <point x="80.0" y="936.0"/>
      <point x="80.0" y="1044.0" type="qcurve" smooth="yes"/>
      <point x="80.0" y="1209.0"/>
      <point x="291.75" y="1395.25"/>
      <point x="504" y="1417" type="qcurve"/>
      <point x="504" y="1554" type="line"/>
      <point x="711" y="1554" type="line"/>
      <point x="711.0" y="1419.0" type="line"/>
      <point x="810.75" y="1414.5"/>
      <point x="1010.75" y="1364.5"/>
      <point x="1112" y="1321" type="qcurve"/>
      <point x="993.0" y="1036.0" type="line"/>
      <point x="841.5" y="1105.0"/>
      <point x="711" y="1123" type="qcurve"/>
      <point x="711" y="898" type="line"/>
      <point x="737.0" y="889.0" type="line" smooth="yes"/>
      <point x="876.5" y="839.5"/>
      <point x="1048.75" y="724.6666666666667"/>
      <point x="1128.0" y="576.5"/>
      <point x="1128.0" y="477.0" type="qcurve" smooth="yes"/>
      <point x="1128.0" y="309.0"/>
      <point x="915.0" y="98.75"/>
      <point x="711" y="74" type="qcurve"/>
      <point x="711" y="-119" type="line"/>
    </contour>
    <contour>
      <point x="711" y="389" type="line"/>
      <point x="724.5" y="399.5"/>
      <point x="737.0" y="429.5"/>
      <point x="737.0" y="449.0" type="qcurve" smooth="yes"/>
      <point x="737.0" y="464.75"/>
      <point x="724.5" y="491.0"/>
      <point x="711" y="503" type="qcurve"/>
    </contour>
    <contour>
      <point x="504" y="991" type="qcurve"/>
      <point x="504.0" y="1111.0" type="line"/>
      <point x="486.75" y="1101.25"/>
      <point x="471.0" y="1072.5"/>
      <point x="471.0" y="1053.0" type="qcurve" smooth="yes"/>
      <point x="471.0" y="1033.5"/>
      <point x="486.75" y="1004.5"/>
    </contour>
  </outline>
</glyph>
<glyph name="percent" format="1">
  <advance width="1942"/>
  <unicode hex="0025"/>
  <note>
percent
</note>
  <outline>
    <contour>
      <point x="412" y="0" type="line"/>
      <point x="1223" y="1462" type="line"/>
      <point x="1520" y="1462" type="line"/>
      <point x="709" y="0" type="line"/>
    </contour>
    <contour>
      <point x="410.0" y="565.0" type="qcurve" smooth="yes"/>
      <point x="324.125" y="565.0"/>
      <point x="186.40104166666666" y="629.0885416666666"/>
      <point x="88.84895833333333" y="749.6614583333334"/>
      <point x="37.0" y="919.875"/>
      <point x="37.0" y="1026.0" type="qcurve" smooth="yes"/>
      <point x="37.0" y="1172.5"/>
      <point x="125.16666666666666" y="1376.5833333333333"/>
      <point x="292.0" y="1483.0"/>
      <point x="410.0" y="1483.0" type="qcurve" smooth="yes"/>
      <point x="526.5" y="1483.0"/>
      <point x="697.5833333333334" y="1371.583333333333"/>
      <point x="791.0" y="1166.5"/>
      <point x="791.0" y="1026.0" type="qcurve" smooth="yes"/>
      <point x="791.0" y="879.5"/>
      <point x="702.1666666666666" y="673.4166666666666"/>
      <point x="532.0" y="565.0"/>
    </contour>
    <contour>
      <point x="414.0" y="805.0" type="qcurve" smooth="yes"/>
      <point x="432.75" y="805.0"/>
      <point x="461.25" y="830.25"/>
      <point x="471.0" y="855.0" type="qcurve" smooth="yes"/>
      <point x="489.0" y="904.5"/>
      <point x="489.0" y="1022.0" type="qcurve" smooth="yes"/>
      <point x="489.0" y="1079.75"/>
      <point x="480.0" y="1162.5"/>
      <point x="471.0" y="1188.0" type="qcurve" smooth="yes"/>
      <point x="451.5" y="1239.0"/>
      <point x="414.0" y="1239.0" type="qcurve" smooth="yes"/>
      <point x="374.8285714285714" y="1239.0"/>
      <point x="357.0" y="1187.0" type="qcurve" smooth="yes"/>
      <point x="347.25" y="1160.75"/>
      <point x="338.0" y="1078.25"/>
      <point x="338.0" y="1022.0" type="qcurve" smooth="yes"/>
      <point x="338.0" y="905.6923076923077"/>
      <point x="357.0" y="856.0" type="qcurve" smooth="yes"/>
      <point x="366.75" y="830.5"/>
      <point x="395.25" y="805.0"/>
    </contour>
    <contour>
      <point x="1522.0" y="-16.0" type="qcurve" smooth="yes"/>
      <point x="1436.125" y="-16.0"/>
      <point x="1298.4010416666667" y="48.317708333333336"/>
      <point x="1200.8489583333333" y="168.93229166666666"/>
      <point x="1149.0" y="338.625"/>
      <point x="1149.0" y="444.0" type="qcurve" smooth="yes"/>
      <point x="1149.0" y="590.5"/>
      <point x="1237.1666666666665" y="794.5833333333333"/>
      <point x="1404.0" y="901.0"/>
      <point x="1522.0" y="901.0" type="qcurve" smooth="yes"/>
      <point x="1638.5" y="901.0"/>
      <point x="1809.583333333333" y="789.5833333333333"/>
      <point x="1903.0" y="584.5"/>
      <point x="1903.0" y="444.0" type="qcurve" smooth="yes"/>
      <point x="1903.0" y="298.0"/>
      <point x="1813.75" y="92.33333333333334"/>
      <point x="1643.5" y="-16.0"/>
    </contour>
    <contour>
      <point x="1526.0" y="223.0" type="qcurve" smooth="yes"/>
      <point x="1569.3589743589744" y="223.0"/>
      <point x="1586.0" y="282.0" type="qcurve" smooth="yes"/>
      <point x="1602.0" y="338.72727272727275"/>
      <point x="1602.0" y="440.0" type="qcurve" smooth="yes"/>
      <point x="1602.0" y="490.25"/>
      <point x="1594.25" y="569.75"/>
      <point x="1586.0" y="599.0" type="qcurve" smooth="yes"/>
      <point x="1577.75" y="628.25"/>
      <point x="1547.75" y="657.0"/>
      <point x="1526.0" y="657.0" type="qcurve" smooth="yes"/>
      <point x="1486.8285714285714" y="657.0"/>
      <point x="1469.0" y="605.0" type="qcurve" smooth="yes"/>
      <point x="1450.0" y="553.8461538461538"/>
      <point x="1450.0" y="440.0" type="qcurve" smooth="yes"/>
      <point x="1450.0" y="382.25"/>
      <point x="1459.25" y="299.5"/>
      <point x="1469.0" y="274.0" type="qcurve" smooth="yes"/>
      <point x="1488.5" y="223.0"/>
    </contour>
  </outline>
</glyph>
<glyph name="ampersand" format="1">
  <advance width="1636"/>
  <unicode hex="0026"/>
  <note>
ampersand
</note>
  <outline>
    <contour>
      <point x="602.0" y="-20.0" type="qcurve" smooth="yes"/>
      <point x="453.0" y="-20.0"/>
      <point x="212.83333333333331" y="80.49999999999999"/>
      <point x="72.0" y="271.0"/>
      <point x="72.0" y="406.0" type="qcurve" smooth="yes"/>
      <point x="72.0" y="493.5"/>
      <point x="132.58333333333331" y="640.6666666666666"/>
      <point x="253.50000000000003" y="760.5"/>
      <point x="344" y="807" type="qcurve"/>
      <point x="342.0" y="809.0" type="line"/>
      <point x="301.0" y="855.5"/>
      <point x="243.33333333333331" y="955.1666666666666"/>
      <point x="213.0" y="1067.5"/>
      <point x="213.0" y="1133.0" type="qcurve" smooth="yes"/>
      <point x="213.0" y="1239.5"/>
      <point x="324.5" y="1395.75"/>
      <point x="532.0" y="1481.0"/>
      <point x="676.0" y="1481.0" type="qcurve" smooth="yes"/>
      <point x="886.75" y="1481.0"/>
      <point x="1122.0" y="1294.25"/>
      <point x="1122.0" y="1133.0" type="qcurve" smooth="yes"/>
      <point x="1122.0" y="1059.0"/>
      <point x="1066.25" y="926.0833333333333"/>
      <point x="949.5" y="805.5"/>
      <point x="858" y="750" type="qcurve"/>
      <point x="1057.0" y="561.0" type="line"/>
      <point x="1094.5" y="618.75"/>
      <point x="1146.75" y="748.25"/>
      <point x="1161" y="821" type="qcurve"/>
      <point x="1567.0" y="821.0" type="line"/>
      <point x="1547.0" y="729.0"/>
      <point x="1475.3333333333333" y="542.3333333333333"/>
      <point x="1381.0" y="373.0"/>
      <point x="1327" y="307" type="qcurve"/>
      <point x="1647" y="0" type="line"/>
      <point x="1141" y="0" type="line"/>
      <point x="1042.0" y="102.0" type="line"/>
      <point x="966.5" y="54.0"/>
      <point x="837.8333333333333" y="1.0000000000000018"/>
      <point x="696.5" y="-20.0"/>
    </contour>
    <contour>
      <point x="639.0" y="291.0" type="qcurve" smooth="yes"/>
      <point x="696.0" y="291.0"/>
      <point x="781.75" y="321.25"/>
      <point x="805" y="340" type="qcurve"/>
      <point x="557.0" y="592.0" type="line"/>
      <point x="529.5" y="571.5"/>
      <point x="493.08333333333326" y="523.0"/>
      <point x="475.0" y="466.5"/>
      <point x="475.0" y="434.0" type="qcurve" smooth="yes"/>
      <point x="475.0" y="371.0"/>
      <point x="564.75" y="291.0"/>
    </contour>
    <contour>
      <point x="653.0" y="965.0" type="qcurve"/>
      <point x="710.0" y="997.25"/>
      <point x="770.0" y="1085.75"/>
      <point x="770.0" y="1133.0" type="qcurve" smooth="yes"/>
      <point x="770.0" y="1181.75"/>
      <point x="712.75" y="1225.0"/>
      <point x="670.0" y="1225.0" type="qcurve" smooth="yes"/>
      <point x="628.0" y="1225.0"/>
      <point x="565.0" y="1174.75"/>
      <point x="565.0" y="1120.0" type="qcurve" smooth="yes"/>
      <point x="565.0" y="1095.0"/>
      <point x="584.4166666666667" y="1043.75"/>
      <point x="623.5" y="991.5"/>
    </contour>
  </outline>
</glyph>
<glyph name="parenleft" format="1">
  <advance width="735"/>
  <unicode hex="0028"/>
  <note>
parenleft
</note>
  <outline>
    <contour>
      <point x="354" y="-324" type="line"/>
      <point x="216.75" y="-165.75"/>
      <point x="74.0" y="294.0"/>
      <point x="74.0" y="582.0" type="qcurve" smooth="yes"/>
      <point x="74.0" y="872.25"/>
      <point x="216.0" y="1338.0"/>
      <point x="354" y="1503" type="qcurve"/>
      <point x="680.0" y="1503.0" type="line"/>
      <point x="554.0" y="1328.25"/>
      <point x="418.0" y="854.0"/>
      <point x="418.0" y="584.0" type="qcurve" smooth="yes"/>
      <point x="418.0" y="410.0"/>
      <point x="476.75" y="83.75"/>
      <point x="592.5" y="-205.5"/>
      <point x="678" y="-324" type="qcurve"/>
    </contour>
  </outline>
</glyph>
<glyph name="period" format="1">
  <advance width="592"/>
  <unicode hex="002E"/>
  <outline>
    <contour>
      <point x="299.0" y="-25.0" type="qcurve" smooth="yes"/>
      <point x="200.0" y="-25.0"/>
      <point x="86.0" y="75.25"/>
      <point x="86.0" y="166.0" type="qcurve" smooth="yes"/>
      <point x="86.0" y="258.25"/>
      <point x="194.75" y="358.0"/>
      <point x="299.0" y="358.0" type="qcurve" smooth="yes"/>
      <point x="398.0" y="358.0"/>
      <point x="504.0" y="258.25"/>
      <point x="504.0" y="166.0" type="qcurve" smooth="yes"/>
      <point x="504.0" y="76.0"/>
      <point x="395.0" y="-25.0"/>
    </contour>
  </outline>
</glyph>
<glyph name="slash" format="1">
  <advance width="905"/>
  <unicode hex="002F"/>
  <note>
slash
</note>
  <outline>
    <contour>
      <point x="10" y="-20" type="line"/>
      <point x="555" y="1483" type="line"/>
      <point x="901" y="1483" type="line"/>
      <point x="356" y="-20" type="line"/>
    </contour>
  </outline>
</glyph>
<glyph name="zero" format="1">
  <advance width="1200"/>
  <unicode hex="0030"/>
  <outline>
    <contour>
      <point x="600.0" y="-20.0" type="qcurve" smooth="yes"/>
      <point x="336.85039370078744" y="-20.0"/>
      <point x="203.0" y="171.0" type="qcurve" smooth="yes"/>
      <point x="72.0" y="359.21839080459773"/>
      <point x="72.0" y="729.0" type="qcurve" smooth="yes"/>
      <point x="72.0" y="1190.904"/>
      <point x="258.0" y="1365.0" type="qcurve" smooth="yes"/>
      <point x="381.9" y="1483.0"/>
      <point x="600.0" y="1483.0" type="qcurve" smooth="yes"/>
      <point x="837.1538461538462" y="1483.0"/>
      <point x="970.0" y="1326.0" type="qcurve" smooth="yes"/>
      <point x="1128.0" y="1136.4"/>
      <point x="1128.0" y="729.0" type="qcurve" smooth="yes"/>
      <point x="1128.0" y="309.33653846153845"/>
      <point x="973.0" y="129.0" type="qcurve" smooth="yes"/>
      <point x="844.6534653465346" y="-20.0"/>
    </contour>
    <contour>
      <point x="600.0" y="295.0" type="qcurve" smooth="yes"/>
      <point x="673.5" y="295.0"/>
      <point x="705.0" y="391.0" type="qcurve" smooth="yes"/>
      <point x="735.0" y="487.0"/>
      <point x="735.0" y="729.0" type="qcurve" smooth="yes"/>
      <point x="735.0" y="974.047619047619"/>
      <point x="704.0" y="1070.0" type="qcurve" smooth="yes"/>
      <point x="672.6615384615385" y="1167.0"/>
      <point x="600.0" y="1167.0" type="qcurve" smooth="yes"/>
      <point x="527.3333333333334" y="1167.0"/>
      <point x="496.0" y="1073.0" type="qcurve" smooth="yes"/>
      <point x="465.0" y="980.0"/>
      <point x="465.0" y="729.0" type="qcurve" smooth="yes"/>
      <point x="465.0" y="479.5238095238095"/>
      <point x="496.0" y="388.0" type="qcurve" smooth="yes"/>
      <point x="527.5" y="295.0"/>
    </contour>
  </outline>
</glyph>
<glyph name="one" format="1">
  <advance width="1200"/>
  <unicode hex="0031"/>
  <outline>
    <contour>
      <point x="541" y="0" type="line"/>
      <point x="541.0" y="774.0" type="line" smooth="yes"/>
      <point x="541.0" y="844.5"/>
      <point x="544.0" y="973.5"/>
      <point x="547.0" y="1032.0" type="qcurve"/>
      <point x="528.25" y="1009.5"/>
      <point x="482.75" y="962.75"/>
      <point x="455.0" y="938.0" type="qcurve" smooth="yes"/>
      <point x="413.75" y="903.5"/>
      <point x="330.25" y="835.5"/>
      <point x="289" y="801" type="qcurve"/>
      <point x="84" y="1053" type="line"/>
      <point x="586" y="1462" type="line"/>
      <point x="942" y="1462" type="line"/>
      <point x="942" y="0" type="line"/>
    </contour>
  </outline>
</glyph>
<glyph name="two" format="1">
  <advance width="1200"/>
  <unicode hex="0032"/>
  <outline>
    <contour>
      <point x="61" y="0" type="line"/>
      <point x="61" y="260" type="line"/>
      <point x="418.0" y="621.0" type="line" smooth="yes"/>
      <point x="494.5" y="701.25"/>
      <point x="594.75" y="810.75"/>
      <point x="618.0" y="840.0" type="qcurve" smooth="yes"/>
      <point x="665.25" y="898.5"/>
      <point x="702.0" y="982.25"/>
      <point x="702.0" y="1028.0" type="qcurve" smooth="yes"/>
      <point x="702.0" y="1085.0"/>
      <point x="627.75" y="1151.0"/>
      <point x="561.0" y="1151.0" type="qcurve" smooth="yes"/>
      <point x="492.0" y="1151.0"/>
      <point x="351.25" y="1072.25"/>
      <point x="262" y="995" type="qcurve"/>
      <point x="45.0" y="1249.0" type="line"/>
      <point x="138.0" y="1332.0"/>
      <point x="304.24999999999994" y="1435.1666666666665"/>
      <point x="487.5" y="1483.0"/>
      <point x="606.0" y="1483.0" type="qcurve" smooth="yes"/>
      <point x="743.0" y="1483.0"/>
      <point x="964.1666666666665" y="1387.5833333333333"/>
      <point x="1094.0" y="1208.5"/>
      <point x="1094.0" y="1083.0" type="qcurve" smooth="yes"/>
      <point x="1094.0" y="996.75"/>
      <point x="1051.0" y="851.5"/>
      <point x="1006.0" y="781.0" type="qcurve" smooth="yes"/>
      <point x="961.0605652759085" y="710.5948855989233"/>
      <point x="887.0" y="632.0" type="qcurve" smooth="yes"/>
      <point x="849.5" y="593.0"/>
      <point x="690.5" y="444.75"/>
      <point x="569" y="336" type="qcurve"/>
      <point x="569" y="326" type="line"/>
      <point x="1122" y="326" type="line"/>
      <point x="1122" y="0" type="line"/>
    </contour>
  </outline>
</glyph>
<glyph name="three" format="1">
  <advance width="1200"/>
  <unicode hex="0033"/>
  <outline>
    <contour>
      <point x="506.0" y="-20.0" type="qcurve" smooth="yes"/>
      <point x="388.25" y="-20.0"/>
      <point x="187.0" y="14.0"/>
      <point x="70" y="59" type="qcurve"/>
      <point x="70.0" y="387.0" type="line"/>
      <point x="166.0" y="338.25"/>
      <point x="365.0" y="291.0"/>
      <point x="449.0" y="291.0" type="qcurve" smooth="yes"/>
      <point x="578.75" y="291.0"/>
      <point x="698.0" y="364.0"/>
      <point x="698.0" y="442.0" type="qcurve" smooth="yes"/>
      <point x="698.0" y="502.0"/>
      <point x="636.0" y="567.5"/>
      <point x="567.0" y="584.0" type="qcurve" smooth="yes"/>
      <point x="500.09090909090907" y="600.0"/>
      <point x="387" y="600" type="qcurve" smooth="yes"/>
      <point x="297" y="600" type="line"/>
      <point x="297" y="897" type="line"/>
      <point x="389.0" y="897.0" type="line" smooth="yes"/>
      <point x="690.0" y="897.0"/>
      <point x="690.0" y="1051.0" type="qcurve" smooth="yes"/>
      <point x="690.0" y="1108.75"/>
      <point x="601.0" y="1165.0"/>
      <point x="526.0" y="1165.0" type="qcurve" smooth="yes"/>
      <point x="385.2063492063492" y="1165.0"/>
      <point x="236" y="1071" type="qcurve"/>
      <point x="72.0" y="1335.0" type="line"/>
      <point x="188.25" y="1415.25"/>
      <point x="431.25" y="1483.0"/>
      <point x="588.0" y="1483.0" type="qcurve" smooth="yes"/>
      <point x="815.25" y="1483.0"/>
      <point x="1073.0" y="1303.25"/>
      <point x="1073.0" y="1145.0" type="qcurve" smooth="yes"/>
      <point x="1073.0" y="1009.25"/>
      <point x="906.75" y="814.25"/>
      <point x="750" y="770" type="qcurve"/>
      <point x="750.0" y="764.0" type="line"/>
      <point x="1116.0" y="717.5"/>
      <point x="1116.0" y="418.0" type="qcurve" smooth="yes"/>
      <point x="1116.0" y="214.0"/>
      <point x="793.25" y="-20.0"/>
    </contour>
  </outline>
</glyph>
<glyph name="five" format="1">
  <advance width="1200"/>
  <unicode hex="0035"/>
  <outline>
    <contour>
      <point x="512.0" y="-20.0" type="qcurve" smooth="yes"/>
      <point x="383.75" y="-20.0"/>
      <point x="175.0" y="19.25"/>
      <point x="94" y="59" type="qcurve"/>
      <point x="94.0" y="383.0" type="line"/>
      <point x="152.0" y="356.5"/>
      <point x="291.0833333333333" y="314.9166666666667"/>
      <point x="426.5" y="291.0"/>
      <point x="479.0" y="291.0" type="qcurve" smooth="yes"/>
      <point x="589.25" y="291.0"/>
      <point x="707.0" y="384.25"/>
      <point x="707.0" y="475.0" type="qcurve" smooth="yes"/>
      <point x="707.0" y="559.0"/>
      <point x="587.25" y="653.0"/>
      <point x="465.0" y="653.0" type="qcurve" smooth="yes"/>
      <point x="373.5652173913044" y="653.0"/>
      <point x="264" y="618" type="qcurve"/>
      <point x="119" y="690" type="line"/>
      <point x="174" y="1462" type="line"/>
      <point x="1008" y="1462" type="line"/>
      <point x="1008" y="1133" type="line"/>
      <point x="510" y="1133" type="line"/>
      <point x="492.0" y="940.0" type="line"/>
      <point x="548.25" y="950.5"/>
      <point x="609.25" y="958.0"/>
      <point x="664.0" y="958.0" type="qcurve" smooth="yes"/>
      <point x="797.0" y="958.0"/>
      <point x="995.8333333333334" y="837.0833333333334"/>
      <point x="1106.0" y="624.5"/>
      <point x="1106.0" y="487.0" type="qcurve" smooth="yes"/>
      <point x="1106.0" y="323.5"/>
      <point x="975.2499999999999" y="97.25"/>
      <point x="711.5" y="-20.0"/>
    </contour>
  </outline>
</glyph>
<glyph name="six" format="1">
  <advance width="1200"/>
  <unicode hex="0036"/>
  <outline>
    <contour>
      <point x="621.0" y="-20.0" type="qcurve" smooth="yes"/>
      <point x="362.25" y="-20.0"/>
      <point x="70.0" y="315.75"/>
      <point x="70.0" y="618.0" type="qcurve" smooth="yes"/>
      <point x="70.0" y="924.0"/>
      <point x="245.0" y="1303.0"/>
      <point x="416.0" y="1393.0" type="qcurve" smooth="yes"/>
      <point x="585.5" y="1483.0"/>
      <point x="836.0" y="1483.0" type="qcurve" smooth="yes"/>
      <point x="880.25" y="1483.0"/>
      <point x="984.75" y="1474.25"/>
      <point x="1044" y="1466" type="qcurve"/>
      <point x="1044.0" y="1157.0" type="line"/>
      <point x="946.0769230769231" y="1176.0"/>
      <point x="827.0" y="1176.0" type="qcurve" smooth="yes"/>
      <point x="744.5" y="1176.0"/>
      <point x="615.0" y="1146.75"/>
      <point x="567.0" y="1116.0" type="qcurve" smooth="yes"/>
      <point x="436.40202753820546" y="1032.3586019064912"/>
      <point x="426" y="805" type="qcurve"/>
      <point x="438.0" y="805.0" type="line"/>
      <point x="483.0" y="889.75"/>
      <point x="627.25" y="975.0"/>
      <point x="727.0" y="975.0" type="qcurve" smooth="yes"/>
      <point x="922.0" y="975.0"/>
      <point x="1137.0" y="724.25"/>
      <point x="1137.0" y="500.0" type="qcurve" smooth="yes"/>
      <point x="1137.0" y="259.25"/>
      <point x="864.75" y="-20.0"/>
    </contour>
    <contour>
      <point x="612.0" y="293.0" type="qcurve" smooth="yes"/>
      <point x="645.0" y="293.0"/>
      <point x="699.25" y="318.0"/>
      <point x="718.0" y="345.0" type="qcurve" smooth="yes"/>
      <point x="754.0" y="395.0869565217391"/>
      <point x="754.0" y="492.0" type="qcurve" smooth="yes"/>
      <point x="754.0" y="581.25"/>
      <point x="685.0" y="670.0"/>
      <point x="616.0" y="670.0" type="qcurve" smooth="yes"/>
      <point x="580.0" y="670.0"/>
      <point x="521.25" y="642.25"/>
      <point x="501.0" y="619.0" type="qcurve" smooth="yes"/>
      <point x="483.0" y="598.0"/>
      <point x="463.0" y="542.75"/>
      <point x="463.0" y="512.0" type="qcurve" smooth="yes"/>
      <point x="463.0" y="468.5"/>
      <point x="480.5" y="394.5"/>
      <point x="497.0" y="366.0" type="qcurve" smooth="yes"/>
      <point x="538.2608695652174" y="293.0"/>
    </contour>
  </outline>
</glyph>
<glyph name="eight" format="1">
  <advance width="1200"/>
  <unicode hex="0038"/>
  <outline>
    <contour>
      <point x="600.0" y="-20.0" type="qcurve" smooth="yes"/>
      <point x="342.0" y="-20.0"/>
      <point x="68.0" y="189.25"/>
      <point x="68.0" y="385.0" type="qcurve" smooth="yes"/>
      <point x="68.0" y="511.75"/>
      <point x="190.0" y="691.25"/>
      <point x="334.0" y="764.0" type="qcurve"/>
      <point x="217.75" y="842.0"/>
      <point x="111.0" y="1020.75"/>
      <point x="111.0" y="1128.0" type="qcurve" smooth="yes"/>
      <point x="111.0" y="1296.0"/>
      <point x="373.0" y="1483.0"/>
      <point x="604.0" y="1483.0" type="qcurve" smooth="yes"/>
      <point x="835.0" y="1483.0"/>
      <point x="1092.0" y="1297.0"/>
      <point x="1092.0" y="1126.0" type="qcurve" smooth="yes"/>
      <point x="1092.0" y="1009.75"/>
      <point x="971.25" y="835.25"/>
      <point x="840.0" y="770.0" type="qcurve"/>
      <point x="1002.0" y="677.75"/>
      <point x="1135.0" y="494.75"/>
      <point x="1135.0" y="389.0" type="qcurve" smooth="yes"/>
      <point x="1135.0" y="194.0"/>
      <point x="852.75" y="-20.0"/>
    </contour>
    <contour>
      <point x="596.0" y="264.0" type="qcurve" smooth="yes"/>
      <point x="772.0" y="264.0"/>
      <point x="772.0" y="393.0" type="qcurve" smooth="yes"/>
      <point x="772.0" y="441.75"/>
      <point x="695.0" y="536.75"/>
      <point x="596.0" y="596.0" type="qcurve"/>
      <point x="506.75" y="548.75"/>
      <point x="430.0" y="454.25"/>
      <point x="430.0" y="401.0" type="qcurve" smooth="yes"/>
      <point x="430.0" y="338.75"/>
      <point x="518.0" y="264.0"/>
    </contour>
    <contour>
      <point x="598.0" y="940.0" type="qcurve"/>
      <point x="669.25" y="981.25"/>
      <point x="721.0" y="1049.25"/>
      <point x="721.0" y="1092.0" type="qcurve" smooth="yes"/>
      <point x="721.0" y="1140.0"/>
      <point x="650.75" y="1198.0"/>
      <point x="602.0" y="1198.0" type="qcurve" smooth="yes"/>
      <point x="551.0" y="1198.0"/>
      <point x="481.0" y="1139.25"/>
      <point x="481.0" y="1092.0" type="qcurve" smooth="yes"/>
      <point x="481.0" y="1006.0"/>
    </contour>
  </outline>
</glyph>
<glyph name="nine" format="1">
  <advance width="1200"/>
  <unicode hex="0039"/>
  <outline>
    <contour>
      <point x="356.0" y="-20.0" type="qcurve" smooth="yes"/>
      <point x="289.25" y="-20.0"/>
      <point x="187.25" y="-15.25"/>
      <point x="152" y="-10" type="qcurve"/>
      <point x="152.0" y="303.0" type="line"/>
      <point x="194.75" y="294.75"/>
      <point x="281.25" y="287.0"/>
      <point x="324.0" y="287.0" type="qcurve" smooth="yes"/>
      <point x="536.25" y="287.0"/>
      <point x="766.25" y="462.0"/>
      <point x="776" y="651" type="qcurve"/>
      <point x="764.0" y="651.0" type="line"/>
      <point x="711.5" y="554.25"/>
      <point x="574.75" y="481.0"/>
      <point x="457.0" y="481.0" type="qcurve" smooth="yes"/>
      <point x="267.25" y="481.0"/>
      <point x="53.0" y="735.25"/>
      <point x="53.0" y="958.0" type="qcurve" smooth="yes"/>
      <point x="53.0" y="1120.0"/>
      <point x="178.25" y="1352.4999999999998"/>
      <point x="410.5" y="1477.0"/>
      <point x="571.0" y="1477.0" type="qcurve" smooth="yes"/>
      <point x="748.75" y="1477.0"/>
      <point x="999.75" y="1318.0"/>
      <point x="1065.0" y="1168.0" type="qcurve" smooth="yes"/>
      <point x="1098.75" y="1091.5"/>
      <point x="1133.0" y="903.25"/>
      <point x="1133.0" y="793.0" type="qcurve" smooth="yes"/>
      <point x="1133.0" y="483.25"/>
      <point x="943.0" y="114.5"/>
      <point x="739.0" y="38.0" type="qcurve" smooth="yes"/>
      <point x="582.8461538461538" y="-20.0"/>
    </contour>
    <contour>
      <point x="578.0" y="784.0" type="qcurve" smooth="yes"/>
      <point x="619.25" y="784.0"/>
      <point x="690.5" y="824.0"/>
      <point x="713.0" y="857.0" type="qcurve" smooth="yes"/>
      <point x="725.0" y="875.75"/>
      <point x="739.0" y="920.0"/>
      <point x="739.0" y="944.0" type="qcurve" smooth="yes"/>
      <point x="739.0" y="1003.25"/>
      <point x="698.5" y="1101.5"/>
      <point x="664.0" y="1130.0" type="qcurve" smooth="yes"/>
      <point x="646.75" y="1145.0"/>
      <point x="605.25" y="1161.0"/>
      <point x="582.0" y="1161.0" type="qcurve" smooth="yes"/>
      <point x="552.75" y="1161.0"/>
      <point x="502.75" y="1142.5"/>
      <point x="484.0" y="1123.0" type="qcurve" smooth="yes"/>
      <point x="461.5" y="1099.75"/>
      <point x="436.0" y="1020.0"/>
      <point x="436.0" y="963.0" type="qcurve" smooth="yes"/>
      <point x="436.0" y="881.25"/>
      <point x="506.0" y="784.0"/>
    </contour>
  </outline>
</glyph>
<glyph name="question" format="1">
  <advance width="1034"/>
  <unicode hex="003F"/>
  <note>
question
</note>
  <outline>
    <contour>
      <point x="295" y="516" type="line"/>
      <point x="295.0" y="602.0" type="line" smooth="yes"/>
      <point x="295.0" y="667.5"/>
      <point x="329.3333333333333" y="769.6666666666665"/>
      <point x="409.0" y="856.5"/>
      <point x="477.0" y="899.0" type="qcurve" smooth="yes"/>
      <point x="497.25" y="911.75"/>
      <point x="531.75" y="935.75"/>
      <point x="546.0" y="947.0" type="qcurve" smooth="yes"/>
      <point x="575.0" y="969.5"/>
      <point x="611.6666666666667" y="1012.6666666666665"/>
      <point x="629.0" y="1058.5"/>
      <point x="629.0" y="1085.0" type="qcurve" smooth="yes"/>
      <point x="629.0" y="1127.0"/>
      <point x="552.75" y="1176.0"/>
      <point x="492.0" y="1176.0" type="qcurve" smooth="yes"/>
      <point x="416.25" y="1176.0"/>
      <point x="240.25" y="1122.25"/>
      <point x="139" y="1069" type="qcurve"/>
      <point x="0.0" y="1341.0" type="line"/>
      <point x="124.5" y="1412.25"/>
      <point x="384.25" y="1483.0"/>
      <point x="520.0" y="1483.0" type="qcurve" smooth="yes"/>
      <point x="668.5" y="1483.0"/>
      <point x="882.2499999999999" y="1394.25"/>
      <point x="997.0" y="1230.5"/>
      <point x="997.0" y="1118.0" type="qcurve" smooth="yes"/>
      <point x="997.0" y="1051.25"/>
      <point x="963.25" y="938.75"/>
      <point x="928.0" y="890.0" type="qcurve" smooth="yes"/>
      <point x="898.75" y="849.5"/>
      <point x="815.5" y="776.25"/>
      <point x="760.0" y="741.0" type="qcurve" smooth="yes"/>
      <point x="707.5" y="707.25"/>
      <point x="641.75" y="657.75"/>
      <point x="629.0" y="642.0" type="qcurve" smooth="yes"/>
      <point x="615.5" y="626.25"/>
      <point x="602.0" y="588.75"/>
      <point x="602" y="567" type="qcurve" smooth="yes"/>
      <point x="602" y="516" type="line"/>
    </contour>
    <contour>
      <point x="463.0" y="-25.0" type="qcurve" smooth="yes"/>
      <point x="364.0" y="-25.0"/>
      <point x="252.0" y="73.75"/>
      <point x="252.0" y="166.0" type="qcurve" smooth="yes"/>
      <point x="252.0" y="258.25"/>
      <point x="358.75" y="358.0"/>
      <point x="463.0" y="358.0" type="qcurve" smooth="yes"/>
      <point x="562.75" y="358.0"/>
      <point x="670.0" y="256.75"/>
      <point x="670.0" y="166.0" type="qcurve" smooth="yes"/>
      <point x="670.0" y="75.25"/>
      <point x="559.0" y="-25.0"/>
    </contour>
  </outline>
</glyph>
<glyph name="at" format="1">
  <advance width="1837"/>
  <unicode hex="0040"/>
  <note>
at
</note>
  <outline>
    <contour>
      <point x="913.0" y="-154.0" type="qcurve" smooth="yes"/>
      <point x="719.125" y="-154.0"/>
      <point x="411.546875" y="-50.442708333333336"/>
      <point x="195.703125" y="147.19270833333334"/>
      <point x="82.0" y="430.375"/>
      <point x="82.0" y="610.0" type="qcurve" smooth="yes"/>
      <point x="82.0" y="802.75"/>
      <point x="211.55729166666666" y="1122.0833333333333"/>
      <point x="448.6927083333333" y="1354.4166666666667"/>
      <point x="773.625" y="1481.0"/>
      <point x="969.0" y="1481.0" type="qcurve" smooth="yes"/>
      <point x="1143.375" y="1481.0"/>
      <point x="1431.671875" y="1382.8489583333333"/>
      <point x="1641.078125" y="1195.4010416666667"/>
      <point x="1755.0" y="926.625"/>
      <point x="1755.0" y="756.0" type="qcurve" smooth="yes"/>
      <point x="1755.0" y="623.5"/>
      <point x="1665.9166666666665" y="384.0833333333333"/>
      <point x="1496.5" y="233.0"/>
      <point x="1376.0" y="233.0" type="qcurve" smooth="yes"/>
      <point x="1297.25" y="233.0"/>
      <point x="1169.0" y="295.75"/>
      <point x="1133" y="352" type="qcurve"/>
      <point x="1118.0" y="352.0" type="line"/>
      <point x="1064.75" y="292.75"/>
      <point x="934.5" y="233.0"/>
      <point x="858.0" y="233.0" type="qcurve" smooth="yes"/>
      <point x="675.0" y="233.0"/>
      <point x="479.0" y="447.0"/>
      <point x="479.0" y="639.0" type="qcurve" smooth="yes"/>
      <point x="479.0" y="787.5"/>
      <point x="607.0833333333333" y="1000.25"/>
      <point x="837.5" y="1114.0"/>
      <point x="991.0" y="1114.0" type="qcurve" smooth="yes"/>
      <point x="1072.0" y="1114.0"/>
      <point x="1267.0" y="1080.75"/>
      <point x="1348" y="1053" type="qcurve"/>
      <point x="1327.0" y="631.0" type="line" smooth="yes"/>
      <point x="1326.25" y="607.75"/>
      <point x="1325.75" y="560.25"/>
      <point x="1325.0" y="537.0" type="qcurve"/>
      <point x="1325.0" y="492.6666666666667"/>
      <point x="1338.0" y="471.0" type="qcurve" smooth="yes"/>
      <point x="1350.3076923076924" y="451.0"/>
      <point x="1374.0" y="451.0" type="qcurve" smooth="yes"/>
      <point x="1406.25" y="451.0"/>
      <point x="1451.0" y="509.2083333333333"/>
      <point x="1478.5" y="602.2916666666666"/>
      <point x="1491.0" y="709.25"/>
      <point x="1491.0" y="758.0" type="qcurve" smooth="yes"/>
      <point x="1491.0" y="877.625"/>
      <point x="1422.4427083333333" y="1063.2552083333333"/>
      <point x="1289.8072916666667" y="1190.9947916666667"/>
      <point x="1097.125" y="1257.0"/>
      <point x="973.0" y="1257.0" type="qcurve" smooth="yes"/>
      <point x="826.75" y="1257.0"/>
      <point x="597.1041666666666" y="1165.796875"/>
      <point x="437.3958333333333" y="994.953125"/>
      <point x="354.0" y="754.875"/>
      <point x="354.0" y="606.0" type="qcurve" smooth="yes"/>
      <point x="354.0" y="351.0"/>
      <point x="638.75" y="74.0"/>
      <point x="899.0" y="74.0" type="qcurve" smooth="yes"/>
      <point x="1015.25" y="74.0"/>
      <point x="1284.0" y="124.25"/>
      <point x="1413" y="170" type="qcurve"/>
      <point x="1413.0" y="-59.0" type="line"/>
      <point x="1301.25" y="-106.25"/>
      <point x="1051.0" y="-154.0"/>
    </contour>
    <contour>
      <point x="893.0" y="451.0" type="qcurve" smooth="yes"/>
      <point x="931.25" y="451.0"/>
      <point x="988.0" y="482.25"/>
      <point x="1006.0" y="513.0" type="qcurve" smooth="yes"/>
      <point x="1024.0" y="543.75"/>
      <point x="1047.75" y="654.25"/>
      <point x="1053" y="733" type="qcurve" smooth="yes"/>
      <point x="1063.0" y="889.0" type="line"/>
      <point x="1022.5" y="895.0"/>
      <point x="995.0" y="895.0" type="qcurve" smooth="yes"/>
      <point x="954.5" y="895.0"/>
      <point x="884.75" y="875.5"/>
      <point x="857.0" y="856.0" type="qcurve" smooth="yes"/>
      <point x="810.5" y="825.25"/>
      <point x="760.0" y="716.0"/>
      <point x="760.0" y="641.0" type="qcurve" smooth="yes"/>
      <point x="760.0" y="588.5"/>
      <point x="781.25" y="514.25"/>
      <point x="800.0" y="491.0" type="qcurve" smooth="yes"/>
      <point x="834.074074074074" y="451.0"/>
    </contour>
  </outline>
</glyph>
<glyph name="A" format="1">
  <advance width="1487"/>
  <unicode hex="0041"/>
  <outline>
    <contour>
      <point x="1487" y="0" type="line"/>
      <point x="1055" y="0" type="line"/>
      <point x="983" y="274" type="line"/>
      <point x="508" y="274" type="line"/>
      <point x="434" y="0" type="line"/>
      <point x="0" y="0" type="line"/>
      <point x="477" y="1468" type="line"/>
      <point x="1004" y="1468" type="line"/>
    </contour>
    <contour>
      <point x="590" y="598" type="qcurve"/>
      <point x="901" y="598" type="line"/>
      <point x="838.0" y="838.0" type="line" smooth="yes"/>
      <point x="823.5" y="891.5"/>
      <point x="783.8333333333333" y="1046.6666666666665"/>
      <point x="749.5" y="1190.5"/>
      <point x="743.0" y="1227.0" type="qcurve"/>
      <point x="738.5" y="1201.5"/>
      <point x="720.75" y="1117.5"/>
      <point x="708.0" y="1059.0" type="qcurve" smooth="yes"/>
      <point x="694.5" y="1000.5"/>
      <point x="635.75" y="769.75"/>
    </contour>
    <contour>
      <point x="744" y="0" type="move" name="bottom"/>
    </contour>
    <contour>
      <point x="1338" y="10" type="move" name="ogonek"/>
    </contour>
    <contour>
      <point x="744" y="1462" type="move" name="top"/>
    </contour>
  </outline>
</glyph>
<glyph name="B" format="1">
  <advance width="1380"/>
  <unicode hex="0042"/>
  <outline>
    <contour>
      <point x="158" y="0" type="line"/>
      <point x="158" y="1462" type="line"/>
      <point x="668.0" y="1462.0" type="line" smooth="yes"/>
      <point x="965.75" y="1462.0"/>
      <point x="1255.0" y="1284.75"/>
      <point x="1255.0" y="1098.0" type="qcurve" smooth="yes"/>
      <point x="1255.0" y="975.0"/>
      <point x="1128.75" y="800.75"/>
      <point x="1026" y="776" type="qcurve"/>
      <point x="1026.0" y="766.0" type="line"/>
      <point x="1161.75" y="730.0"/>
      <point x="1284.0" y="562.25"/>
      <point x="1284.0" y="428.0" type="qcurve" smooth="yes"/>
      <point x="1284.0" y="229.25"/>
      <point x="985.0" y="0.0"/>
      <point x="727" y="0" type="qcurve" smooth="yes"/>
    </contour>
    <contour>
      <point x="553" y="1163" type="line"/>
      <point x="553" y="901" type="line"/>
      <point x="672.0" y="901.0" type="line" smooth="yes"/>
      <point x="756.75" y="901.0"/>
      <point x="850.0" y="971.0"/>
      <point x="850.0" y="1040.0" type="qcurve" smooth="yes"/>
      <point x="850.0" y="1101.5"/>
      <point x="757.0" y="1163.0"/>
      <point x="664" y="1163" type="qcurve" smooth="yes"/>
    </contour>
    <contour>
      <point x="684" y="612" type="qcurve" smooth="yes"/>
      <point x="553" y="612" type="line"/>
      <point x="553" y="305" type="line"/>
      <point x="692.0" y="305.0" type="line" smooth="yes"/>
      <point x="877.0" y="305.0"/>
      <point x="877.0" y="461.0" type="qcurve" smooth="yes"/>
      <point x="877.0" y="533.75"/>
      <point x="777.75" y="612.0"/>
    </contour>
    <contour>
      <point x="690" y="0" type="move" name="bottom"/>
    </contour>
    <contour>
      <point x="690" y="1462" type="move" name="top"/>
    </contour>
  </outline>
</glyph>
<glyph name="C" format="1">
  <advance width="1329"/>
  <unicode hex="0043"/>
  <outline>
    <contour>
      <point x="809.0" y="1159.0" type="qcurve" smooth="yes"/>
      <point x="715.0" y="1159.0"/>
      <point x="581.1666666666666" y="1054.9166666666665"/>
      <point x="510.0" y="860.5"/>
      <point x="510.0" y="725.0" type="qcurve" smooth="yes"/>
      <point x="510.0" y="590.75"/>
      <point x="570.25" y="420.75"/>
      <point x="625.0" y="372.0" type="qcurve" smooth="yes"/>
      <point x="701.5" y="303.0"/>
      <point x="831.0" y="303.0" type="qcurve" smooth="yes"/>
      <point x="927.75" y="303.0"/>
      <point x="1109.75" y="356.75"/>
      <point x="1202" y="395" type="qcurve"/>
      <point x="1202.0" y="61.0" type="line"/>
      <point x="1110.5" y="20.5"/>
      <point x="903.5" y="-20.0"/>
      <point x="788.0" y="-20.0" type="qcurve" smooth="yes"/>
      <point x="567.5" y="-20.0"/>
      <point x="262.24999999999994" y="151.83333333333334"/>
      <point x="104.0" y="484.99999999999994"/>
      <point x="104.0" y="727.0" type="qcurve" smooth="yes"/>
      <point x="104.0" y="954.25"/>
      <point x="275.5" y="1297.25"/>
      <point x="436.0" y="1391.0" type="qcurve" smooth="yes"/>
      <point x="489.0" y="1422.0"/>
      <point x="608.25" y="1462.8333333333333"/>
      <point x="740.5" y="1483.0"/>
      <point x="813.0" y="1483.0" type="qcurve" smooth="yes"/>
      <point x="931.5" y="1483.0"/>
      <point x="1158.0" y="1431.75"/>
      <point x="1266" y="1380" type="qcurve"/>
      <point x="1145.0" y="1069.0" type="line"/>
      <point x="1091.0" y="1094.5"/>
      <point x="983.6666666666666" y="1135.25"/>
      <point x="871.0" y="1159.0"/>
    </contour>
    <contour>
      <point x="960" y="0" type="move" name="bottom"/>
    </contour>
    <contour>
      <point x="785" y="1462" type="move" name="top"/>
    </contour>
  </outline>
</glyph>
<glyph name="D" format="1">
  <advance width="1503"/>
  <unicode hex="0044"/>
  <outline>
    <contour>
      <point x="1399.0" y="762.0" type="qcurve" smooth="yes"/>
      <point x="1399.0" y="396.0"/>
      <point x="996.25" y="0.0"/>
      <point x="631" y="0" type="qcurve" smooth="yes"/>
      <point x="158" y="0" type="line"/>
      <point x="158" y="1462" type="line"/>
      <point x="664.0" y="1462.0" type="line" smooth="yes"/>
      <point x="1015.75" y="1462.0"/>
      <point x="1399.0" y="1101.75"/>
    </contour>
    <contour>
      <point x="989.0" y="748.0" type="qcurve" smooth="yes"/>
      <point x="989.0" y="949.0"/>
      <point x="830.0" y="1143.0"/>
      <point x="668" y="1143" type="qcurve" smooth="yes"/>
      <point x="553" y="1143" type="line"/>
      <point x="553" y="324" type="line"/>
      <point x="641.0" y="324.0" type="line" smooth="yes"/>
      <point x="821.0" y="324.0"/>
      <point x="989.0" y="532.75"/>
    </contour>
    <contour>
      <point x="752" y="0" type="move" name="bottom"/>
    </contour>
    <contour>
      <point x="752" y="731" type="move" name="center"/>
    </contour>
    <contour>
      <point x="752" y="1462" type="move" name="top"/>
    </contour>
  </outline>
</glyph>
<glyph name="E" format="1">
  <advance width="1124"/>
  <unicode hex="0045"/>
  <outline>
    <contour>
      <point x="1026" y="322" type="line"/>
      <point x="1026" y="0" type="line"/>
      <point x="158" y="0" type="line"/>
      <point x="158" y="1462" type="line"/>
      <point x="1026" y="1462" type="line"/>
      <point x="1026" y="1145" type="line"/>
      <point x="553" y="1145" type="line"/>
      <point x="553" y="915" type="line"/>
      <point x="991" y="915" type="line"/>
      <point x="991" y="598" type="line"/>
      <point x="553" y="598" type="line"/>
      <point x="553" y="322" type="line"/>
    </contour>
    <contour>
      <point x="562" y="0" type="move" name="bottom"/>
    </contour>
    <contour>
      <point x="962" y="10" type="move" name="ogonek"/>
    </contour>
    <contour>
      <point x="562" y="1462" type="move" name="top"/>
    </contour>
    <contour>
      <point x="20" y="1462" type="move" name="topleft"/>
    </contour>
  </outline>
</glyph>
<glyph name="G" format="1">
  <advance width="1516"/>
  <unicode hex="0047"/>
  <outline>
    <contour>
      <point x="811.0" y="-20.0" type="qcurve" smooth="yes"/>
      <point x="472.75" y="-20.0"/>
      <point x="104.0" y="372.0"/>
      <point x="104.0" y="735.0" type="qcurve" smooth="yes"/>
      <point x="104.0" y="982.5"/>
      <point x="303.25" y="1324.25"/>
      <point x="481.0" y="1406.0" type="qcurve" smooth="yes"/>
      <point x="557.5" y="1441.25"/>
      <point x="755.0" y="1483.0"/>
      <point x="872.0" y="1483.0" type="qcurve" smooth="yes"/>
      <point x="1010.0" y="1483.0"/>
      <point x="1255.25" y="1430.75"/>
      <point x="1346" y="1391" type="qcurve"/>
      <point x="1221.0" y="1081.0" type="line"/>
      <point x="1063.5" y="1159.0"/>
      <point x="874.0" y="1159.0" type="qcurve" smooth="yes"/>
      <point x="758.5" y="1159.0"/>
      <point x="596.7499999999999" y="1058.25"/>
      <point x="512.0" y="864.5"/>
      <point x="512.0" y="725.0" type="qcurve" smooth="yes"/>
      <point x="512.0" y="520.25"/>
      <point x="682.75" y="305.0"/>
      <point x="844.0" y="305.0" type="qcurve" smooth="yes"/>
      <point x="888.25" y="305.0"/>
      <point x="969.25" y="313.75"/>
      <point x="1006" y="322" type="qcurve"/>
      <point x="1006" y="551" type="line"/>
      <point x="745" y="551" type="line"/>
      <point x="745" y="856" type="line"/>
      <point x="1376" y="856" type="line"/>
      <point x="1376.0" y="68.0" type="line"/>
      <point x="1247.75" y="23.75"/>
      <point x="964.75" y="-20.0"/>
    </contour>
    <contour>
      <point x="758" y="0" type="move" name="bottom"/>
    </contour>
    <contour>
      <point x="758" y="1462" type="move" name="top"/>
    </contour>
  </outline>
</glyph>
<glyph name="J" format="1">
  <advance width="721"/>
  <unicode hex="004A"/>
  <outline>
    <contour>
      <point x="43.0" y="-459.0" type="qcurve" smooth="yes"/>
      <point x="-11.0" y="-459.0"/>
      <point x="-113.25" y="-448.5"/>
      <point x="-162" y="-438" type="qcurve"/>
      <point x="-162.0" y="-131.0" type="line"/>
      <point x="-108.75" y="-141.5"/>
      <point x="-46.75" y="-152.0"/>
      <point x="-16.0" y="-152.0" type="qcurve" smooth="yes"/>
      <point x="85.13636363636363" y="-152.0"/>
      <point x="126.0" y="-90.0" type="qcurve" smooth="yes"/>
      <point x="147.0" y="-59.25"/>
      <point x="166.0" y="39.25"/>
      <point x="166" y="109" type="qcurve" smooth="yes"/>
      <point x="166" y="1462" type="line"/>
      <point x="563" y="1462" type="line"/>
      <point x="563.0" y="143.0" type="line" smooth="yes"/>
      <point x="563.0" y="-4.0"/>
      <point x="498.75" y="-228.25"/>
      <point x="435.0" y="-304.0" type="qcurve" smooth="yes"/>
      <point x="370.5" y="-381.25"/>
      <point x="174.25" y="-459.0"/>
    </contour>
    <contour>
      <point x="361" y="0" type="move" name="bottom"/>
    </contour>
    <contour>
      <point x="361" y="1462" type="move" name="top"/>
    </contour>
  </outline>
</glyph>
<glyph name="O" format="1">
  <advance width="1632"/>
  <unicode hex="004F"/>
  <outline>
    <contour>
      <point x="1526.0" y="733.0" type="qcurve" smooth="yes"/>
      <point x="1526.0" y="487.0"/>
      <point x="1364.25" y="151.5"/>
      <point x="1047.5" y="-20.0"/>
      <point x="815.0" y="-20.0" type="qcurve" smooth="yes"/>
      <point x="585.5" y="-20.0"/>
      <point x="268.24999999999994" y="152.49999999999997"/>
      <point x="104.0" y="489.0"/>
      <point x="104.0" y="735.0" type="qcurve" smooth="yes"/>
      <point x="104.0" y="978.5"/>
      <point x="267.1666666666667" y="1312.9166666666665"/>
      <point x="585.0" y="1485.0"/>
      <point x="817.0" y="1485.0" type="qcurve" smooth="yes"/>
      <point x="1049.5" y="1485.0"/>
      <point x="1365.25" y="1314.4166666666665"/>
      <point x="1526.0" y="979.5"/>
    </contour>
    <contour>
      <point x="520.0" y="733.0" type="qcurve" smooth="yes"/>
      <point x="520.0" y="520.75"/>
      <point x="667.25" y="309.0"/>
      <point x="815.0" y="309.0" type="qcurve" smooth="yes"/>
      <point x="965.0" y="309.0"/>
      <point x="1110.0" y="514.75"/>
      <point x="1110.0" y="733.0" type="qcurve" smooth="yes"/>
      <point x="1110.0" y="952.0"/>
      <point x="963.25" y="1161.0"/>
      <point x="817.0" y="1161.0" type="qcurve" smooth="yes"/>
      <point x="668.5" y="1161.0"/>
      <point x="520.0" y="946.75"/>
    </contour>
    <contour>
      <point x="816" y="0" type="move" name="bottom"/>
    </contour>
    <contour>
      <point x="816" y="731" type="move" name="center"/>
    </contour>
    <contour>
      <point x="1469" y="10" type="move" name="ogonek"/>
    </contour>
    <contour>
      <point x="816" y="1462" type="move" name="top"/>
    </contour>
    <contour>
      <point x="240" y="1462" type="move" name="topleft"/>
    </contour>
    <contour>
      <point x="1612" y="1462" type="move" name="topright"/>
    </contour>
  </outline>
</glyph>
<glyph name="Q" format="1">
  <advance width="1632"/>
  <unicode hex="0051"/>
  <outline>
    <contour>
      <point x="1075" y="-348" type="line"/>
      <point x="815.0" y="-20.0" type="line"/>
      <point x="814.25" y="-20.0"/>
      <point x="811.75" y="-20.0"/>
      <point x="811.0" y="-20.0" type="qcurve" smooth="yes"/>
      <point x="583.0" y="-19.0"/>
      <point x="267.5" y="153.75"/>
      <point x="104.0" y="489.50000000000006"/>
      <point x="104.0" y="735.0" type="qcurve" smooth="yes"/>
      <point x="104.0" y="978.5"/>
      <point x="267.1666666666667" y="1312.9166666666665"/>
      <point x="585.0" y="1485.0"/>
      <point x="817.0" y="1485.0" type="qcurve" smooth="yes"/>
      <point x="1049.5" y="1485.0"/>
      <point x="1365.25" y="1314.4166666666665"/>
      <point x="1526.0" y="979.5"/>
      <point x="1526.0" y="733.0" type="qcurve" smooth="yes"/>
      <point x="1526.0" y="484.75"/>
      <point x="1368.25" y="149.25"/>
      <point x="1210" y="63" type="qcurve"/>
      <point x="1567" y="-348" type="line"/>
    </contour>
    <contour>
      <point x="815.0" y="309.0" type="qcurve" smooth="yes"/>
      <point x="965.0" y="309.0"/>
      <point x="1110.0" y="514.75"/>
      <point x="1110.0" y="733.0" type="qcurve" smooth="yes"/>
      <point x="1110.0" y="952.0"/>
      <point x="963.25" y="1161.0"/>
      <point x="817.0" y="1161.0" type="qcurve" smooth="yes"/>
      <point x="668.5" y="1161.0"/>
      <point x="520.0" y="946.75"/>
      <point x="520.0" y="733.0" type="qcurve" smooth="yes"/>
      <point x="520.0" y="520.75"/>
      <point x="667.25" y="309.0"/>
    </contour>
    <contour>
      <point x="816" y="0" type="move" name="bottom"/>
    </contour>
    <contour>
      <point x="816" y="1462" type="move" name="top"/>
    </contour>
  </outline>
</glyph>
<glyph name="R" format="1">
  <advance width="1386"/>
  <unicode hex="0052"/>
  <outline>
    <contour>
      <point x="158" y="0" type="line"/>
      <point x="158" y="1462" type="line"/>
      <point x="637.0" y="1462.0" type="line" smooth="yes"/>
      <point x="934.75" y="1462.0"/>
      <point x="1233.0" y="1246.0"/>
      <point x="1233.0" y="1030.0" type="qcurve" smooth="yes"/>
      <point x="1233.0" y="903.25"/>
      <point x="1108.75" y="706.75"/>
      <point x="985" y="637" type="qcurve"/>
      <point x="1411" y="0" type="line"/>
      <point x="963" y="0" type="line"/>
      <point x="653" y="532" type="line"/>
      <point x="553" y="532" type="line"/>
      <point x="553" y="0" type="line"/>
    </contour>
    <contour>
      <point x="553" y="829" type="line"/>
      <point x="627.0" y="829.0" type="line" smooth="yes"/>
      <point x="730.5" y="829.0"/>
      <point x="834.0" y="920.5"/>
      <point x="834.0" y="1012.0" type="qcurve" smooth="yes"/>
      <point x="834.0" y="1087.75"/>
      <point x="732.25" y="1163.0"/>
      <point x="631" y="1163" type="qcurve" smooth="yes"/>
      <point x="553" y="1163" type="line"/>
    </contour>
    <contour>
      <point x="693" y="0" type="move" name="bottom"/>
    </contour>
    <contour>
      <point x="693" y="1462" type="move" name="top"/>
    </contour>
  </outline>
</glyph>
<glyph name="S" format="1">
  <advance width="1182"/>
  <unicode hex="0053"/>
  <outline>
    <contour>
      <point x="521.0" y="-20.0" type="qcurve" smooth="yes"/>
      <point x="440.5" y="-20.0"/>
      <point x="296.75" y="-2.333333333333334"/>
      <point x="160.0" y="38.0"/>
      <point x="90" y="72" type="qcurve"/>
      <point x="90.0" y="424.0" type="line"/>
      <point x="204.0" y="365.5"/>
      <point x="450.25" y="301.0"/>
      <point x="544.0" y="301.0" type="qcurve" smooth="yes"/>
      <point x="637.0" y="301.0"/>
      <point x="719.0" y="361.5"/>
      <point x="719.0" y="408.0" type="qcurve" smooth="yes"/>
      <point x="719.0" y="451.0"/>
      <point x="653.6666666666666" y="513.75"/>
      <point x="535.0" y="569.5"/>
      <point x="455.0" y="602.0" type="qcurve" smooth="yes"/>
      <point x="310.25" y="660.5"/>
      <point x="169.5" y="787.75"/>
      <point x="135.0" y="868.0" type="qcurve" smooth="yes"/>
      <point x="100.0" y="950.1739130434783"/>
      <point x="100.0" y="1050.0" type="qcurve" smooth="yes"/>
      <point x="100.0" y="1256.25"/>
      <point x="392.25" y="1483.0"/>
      <point x="645.0" y="1483.0" type="qcurve" smooth="yes"/>
      <point x="764.25" y="1483.0"/>
      <point x="996.25" y="1430.5"/>
      <point x="1114" y="1378" type="qcurve"/>
      <point x="993.0" y="1073.0" type="line"/>
      <point x="924.5" y="1104.5"/>
      <point x="799.6666666666667" y="1146.25"/>
      <point x="689.5" y="1167.0"/>
      <point x="643.0" y="1167.0" type="qcurve" smooth="yes"/>
      <point x="562.0" y="1167.0"/>
      <point x="492.0" y="1113.0"/>
      <point x="492.0" y="1074.0" type="qcurve" smooth="yes"/>
      <point x="492.0" y="1051.5"/>
      <point x="515.0" y="1008.75"/>
      <point x="539.0" y="993.0" type="qcurve" smooth="yes"/>
      <point x="582.5" y="965.25"/>
      <point x="716.5" y="900.5"/>
      <point x="778.0" y="872.0" type="qcurve" smooth="yes"/>
      <point x="901.0" y="815.5"/>
      <point x="1048.5" y="697.5833333333333"/>
      <point x="1114.0" y="552.0"/>
      <point x="1114.0" y="454.0" type="qcurve" smooth="yes"/>
      <point x="1114.0" y="295.5"/>
      <point x="962.5" y="84.91666666666666"/>
      <point x="695.0" y="-20.0"/>
    </contour>
    <contour>
      <point x="583" y="0" type="move" name="bottom"/>
    </contour>
    <contour>
      <point x="591" y="1462" type="move" name="top"/>
    </contour>
  </outline>
</glyph>
<glyph name="V" format="1">
  <advance width="1421"/>
  <unicode hex="0056"/>
  <outline>
    <contour>
      <point x="477" y="0" type="line"/>
      <point x="0" y="1462" type="line"/>
      <point x="444" y="1462" type="line"/>
      <point x="643.0" y="721.0" type="line" smooth="yes"/>
      <point x="665.0" y="639.0"/>
      <point x="693.6666666666667" y="507.75"/>
      <point x="709.0" y="409.5"/>
      <point x="711.0" y="377.0" type="qcurve"/>
      <point x="715.5" y="423.5"/>
      <point x="738.0833333333333" y="552.4166666666667"/>
      <point x="765.0" y="677.0"/>
      <point x="776" y="717" type="qcurve" smooth="yes"/>
      <point x="979" y="1462" type="line"/>
      <point x="1421" y="1462" type="line"/>
      <point x="942" y="0" type="line"/>
    </contour>
    <contour>
      <point x="711" y="0" type="move" name="bottom"/>
    </contour>
    <contour>
      <point x="711" y="1462" type="move" name="top"/>
    </contour>
  </outline>
</glyph>
<glyph name="W" format="1">
  <advance width="2128"/>
  <unicode hex="0057"/>
  <outline>
    <contour>
      <point x="393" y="0" type="line"/>
      <point x="31" y="1462" type="line"/>
      <point x="412" y="1462" type="line"/>
      <point x="571.0" y="729.0" type="line" smooth="yes"/>
      <point x="588.5" y="648.0"/>
      <point x="617.1666666666666" y="508.0"/>
      <point x="638.5" y="390.0"/>
      <point x="645.0" y="342.0" type="qcurve"/>
      <point x="651.375" y="393.0"/>
      <point x="676.5989583333334" y="538.25"/>
      <point x="708.1510416666666" y="699.25"/>
      <point x="740.5" y="851.25"/>
      <point x="754" y="909" type="qcurve" smooth="yes"/>
      <point x="883" y="1462" type="line"/>
      <point x="1249" y="1462" type="line"/>
      <point x="1374.0" y="909.0" type="line" smooth="yes"/>
      <point x="1394.0" y="820.0"/>
      <point x="1438.9166666666667" y="599.25"/>
      <point x="1475.5" y="399.5"/>
      <point x="1483.0" y="342.0" type="qcurve"/>
      <point x="1489.75" y="397.5"/>
      <point x="1524.0" y="589.75"/>
      <point x="1554" y="727" type="qcurve" smooth="yes"/>
      <point x="1716" y="1462" type="line"/>
      <point x="2097" y="1462" type="line"/>
      <point x="1737" y="0" type="line"/>
      <point x="1270" y="0" type="line"/>
      <point x="1130.0" y="637.0" type="line" smooth="yes"/>
      <point x="1124.0" y="664.0"/>
      <point x="1098.9166666666665" y="793.9166666666665"/>
      <point x="1073.5" y="941.5"/>
      <point x="1067.0" y="995.0" type="qcurve"/>
      <point x="1058.75" y="929.75"/>
      <point x="1024.0" y="737.0"/>
      <point x="1006" y="656" type="qcurve" smooth="yes"/>
      <point x="860" y="0" type="line"/>
    </contour>
    <contour>
      <point x="1064" y="0" type="move" name="bottom"/>
    </contour>
    <contour>
      <point x="1064" y="1462" type="move" name="top"/>
    </contour>
  </outline>
</glyph>
<glyph name="bracketright" format="1">
  <advance width="664"/>
  <unicode hex="005D"/>
  <note>
bracketright
</note>
  <outline>
    <contour>
      <point x="47" y="-344" type="line"/>
      <point x="47" y="-90" type="line"/>
      <point x="229" y="-90" type="line"/>
      <point x="229" y="1249" type="line"/>
      <point x="47" y="1249" type="line"/>
      <point x="47" y="1503" type="line"/>
      <point x="547" y="1503" type="line"/>
      <point x="547" y="-344" type="line"/>
    </contour>
  </outline>
</glyph>
<glyph name="asciicircum" format="1">
  <advance width="1075"/>
  <unicode hex="005E"/>
  <note>
asciicircum
</note>
  <outline>
    <contour>
      <point x="-16" y="502" type="line"/>
      <point x="424" y="1468" type="line"/>
      <point x="594" y="1468" type="line"/>
      <point x="1102" y="502" type="line"/>
      <point x="807" y="502" type="line"/>
      <point x="518" y="1079" type="line"/>
      <point x="270" y="502" type="line"/>
    </contour>
  </outline>
</glyph>
<glyph name="b" format="1">
  <advance width="1317"/>
  <unicode hex="0062"/>
  <outline>
    <contour>
      <point x="815.0" y="-20.0" type="qcurve" smooth="yes"/>
      <point x="716.0" y="-20.0"/>
      <point x="589.75" y="42.0"/>
      <point x="526" y="111" type="qcurve"/>
      <point x="502" y="111" type="line"/>
      <point x="440" y="0" type="line"/>
      <point x="135" y="0" type="line"/>
      <point x="135" y="1556" type="line"/>
      <point x="526" y="1556" type="line"/>
      <point x="526.0" y="1204.0" type="line" smooth="yes"/>
      <point x="526.0" y="1172.5"/>
      <point x="518.75" y="1064.25"/>
      <point x="512" y="987" type="qcurve"/>
      <point x="526.0" y="987.0" type="line"/>
      <point x="583.0" y="1074.75"/>
      <point x="731.75" y="1153.0"/>
      <point x="827.0" y="1153.0" type="qcurve" smooth="yes"/>
      <point x="1012.25" y="1153.0"/>
      <point x="1229.0" y="842.75"/>
      <point x="1229.0" y="569.0" type="qcurve" smooth="yes"/>
      <point x="1229.0" y="293.0"/>
      <point x="1010.0" y="-20.0"/>
    </contour>
    <contour>
      <point x="688.0" y="295.0" type="qcurve" smooth="yes"/>
      <point x="734.0" y="295.0"/>
      <point x="797.8333333333333" y="357.75"/>
      <point x="831.0" y="481.5"/>
      <point x="831.0" y="573.0" type="qcurve" smooth="yes"/>
      <point x="831.0" y="709.5"/>
      <point x="757.5" y="846.0"/>
      <point x="684.0" y="846.0" type="qcurve" smooth="yes"/>
      <point x="629.5" y="846.0"/>
      <point x="559.5833333333334" y="795.9166666666665"/>
      <point x="526.0" y="691.5"/>
      <point x="526" y="610" type="qcurve" smooth="yes"/>
      <point x="526.0" y="555.0" type="line" smooth="yes"/>
      <point x="526.0" y="462.5"/>
      <point x="559.0833333333333" y="347.91666666666663"/>
      <point x="630.5" y="295.0"/>
    </contour>
    <contour>
      <point x="659" y="0" type="move" name="bottom"/>
    </contour>
    <contour>
      <point x="659" y="1133" type="move" name="top"/>
    </contour>
  </outline>
</glyph>
<glyph name="c" format="1">
  <advance width="1104"/>
  <unicode hex="0063"/>
  <outline>
    <contour>
      <point x="651.0" y="-20.0" type="qcurve" smooth="yes"/>
      <point x="372.75" y="-20.0"/>
      <point x="86.0" y="279.75"/>
      <point x="86.0" y="561.0" type="qcurve" smooth="yes"/>
      <point x="86.0" y="843.0"/>
      <point x="396.25" y="1153.0"/>
      <point x="682.0" y="1153.0" type="qcurve" smooth="yes"/>
      <point x="877.9824561403509" y="1153.0"/>
      <point x="1053" y="1067" type="qcurve"/>
      <point x="938.0" y="778.0" type="line"/>
      <point x="866.75" y="808.75"/>
      <point x="747.25" y="846.0"/>
      <point x="682.0" y="846.0" type="qcurve" smooth="yes"/>
      <point x="617.6521739130435" y="846.0"/>
      <point x="572.0" y="811.0" type="qcurve" smooth="yes"/>
      <point x="483.0" y="743.4827586206897"/>
      <point x="483.0" y="563.0" type="qcurve" smooth="yes"/>
      <point x="483.0" y="410.0"/>
      <point x="546.0" y="344.0" type="qcurve" smooth="yes"/>
      <point x="595.9714285714285" y="291.0"/>
      <point x="684.0" y="291.0" type="qcurve" smooth="yes"/>
      <point x="857.2835820895523" y="291.0"/>
      <point x="1014" y="391" type="qcurve"/>
      <point x="1014.0" y="80.0" type="line"/>
      <point x="863.2537313432836" y="-20.0"/>
    </contour>
    <contour>
      <point x="552" y="0" type="move" name="bottom"/>
    </contour>
    <contour>
      <point x="552" y="1133" type="move" name="top"/>
    </contour>
  </outline>
</glyph>
<glyph name="d" format="1">
  <advance width="1317"/>
  <unicode hex="0064"/>
  <outline>
    <contour>
      <point x="487.0" y="-20.0" type="qcurve" smooth="yes"/>
      <point x="348.0" y="-20.0"/>
      <point x="170.66666666666666" y="142.49999999999997"/>
      <point x="86.0" y="409.0"/>
      <point x="86.0" y="565.0" type="qcurve" smooth="yes"/>
      <point x="86.0" y="841.0"/>
      <point x="307.75" y="1153.0"/>
      <point x="502.0" y="1153.0" type="qcurve" smooth="yes"/>
      <point x="597.25" y="1153.0"/>
      <point x="739.75" y="1077.0"/>
      <point x="799" y="987" type="qcurve"/>
      <point x="807.0" y="987.0" type="line"/>
      <point x="797.25" y="1053.75"/>
      <point x="788.0" y="1186.25"/>
      <point x="788" y="1253" type="qcurve" smooth="yes"/>
      <point x="788" y="1556" type="line"/>
      <point x="1182" y="1556" type="line"/>
      <point x="1182" y="0" type="line"/>
      <point x="887" y="0" type="line"/>
      <point x="803" y="143" type="line"/>
      <point x="788.0" y="143.0" type="line"/>
      <point x="737.75" y="61.25"/>
      <point x="586.75" y="-20.0"/>
    </contour>
    <contour>
      <point x="647.0" y="289.0" type="qcurve" smooth="yes"/>
      <point x="709.5" y="289.0"/>
      <point x="784.4166666666666" y="341.16666666666663"/>
      <point x="819.0" y="448.0"/>
      <point x="821" y="530" type="qcurve" smooth="yes"/>
      <point x="821.0" y="561.0" type="line" smooth="yes"/>
      <point x="821.0" y="661.0"/>
      <point x="783.2499999999999" y="782.8333333333334"/>
      <point x="704.5" y="838.0"/>
      <point x="643.0" y="838.0" type="qcurve" smooth="yes"/>
      <point x="591.5" y="838.0"/>
      <point x="519.0833333333333" y="773.0833333333333"/>
      <point x="481.0" y="648.5"/>
      <point x="481.0" y="559.0" type="qcurve" smooth="yes"/>
      <point x="481.0" y="471.0"/>
      <point x="519.4166666666666" y="350.66666666666663"/>
      <point x="593.5" y="289.0"/>
    </contour>
    <contour>
      <point x="659.04" y="0" type="move" name="bottom"/>
    </contour>
    <contour>
      <point x="659.04" y="544" type="move" name="center"/>
    </contour>
    <contour>
      <point x="659.04" y="1087" type="move" name="top"/>
    </contour>
    <contour>
      <point x="1678" y="1556" type="move" name="topright"/>
    </contour>
  </outline>
</glyph>
<glyph name="e" format="1">
  <advance width="1266"/>
  <unicode hex="0065"/>
  <outline>
    <contour>
      <point x="682.0" y="-20.0" type="qcurve" smooth="yes"/>
      <point x="399.25" y="-20.0"/>
      <point x="86.0" y="280.75"/>
      <point x="86.0" y="559.0" type="qcurve" smooth="yes"/>
      <point x="86.0" y="750.5"/>
      <point x="215.91666666666669" y="1015.5833333333334"/>
      <point x="465.50000000000006" y="1153.0"/>
      <point x="645.0" y="1153.0" type="qcurve" smooth="yes"/>
      <point x="900.75" y="1153.0"/>
      <point x="1180.0" y="886.25"/>
      <point x="1180" y="635" type="qcurve" smooth="yes"/>
      <point x="1180" y="461" type="line"/>
      <point x="481.0" y="461.0" type="line"/>
      <point x="484.75" y="365.75"/>
      <point x="615.75" y="258.0"/>
      <point x="729.0" y="258.0" type="qcurve" smooth="yes"/>
      <point x="797.5" y="258.0"/>
      <point x="918.3333333333333" y="274.75"/>
      <point x="1038.5" y="312.5"/>
      <point x="1106" y="344" type="qcurve"/>
      <point x="1106.0" y="63.0" type="line"/>
      <point x="1013.75" y="15.75"/>
      <point x="817.75" y="-20.0"/>
    </contour>
    <contour>
      <point x="489" y="707" type="qcurve"/>
      <point x="825.0" y="707.0" type="line"/>
      <point x="822.75" y="788.75"/>
      <point x="734.0" y="887.0"/>
      <point x="659.0" y="887.0" type="qcurve" smooth="yes"/>
      <point x="590.0" y="887.0"/>
      <point x="497.25" y="800.0"/>
    </contour>
    <contour>
      <point x="633" y="0" type="move" name="bottom"/>
    </contour>
    <contour>
      <point x="869" y="10" type="move" name="ogonek"/>
    </contour>
    <contour>
      <point x="633" y="1133" type="move" name="top"/>
    </contour>
  </outline>
</glyph>
<glyph name="h" format="1">
  <advance width="1372"/>
  <unicode hex="0068"/>
  <outline>
    <contour>
      <point x="135" y="0" type="line"/>
      <point x="135" y="1556" type="line"/>
      <point x="526" y="1556" type="line"/>
      <point x="526.0" y="1335.0" type="line" smooth="yes"/>
      <point x="526.0" y="1260.0"/>
      <point x="518.25" y="1089.0"/>
      <point x="510" y="993" type="qcurve"/>
      <point x="528.0" y="993.0" type="line"/>
      <point x="584.25" y="1080.75"/>
      <point x="738.0" y="1153.0"/>
      <point x="840.0" y="1153.0" type="qcurve" smooth="yes"/>
      <point x="1029.75" y="1153.0"/>
      <point x="1241.0" y="934.25"/>
      <point x="1241" y="737" type="qcurve" smooth="yes"/>
      <point x="1241" y="0" type="line"/>
      <point x="848" y="0" type="line"/>
      <point x="848.0" y="618.0" type="line" smooth="yes"/>
      <point x="848.0" y="846.0"/>
      <point x="713.0" y="846.0" type="qcurve" smooth="yes"/>
      <point x="635.7142857142857" y="846.0"/>
      <point x="592.0" y="795.0" type="qcurve" smooth="yes"/>
      <point x="526.0" y="718.7333333333333"/>
      <point x="526" y="498" type="qcurve" smooth="yes"/>
      <point x="526" y="0" type="line"/>
    </contour>
    <contour>
      <point x="686" y="0" type="move" name="bottom"/>
    </contour>
    <contour>
      <point x="686" y="544" type="move" name="center"/>
    </contour>
    <contour>
      <point x="686" y="1492" type="move" name="top"/>
    </contour>
  </outline>
</glyph>
<glyph name="k" format="1">
  <advance width="1350"/>
  <unicode hex="006B"/>
  <outline>
    <contour>
      <point x="135" y="0" type="line"/>
      <point x="135" y="1556" type="line"/>
      <point x="528" y="1556" type="line"/>
      <point x="528.0" y="944.0" type="line" smooth="yes"/>
      <point x="528.0" y="865.25"/>
      <point x="517.25" y="712.0"/>
      <point x="506" y="637" type="qcurve"/>
      <point x="514.0" y="637.0" type="line"/>
      <point x="549.25" y="693.25"/>
      <point x="610.25" y="781.5"/>
      <point x="635" y="813" type="qcurve" smooth="yes"/>
      <point x="889" y="1133" type="line"/>
      <point x="1325" y="1133" type="line"/>
      <point x="932" y="651" type="line"/>
      <point x="1350" y="0" type="line"/>
      <point x="903" y="0" type="line"/>
      <point x="655" y="406" type="line"/>
      <point x="528" y="309" type="line"/>
      <point x="528" y="0" type="line"/>
    </contour>
    <contour>
      <point x="675" y="0" type="move" name="bottom"/>
    </contour>
    <contour>
      <point x="675" y="1133" type="move" name="top"/>
    </contour>
  </outline>
</glyph>
<glyph name="m" format="1">
  <advance width="2048"/>
  <unicode hex="006D"/>
  <outline>
    <contour>
      <point x="135" y="0" type="line"/>
      <point x="135" y="1133" type="line"/>
      <point x="430" y="1133" type="line"/>
      <point x="479" y="993" type="line"/>
      <point x="502.0" y="993.0" type="line"/>
      <point x="547.0" y="1071.0"/>
      <point x="718.25" y="1153.0"/>
      <point x="827.0" y="1153.0" type="qcurve" smooth="yes"/>
      <point x="949.25" y="1153.0"/>
      <point x="1121.5" y="1078.25"/>
      <point x="1171" y="1004" type="qcurve"/>
      <point x="1202.0" y="1004.0" type="line"/>
      <point x="1250.0" y="1073.75"/>
      <point x="1421.25" y="1153.0"/>
      <point x="1524.0" y="1153.0" type="qcurve" smooth="yes"/>
      <point x="1725.0" y="1153.0"/>
      <point x="1917.0" y="947.0"/>
      <point x="1917" y="737" type="qcurve" smooth="yes"/>
      <point x="1917" y="0" type="line"/>
      <point x="1526" y="0" type="line"/>
      <point x="1526.0" y="616.0" type="line" smooth="yes"/>
      <point x="1526.0" y="730.75"/>
      <point x="1463.25" y="846.0"/>
      <point x="1395.0" y="846.0" type="qcurve" smooth="yes"/>
      <point x="1350.0" y="846.0"/>
      <point x="1284.0" y="808.0"/>
      <point x="1263.0" y="769.0" type="qcurve" smooth="yes"/>
      <point x="1241.25" y="730.0"/>
      <point x="1221.0" y="609.75"/>
      <point x="1221" y="528" type="qcurve" smooth="yes"/>
      <point x="1221" y="0" type="line"/>
      <point x="829" y="0" type="line"/>
      <point x="829.0" y="616.0" type="line" smooth="yes"/>
      <point x="829.0" y="846.0"/>
      <point x="702.0" y="846.0" type="qcurve" smooth="yes"/>
      <point x="656.25" y="846.0"/>
      <point x="590.0" y="807.0"/>
      <point x="569.0" y="765.0" type="qcurve" smooth="yes"/>
      <point x="526.0" y="684.7333333333333"/>
      <point x="526" y="496" type="qcurve" smooth="yes"/>
      <point x="526" y="0" type="line"/>
    </contour>
    <contour>
      <point x="1024" y="0" type="move" name="bottom"/>
    </contour>
    <contour>
      <point x="1024" y="1133" type="move" name="top"/>
    </contour>
  </outline>
</glyph>
<glyph name="n" format="1">
  <advance width="1372"/>
  <unicode hex="006E"/>
  <outline>
    <contour>
      <point x="135" y="0" type="line"/>
      <point x="135" y="1133" type="line"/>
      <point x="430" y="1133" type="line"/>
      <point x="479" y="993" type="line"/>
      <point x="502.0" y="993.0" type="line"/>
      <point x="552.25" y="1073.25"/>
      <point x="729.25" y="1153.0"/>
      <point x="844.0" y="1153.0" type="qcurve" smooth="yes"/>
      <point x="1032.25" y="1153.0"/>
      <point x="1241.0" y="935.0"/>
      <point x="1241" y="737" type="qcurve" smooth="yes"/>
      <point x="1241" y="0" type="line"/>
      <point x="850" y="0" type="line"/>
      <point x="850.0" y="618.0" type="line" smooth="yes"/>
      <point x="850.0" y="731.25"/>
      <point x="785.0" y="846.0"/>
      <point x="713.0" y="846.0" type="qcurve" smooth="yes"/>
      <point x="624.2558139534884" y="846.0"/>
      <point x="581.0" y="784.0" type="qcurve" smooth="yes"/>
      <point x="526.0" y="707.2894736842105"/>
      <point x="526" y="496" type="qcurve" smooth="yes"/>
      <point x="526" y="0" type="line"/>
    </contour>
    <contour>
      <point x="686" y="0" type="move" name="bottom"/>
    </contour>
    <contour>
      <point x="686" y="1133" type="move" name="top"/>
    </contour>
  </outline>
</glyph>
<glyph name="p" format="1">
  <advance width="1317"/>
  <unicode hex="0070"/>
  <outline>
    <contour>
      <point x="135" y="-492" type="line"/>
      <point x="135" y="1133" type="line"/>
      <point x="453" y="1133" type="line"/>
      <point x="508" y="989" type="line"/>
      <point x="526.0" y="989.0" type="line"/>
      <point x="635.8348623853211" y="1153.0"/>
      <point x="827.0" y="1153.0" type="qcurve" smooth="yes"/>
      <point x="1015.25" y="1153.0"/>
      <point x="1229.0" y="841.25"/>
      <point x="1229.0" y="569.0" type="qcurve" smooth="yes"/>
      <point x="1229.0" y="295.25"/>
      <point x="1006.25" y="-20.0"/>
      <point x="815.0" y="-20.0" type="qcurve" smooth="yes"/>
      <point x="728.75" y="-20.0"/>
      <point x="592.75" y="36.75"/>
      <point x="526" y="111" type="qcurve"/>
      <point x="508.0" y="111.0" type="line"/>
      <point x="526.0" y="-7.5"/>
      <point x="526" y="-37" type="qcurve" smooth="yes"/>
      <point x="526" y="-492" type="line"/>
    </contour>
    <contour>
      <point x="688.0" y="295.0" type="qcurve" smooth="yes"/>
      <point x="763.0" y="295.0"/>
      <point x="831.0" y="423.75"/>
      <point x="831.0" y="573.0" type="qcurve" smooth="yes"/>
      <point x="831.0" y="719.25"/>
      <point x="762.75" y="846.0"/>
      <point x="684.0" y="846.0" type="qcurve" smooth="yes"/>
      <point x="597.75" y="846.0"/>
      <point x="526.0" y="715.25"/>
      <point x="526" y="602" type="qcurve" smooth="yes"/>
      <point x="526.0" y="571.0" type="line" smooth="yes"/>
      <point x="526.0" y="424.75"/>
      <point x="604.0" y="295.0"/>
    </contour>
    <contour>
      <point x="659" y="0" type="move" name="bottom"/>
    </contour>
    <contour>
      <point x="659" y="1133" type="move" name="top"/>
    </contour>
  </outline>
</glyph>
<glyph name="q" format="1">
  <advance width="1317"/>
  <unicode hex="0071"/>
  <outline>
    <contour>
      <point x="791" y="-492" type="line"/>
      <point x="791.0" y="-23.0" type="line" smooth="yes"/>
      <point x="791.0" y="-5.75"/>
      <point x="797.0" y="77.0"/>
      <point x="803" y="143" type="qcurve"/>
      <point x="791.0" y="143.0" type="line"/>
      <point x="743.0" y="61.25"/>
      <point x="593.25" y="-20.0"/>
      <point x="492.0" y="-20.0" type="qcurve" smooth="yes"/>
      <point x="302.25" y="-20.0"/>
      <point x="86.0" y="292.0"/>
      <point x="86.0" y="565.0" type="qcurve" smooth="yes"/>
      <point x="86.0" y="749.0"/>
      <point x="185.75" y="1012.3333333333333"/>
      <point x="370.5" y="1153.0"/>
      <point x="498.0" y="1153.0" type="qcurve" smooth="yes"/>
      <point x="703.8224299065421" y="1153.0"/>
      <point x="807" y="993" type="qcurve"/>
      <point x="815" y="993" type="line"/>
      <point x="844" y="1133" type="line"/>
      <point x="1182" y="1133" type="line"/>
      <point x="1182" y="-492" type="line"/>
    </contour>
    <contour>
      <point x="651.0" y="283.0" type="qcurve" smooth="yes"/>
      <point x="702.75" y="283.0"/>
      <point x="772.75" y="318.25"/>
      <point x="793.0" y="358.0" type="qcurve" smooth="yes"/>
      <point x="821.0" y="414.0"/>
      <point x="821" y="524" type="qcurve" smooth="yes"/>
      <point x="821.0" y="571.0" type="line" smooth="yes"/>
      <point x="821.0" y="713.9615384615385"/>
      <point x="784.0" y="778.0" type="qcurve" smooth="yes"/>
      <point x="743.68" y="850.0"/>
      <point x="645.0" y="850.0" type="qcurve" smooth="yes"/>
      <point x="564.0" y="850.0"/>
      <point x="483.0" y="704.5"/>
      <point x="483.0" y="559.0" type="qcurve" smooth="yes"/>
      <point x="483.0" y="460.5"/>
      <point x="519.0833333333333" y="338.91666666666663"/>
      <point x="593.5" y="283.0"/>
    </contour>
    <contour>
      <point x="659" y="0" type="move" name="bottom"/>
    </contour>
    <contour>
      <point x="659" y="1133" type="move" name="top"/>
    </contour>
  </outline>
</glyph>
<glyph name="t" format="1">
  <advance width="942"/>
  <unicode hex="0074"/>
  <outline>
    <contour>
      <point x="561.0" y="-20.0" type="qcurve" smooth="yes"/>
      <point x="363.75" y="-20.0"/>
      <point x="190.0" y="172.75"/>
      <point x="190" y="373" type="qcurve" smooth="yes"/>
      <point x="190" y="840" type="line"/>
      <point x="53" y="840" type="line"/>
      <point x="53" y="999" type="line"/>
      <point x="227" y="1122" type="line"/>
      <point x="328" y="1360" type="line"/>
      <point x="584" y="1360" type="line"/>
      <point x="584" y="1133" type="line"/>
      <point x="862" y="1133" type="line"/>
      <point x="862" y="840" type="line"/>
      <point x="584" y="840" type="line"/>
      <point x="584.0" y="399.0" type="line" smooth="yes"/>
      <point x="584.0" y="344.25"/>
      <point x="636.75" y="289.0"/>
      <point x="690.0" y="289.0" type="qcurve" smooth="yes"/>
      <point x="769.5" y="289.0"/>
      <point x="879" y="328" type="qcurve"/>
      <point x="879.0" y="43.0" type="line"/>
      <point x="800.25" y="9.25"/>
      <point x="657.0" y="-20.0"/>
    </contour>
    <contour>
      <point x="471" y="0" type="move" name="bottom"/>
    </contour>
    <contour>
      <point x="471" y="567" type="move" name="center"/>
    </contour>
    <contour>
      <point x="471" y="1133" type="move" name="top"/>
    </contour>
    <contour>
      <point x="1094" y="1576" type="move" name="topright"/>
    </contour>
  </outline>
</glyph>
<glyph name="w" format="1">
  <advance width="1864"/>
  <unicode hex="0077"/>
  <outline>
    <contour>
      <point x="334" y="0" type="line"/>
      <point x="25" y="1133" type="line"/>
      <point x="410" y="1133" type="line"/>
      <point x="501.0" y="698.0" type="line" smooth="yes"/>
      <point x="512.625" y="641.75"/>
      <point x="530.1302083333334" y="541.921875"/>
      <point x="542.6197916666666" y="451.328125"/>
      <point x="550.75" y="366.875"/>
      <point x="553" y="326" type="qcurve"/>
      <point x="559.0" y="326.0" type="line"/>
      <point x="560.5" y="351.875"/>
      <point x="566.203125" y="412.0260416666667"/>
      <point x="578.046875" y="491.7239583333333"/>
      <point x="599.125" y="601.0"/>
      <point x="616" y="676" type="qcurve" smooth="yes"/>
      <point x="719" y="1133" type="line"/>
      <point x="1151" y="1133" type="line"/>
      <point x="1247.0" y="670.0" type="line" smooth="yes"/>
      <point x="1271.75" y="550.75"/>
      <point x="1299.0" y="387.5"/>
      <point x="1305" y="326" type="qcurve"/>
      <point x="1311.0" y="326.0" type="line"/>
      <point x="1314.5" y="375.0"/>
      <point x="1331.0" y="518.6666666666667"/>
      <point x="1351.5" y="657.0"/>
      <point x="1361" y="698" type="qcurve" smooth="yes"/>
      <point x="1462" y="1133" type="line"/>
      <point x="1839" y="1133" type="line"/>
      <point x="1528" y="0" type="line"/>
      <point x="1110" y="0" type="line"/>
      <point x="982.0" y="540.0" type="line" smooth="yes"/>
      <point x="975.5" y="567.5"/>
      <point x="956.5833333333333" y="671.5833333333333"/>
      <point x="938.0" y="788.0"/>
      <point x="932" y="834" type="qcurve"/>
      <point x="926.0" y="834.0" type="line"/>
      <point x="909.5" y="740.5"/>
      <point x="884.25" y="600.0"/>
      <point x="866.0" y="505.5"/>
      <point x="860" y="481" type="qcurve" smooth="yes"/>
      <point x="745" y="0" type="line"/>
    </contour>
    <contour>
      <point x="932" y="0" type="move" name="bottom"/>
    </contour>
    <contour>
      <point x="932" y="1133" type="move" name="top"/>
    </contour>
  </outline>
</glyph>
<glyph name="y" format="1">
  <advance width="1249"/>
  <unicode hex="0079"/>
  <outline>
    <contour>
      <point x="262.0" y="-492.0" type="qcurve" smooth="yes"/>
      <point x="187.0" y="-492.0"/>
      <point x="102" y="-475" type="qcurve"/>
      <point x="102.0" y="-168.0" type="line"/>
      <point x="128.25" y="-174.0"/>
      <point x="189.25" y="-180.0"/>
      <point x="223.0" y="-180.0" type="qcurve" smooth="yes"/>
      <point x="274.75" y="-180.0"/>
      <point x="352.75" y="-139.75"/>
      <point x="382.0" y="-103.0" type="qcurve" smooth="yes"/>
      <point x="396.25" y="-85.0"/>
      <point x="427.5" y="-25.25"/>
      <point x="444" y="16" type="qcurve"/>
      <point x="-2" y="1133" type="line"/>
      <point x="410" y="1133" type="line"/>
      <point x="602.0" y="483.0" type="line" smooth="yes"/>
      <point x="606.5" y="466.0"/>
      <point x="614.0" y="427.33333333333326"/>
      <point x="619.5" y="384.0"/>
      <point x="621" y="360" type="qcurve"/>
      <point x="629.0" y="360.0" type="line"/>
      <point x="630.875" y="377.25"/>
      <point x="635.75" y="409.5364583333333"/>
      <point x="641.75" y="439.7135416666667"/>
      <point x="648.875" y="467.875"/>
      <point x="653" y="481" type="qcurve" smooth="yes"/>
      <point x="850" y="1133" type="line"/>
      <point x="1249" y="1133" type="line"/>
      <point x="801.0" y="-72.0" type="line" smooth="yes"/>
      <point x="743.5" y="-225.5"/>
      <point x="595.6666666666667" y="-409.91666666666663"/>
      <point x="396.5" y="-492.0"/>
    </contour>
    <contour>
      <point x="1025" y="0" type="move" name="bottom"/>
    </contour>
    <contour>
      <point x="625" y="1133" type="move" name="top"/>
    </contour>
  </outline>
</glyph>
<glyph name="z" format="1">
  <advance width="1038"/>
  <unicode hex="007A"/>
  <outline>
    <contour>
      <point x="987" y="299" type="line"/>
      <point x="987" y="0" type="line"/>
      <point x="49" y="0" type="line"/>
      <point x="49" y="223" type="line"/>
      <point x="518" y="834" type="line"/>
      <point x="76" y="834" type="line"/>
      <point x="76" y="1133" type="line"/>
      <point x="965" y="1133" type="line"/>
      <point x="965" y="891" type="line"/>
      <point x="516" y="299" type="line"/>
    </contour>
    <contour>
      <point x="519" y="0" type="move" name="bottom"/>
    </contour>
    <contour>
      <point x="519" y="1133" type="move" name="top"/>
    </contour>
  </outline>
</glyph>
<glyph name="braceleft" format="1">
  <advance width="887"/>
  <unicode hex="007B"/>
  <note>
braceleft
</note>
  <outline>
    <contour>
      <point x="821" y="-344" type="line"/>
      <point x="623.75" y="-344.0"/>
      <point x="404.0" y="-279.75"/>
      <point x="356.0" y="-210.0" type="qcurve" smooth="yes"/>
      <point x="307.0" y="-141.6969696969697"/>
      <point x="307" y="0" type="qcurve" smooth="yes"/>
      <point x="307.0" y="248.0" type="line" smooth="yes"/>
      <point x="307.0" y="322.1081081081081"/>
      <point x="249.0" y="366.0" type="qcurve" smooth="yes"/>
      <point x="183.23529411764707" y="418.0"/>
      <point x="61" y="418" type="qcurve"/>
      <point x="61.0" y="719.0" type="line"/>
      <point x="219.53846153846155" y="719.0"/>
      <point x="278.0" y="799.0" type="qcurve" smooth="yes"/>
      <point x="307.0" y="835.6315789473684"/>
      <point x="307" y="889" type="qcurve" smooth="yes"/>
      <point x="307.0" y="1143.0" type="line" smooth="yes"/>
      <point x="307.0" y="1281.75"/>
      <point x="405.0" y="1420.5"/>
      <point x="516.0" y="1452.0" type="qcurve" smooth="yes"/>
      <point x="623.7619047619048" y="1483.0"/>
      <point x="821" y="1483" type="qcurve"/>
      <point x="821.0" y="1204.0" type="line"/>
      <point x="730.8301886792453" y="1200.9433962264152"/>
      <point x="701.0" y="1191.0" type="qcurve" smooth="yes"/>
      <point x="669.5" y="1180.5"/>
      <point x="631.0" y="1136.25"/>
      <point x="631" y="1098" type="qcurve" smooth="yes"/>
      <point x="631.0" y="827.0" type="line" smooth="yes"/>
      <point x="631.0" y="713.75"/>
      <point x="517.75" y="593.0"/>
      <point x="391" y="575" type="qcurve"/>
      <point x="391.0" y="563.0" type="line"/>
      <point x="519.25" y="542.75"/>
      <point x="631.0" y="425.0"/>
      <point x="631" y="317" type="qcurve" smooth="yes"/>
      <point x="631.0" y="41.0" type="line" smooth="yes"/>
      <point x="631.0" y="2.0"/>
      <point x="672.75" y="-41.5"/>
      <point x="708.0" y="-52.0" type="qcurve" smooth="yes"/>
      <point x="744.3081761006289" y="-63.0503144654088"/>
      <point x="821" y="-66" type="qcurve"/>
    </contour>
  </outline>
</glyph>
<glyph name="braceright" format="1">
  <advance width="887"/>
  <unicode hex="007D"/>
  <note>
braceright
</note>
  <outline>
    <contour>
      <point x="66" y="-344" type="qcurve"/>
      <point x="66.0" y="-66.0" type="line"/>
      <point x="174.53543307086613" y="-61.47769028871391"/>
      <point x="215.0" y="-36.0" type="qcurve" smooth="yes"/>
      <point x="256.0" y="-10.185185185185185"/>
      <point x="256" y="41" type="qcurve" smooth="yes"/>
      <point x="256.0" y="317.0" type="line" smooth="yes"/>
      <point x="256.0" y="425.0"/>
      <point x="367.75" y="542.75"/>
      <point x="496" y="563" type="qcurve"/>
      <point x="496.0" y="575.0" type="line"/>
      <point x="369.25" y="593.0"/>
      <point x="256.0" y="713.75"/>
      <point x="256" y="827" type="qcurve" smooth="yes"/>
      <point x="256.0" y="1098.0" type="line" smooth="yes"/>
      <point x="256.0" y="1137.0"/>
      <point x="217.0" y="1180.5"/>
      <point x="187.0" y="1191.0" type="qcurve" smooth="yes"/>
      <point x="157.11111111111111" y="1200.962962962963"/>
      <point x="66" y="1204" type="qcurve"/>
      <point x="66.0" y="1483.0" type="line"/>
      <point x="261.75" y="1483.0"/>
      <point x="482.25" y="1420.0"/>
      <point x="531.0" y="1351.0" type="qcurve" smooth="yes"/>
      <point x="555.75" y="1316.5"/>
      <point x="580.0" y="1212.75"/>
      <point x="580" y="1143" type="qcurve" smooth="yes"/>
      <point x="580.0" y="889.0" type="line" smooth="yes"/>
      <point x="580.0" y="859.75"/>
      <point x="597.75" y="810.5"/>
      <point x="615.0" y="791.0" type="qcurve" smooth="yes"/>
      <point x="645.0" y="755.75"/>
      <point x="751.5" y="719.0"/>
      <point x="825" y="719" type="qcurve"/>
      <point x="825.0" y="418.0" type="line"/>
      <point x="758.25" y="418.0"/>
      <point x="655.5" y="384.75"/>
      <point x="624.0" y="354.0" type="qcurve" smooth="yes"/>
      <point x="580.0" y="311.57142857142856"/>
      <point x="580" y="248" type="qcurve" smooth="yes"/>
      <point x="580.0" y="0.0" type="line" smooth="yes"/>
      <point x="580.0" y="-140.25"/>
      <point x="482.25" y="-279.75"/>
      <point x="372.0" y="-312.0" type="qcurve" smooth="yes"/>
      <point x="317.25" y="-327.75"/>
      <point x="164.25" y="-344.0"/>
    </contour>
  </outline>
</glyph>
<glyph name="asciitilde" format="1">
  <advance width="1159"/>
  <unicode hex="007E"/>
  <note>
asciitilde
</note>
  <outline>
    <contour>
      <point x="72" y="526" type="qcurve"/>
      <point x="72.0" y="807.0" type="line"/>
      <point x="175.5" y="915.0"/>
      <point x="336.0" y="915.0" type="qcurve" smooth="yes"/>
      <point x="405.0" y="915.0"/>
      <point x="526.75" y="888.0"/>
      <point x="616.0" y="852.0" type="qcurve" smooth="yes"/>
      <point x="745.3243243243244" y="797.0"/>
      <point x="854.0" y="797.0" type="qcurve" smooth="yes"/>
      <point x="904.25" y="797.0"/>
      <point x="1028.75" y="861.0"/>
      <point x="1085" y="918" type="qcurve"/>
      <point x="1085.0" y="637.0" type="line"/>
      <point x="980.4794520547945" y="528.0"/>
      <point x="821.0" y="528.0" type="qcurve" smooth="yes"/>
      <point x="749.75" y="528.0"/>
      <point x="625.0" y="558.25"/>
      <point x="541.0" y="592.0" type="qcurve" smooth="yes"/>
      <point x="411.6756756756757" y="647.0"/>
      <point x="305.0" y="647.0" type="qcurve" smooth="yes"/>
      <point x="194.49382716049382" y="647.0"/>
    </contour>
  </outline>
</glyph>
<glyph name="cent" format="1">
  <advance width="1200"/>
  <unicode hex="00A2"/>
  <note>
cent
</note>
  <outline>
    <contour>
      <point x="565" y="-20" type="line"/>
      <point x="565.0" y="166.0" type="line"/>
      <point x="352.75" y="196.75"/>
      <point x="129.0" y="487.0"/>
      <point x="129.0" y="739.0" type="qcurve" smooth="yes"/>
      <point x="129.0" y="979.0"/>
      <point x="355.0" y="1275.75"/>
      <point x="565" y="1317" type="qcurve"/>
      <point x="565" y="1483" type="line"/>
      <point x="772" y="1483" type="line"/>
      <point x="772" y="1142" type="line"/>
      <point x="643" y="1327" type="line"/>
      <point x="725.0" y="1331.0" type="line" smooth="yes"/>
      <point x="920.9824561403509" y="1331.0"/>
      <point x="1096" y="1245" type="qcurve"/>
      <point x="981.0" y="956.0" type="line"/>
      <point x="909.75" y="986.75"/>
      <point x="790.25" y="1024.0"/>
      <point x="725.0" y="1024.0" type="qcurve" smooth="yes"/>
      <point x="648.0" y="1024.0"/>
      <point x="600.0" y="976.0" type="qcurve" smooth="yes"/>
      <point x="526.0" y="903.5416666666666"/>
      <point x="526.0" y="741.0" type="qcurve" smooth="yes"/>
      <point x="526.0" y="596.5"/>
      <point x="583.0" y="529.0" type="qcurve" smooth="yes"/>
      <point x="632.5" y="469.0"/>
      <point x="727.0" y="469.0" type="qcurve" smooth="yes"/>
      <point x="900.2835820895523" y="469.0"/>
      <point x="1057" y="569" type="qcurve"/>
      <point x="1057.0" y="258.0" type="line"/>
      <point x="976.0" y="205.5"/>
      <point x="790.25" y="156.0"/>
      <point x="686" y="156" type="qcurve" smooth="yes"/>
      <point x="638" y="157" type="line"/>
      <point x="772" y="347" type="line"/>
      <point x="772" y="-20" type="line"/>
    </contour>
  </outline>
</glyph>
<glyph name="sterling" format="1">
  <advance width="1200"/>
  <unicode hex="00A3"/>
  <note>
sterling
</note>
  <outline>
    <contour>
      <point x="104" y="0" type="line"/>
      <point x="104.0" y="313.0" type="line"/>
      <point x="185.0" y="360.25"/>
      <point x="242.25" y="418.75"/>
      <point x="255.0" y="457.0" type="qcurve" smooth="yes"/>
      <point x="261.75" y="475.75"/>
      <point x="268.0" y="523.25"/>
      <point x="268" y="551" type="qcurve" smooth="yes"/>
      <point x="268" y="649" type="line"/>
      <point x="102" y="649" type="line"/>
      <point x="102" y="926" type="line"/>
      <point x="268" y="926" type="line"/>
      <point x="268.0" y="1044.0" type="line" smooth="yes"/>
      <point x="268.0" y="1259.25"/>
      <point x="501.75" y="1485.0"/>
      <point x="723.0" y="1485.0" type="qcurve" smooth="yes"/>
      <point x="934.1818181818182" y="1485.0"/>
      <point x="1128" y="1403" type="qcurve"/>
      <point x="1018.0" y="1114.0" type="line"/>
      <point x="943.75" y="1141.75"/>
      <point x="817.75" y="1169.0"/>
      <point x="766.0" y="1169.0" type="qcurve" smooth="yes"/>
      <point x="708.25" y="1169.0"/>
      <point x="653.0" y="1103.25"/>
      <point x="653" y="1032" type="qcurve" smooth="yes"/>
      <point x="653" y="926" type="line"/>
      <point x="997" y="926" type="line"/>
      <point x="997" y="649" type="line"/>
      <point x="653" y="649" type="line"/>
      <point x="653.0" y="553.0" type="line" smooth="yes"/>
      <point x="653.0" y="478.0"/>
      <point x="573.5" y="364.25"/>
      <point x="494" y="326" type="qcurve"/>
      <point x="1165" y="326" type="line"/>
      <point x="1165" y="0" type="line"/>
    </contour>
  </outline>
</glyph>
<glyph name="currency" format="1">
  <advance width="1159"/>
  <unicode hex="00A4"/>
  <note>
currency
</note>
  <outline>
    <contour>
      <point x="868" y="250" type="line"/>
      <point x="748.0" y="369.0" type="line"/>
      <point x="659.5" y="330.0"/>
      <point x="571.0" y="330.0" type="qcurve" smooth="yes"/>
      <point x="470.48" y="330.0"/>
      <point x="395" y="367" type="qcurve"/>
      <point x="276" y="252" type="line"/>
      <point x="98" y="430" type="line"/>
      <point x="221.0" y="549.0" type="line"/>
      <point x="180.0" y="632.5185185185185"/>
      <point x="180.0" y="723.0" type="qcurve" smooth="yes"/>
      <point x="180.0" y="810.925925925926"/>
      <point x="221" y="899" type="qcurve"/>
      <point x="96" y="1018" type="line"/>
      <point x="276" y="1200" type="line"/>
      <point x="399.0" y="1077.0" type="line"/>
      <point x="484.037037037037" y="1118.0"/>
      <point x="571.0" y="1118.0" type="qcurve" smooth="yes"/>
      <point x="662.5" y="1118.0"/>
      <point x="748" y="1073" type="qcurve"/>
      <point x="868" y="1200" type="line"/>
      <point x="1053" y="1026" type="line"/>
      <point x="926.0" y="901.0" type="line"/>
      <point x="967.0" y="823.5555555555555"/>
      <point x="967.0" y="723.0" type="qcurve" smooth="yes"/>
      <point x="967.0" y="630.5185185185185"/>
      <point x="926" y="547" type="qcurve"/>
      <point x="1047" y="428" type="line"/>
    </contour>
    <contour>
      <point x="571.0" y="588.0" type="qcurve" smooth="yes"/>
      <point x="609.5" y="588.0"/>
      <point x="674.0833333333333" y="623.4166666666665"/>
      <point x="713.0" y="684.5"/>
      <point x="713.0" y="723.0" type="qcurve" smooth="yes"/>
      <point x="713.0" y="761.5"/>
      <point x="674.0833333333333" y="823.5833333333333"/>
      <point x="609.5" y="860.0"/>
      <point x="571.0" y="860.0" type="qcurve" smooth="yes"/>
      <point x="533.5" y="860.0"/>
      <point x="472.25" y="822.75"/>
      <point x="436.0" y="760.5"/>
      <point x="436.0" y="723.0" type="qcurve" smooth="yes"/>
      <point x="436.0" y="685.5"/>
      <point x="473.5" y="624.25"/>
      <point x="535.0" y="588.0"/>
    </contour>
  </outline>
</glyph>
<glyph name="section" format="1">
  <advance width="1024"/>
  <unicode hex="00A7"/>
  <note>
section
</note>
  <outline>
    <contour>
      <point x="469.0" y="-25.0" type="qcurve" smooth="yes"/>
      <point x="367.0" y="-25.0"/>
      <point x="191.25" y="18.25"/>
      <point x="117" y="61" type="qcurve"/>
      <point x="117.0" y="305.0" type="line"/>
      <point x="169.5" y="275.5"/>
      <point x="299.4166666666667" y="226.41666666666669"/>
      <point x="425.0" y="197.0"/>
      <point x="471.0" y="197.0" type="qcurve" smooth="yes"/>
      <point x="540.75" y="197.0"/>
      <point x="610.0" y="245.0"/>
      <point x="610.0" y="293.0" type="qcurve" smooth="yes"/>
      <point x="610.0" y="314.0"/>
      <point x="594.75" y="350.25"/>
      <point x="579.0" y="366.0" type="qcurve" smooth="yes"/>
      <point x="563.25" y="381.0"/>
      <point x="494.0" y="420.0"/>
      <point x="440.0" y="444.0" type="qcurve" smooth="yes"/>
      <point x="370.25" y="474.75"/>
      <point x="271.5" y="528.5"/>
      <point x="237.0" y="554.0" type="qcurve" smooth="yes"/>
      <point x="201.0" y="581.0"/>
      <point x="154.5" y="634.0"/>
      <point x="138.0" y="664.0" type="qcurve" smooth="yes"/>
      <point x="106.0" y="723.4285714285714"/>
      <point x="106.0" y="803.0" type="qcurve" smooth="yes"/>
      <point x="106.0" y="866.75"/>
      <point x="192.0" y="988.75"/>
      <point x="270.0" y="1036.0" type="qcurve"/>
      <point x="199.5" y="1087.0"/>
      <point x="129.0" y="1210.0"/>
      <point x="129.0" y="1282.0" type="qcurve" smooth="yes"/>
      <point x="129.0" y="1419.25"/>
      <point x="351.25" y="1577.0"/>
      <point x="535.0" y="1577.0" type="qcurve" smooth="yes"/>
      <point x="630.25" y="1577.0"/>
      <point x="815.75" y="1533.75"/>
      <point x="905" y="1491" type="qcurve"/>
      <point x="807.0" y="1270.0" type="line"/>
      <point x="758.5" y="1296.5"/>
      <point x="659.4999999999999" y="1335.083333333333"/>
      <point x="568.5" y="1356.0"/>
      <point x="532.0" y="1356.0" type="qcurve" smooth="yes"/>
      <point x="478.0" y="1356.0"/>
      <point x="424.0" y="1318.75"/>
      <point x="424.0" y="1282.0" type="qcurve" smooth="yes"/>
      <point x="424.0" y="1255.5"/>
      <point x="459.58333333333337" y="1207.4166666666667"/>
      <point x="527.5" y="1163.0"/>
      <point x="576.0" y="1142.0" type="qcurve" smooth="yes"/>
      <point x="581.25" y="1139.75"/>
      <point x="592.0" y="1135.25"/>
      <point x="598.0" y="1133.0" type="qcurve" smooth="yes"/>
      <point x="685.375" y="1097.375"/>
      <point x="810.546875" y="1021.5625"/>
      <point x="890.203125" y="939.9375"/>
      <point x="928.0" y="851.375"/>
      <point x="928.0" y="803.0" type="qcurve" smooth="yes"/>
      <point x="928.0" y="725.75"/>
      <point x="864.0" y="605.0"/>
      <point x="780.0" y="545.0" type="qcurve"/>
      <point x="842.25" y="497.75"/>
      <point x="905.0" y="376.0"/>
      <point x="905.0" y="301.0" type="qcurve" smooth="yes"/>
      <point x="905.0" y="151.75"/>
      <point x="672.25" y="-25.0"/>
    </contour>
    <contour>
      <point x="596.0" y="645.0" type="qcurve"/>
      <point x="616.25" y="668.25"/>
      <point x="637.0" y="722.0"/>
      <point x="637.0" y="752.0" type="qcurve" smooth="yes"/>
      <point x="637.0" y="785.75"/>
      <point x="608.5" y="842.5"/>
      <point x="577.0" y="868.0" type="qcurve" smooth="yes"/>
      <point x="555.25" y="886.0"/>
      <point x="494.75" y="919.5"/>
      <point x="455.0" y="936.0" type="qcurve"/>
      <point x="425.75" y="920.25"/>
      <point x="397.0" y="869.25"/>
      <point x="397.0" y="834.0" type="qcurve" smooth="yes"/>
      <point x="397.0" y="808.5"/>
      <point x="419.25" y="763.25"/>
      <point x="441.0" y="743.0" type="qcurve" smooth="yes"/>
      <point x="462.75" y="722.75"/>
      <point x="540.5" y="674.25"/>
    </contour>
  </outline>
</glyph>
<glyph name="copyright" format="1">
  <advance width="1688"/>
  <unicode hex="00A9"/>
  <note>
copyright
</note>
  <outline>
    <contour>
      <point x="879.0" y="262.0" type="qcurve" smooth="yes"/>
      <point x="666.75" y="262.0"/>
      <point x="434.0" y="510.0"/>
      <point x="434.0" y="735.0" type="qcurve" smooth="yes"/>
      <point x="434.0" y="951.75"/>
      <point x="660.25" y="1198.0"/>
      <point x="868.0" y="1198.0" type="qcurve" smooth="yes"/>
      <point x="1034.0" y="1198.0"/>
      <point x="1190" y="1120" type="qcurve"/>
      <point x="1098.0" y="915.0" type="line"/>
      <point x="990.5405405405405" y="971.0"/>
      <point x="887.0" y="971.0" type="qcurve" smooth="yes"/>
      <point x="806.0" y="971.0"/>
      <point x="715.0" y="848.75"/>
      <point x="715.0" y="731.0" type="qcurve" smooth="yes"/>
      <point x="715.0" y="602.75"/>
      <point x="802.25" y="489.0"/>
      <point x="893.0" y="489.0" type="qcurve" smooth="yes"/>
      <point x="1030.111111111111" y="489.0"/>
      <point x="1151" y="557" type="qcurve"/>
      <point x="1151.0" y="326.0" type="line"/>
      <point x="1025.9767441860465" y="262.0"/>
    </contour>
    <contour>
      <point x="844.0" y="-20.0" type="qcurve" smooth="yes"/>
      <point x="706.0" y="-20.0"/>
      <point x="456.16666666666663" y="73.75"/>
      <point x="255.0" y="244.5"/>
      <point x="190.0" y="360.0" type="qcurve" smooth="yes"/>
      <point x="92.0" y="533.3846153846154"/>
      <point x="92.0" y="731.0" type="qcurve" smooth="yes"/>
      <point x="92.0" y="931.25"/>
      <point x="292.25" y="1280.75"/>
      <point x="467.0" y="1382.0" type="qcurve" smooth="yes"/>
      <point x="643.3731343283582" y="1483.0"/>
      <point x="844.0" y="1483.0" type="qcurve" smooth="yes"/>
      <point x="1041.25" y="1483.0"/>
      <point x="1386.75" y="1288.75"/>
      <point x="1491.0" y="1114.0" type="qcurve" smooth="yes"/>
      <point x="1595.0" y="937.6521739130435"/>
      <point x="1595.0" y="731.0" type="qcurve" smooth="yes"/>
      <point x="1595.0" y="527.0"/>
      <point x="1394.5" y="182.25"/>
      <point x="1222.0" y="81.0" type="qcurve" smooth="yes"/>
      <point x="1048.641791044776" y="-20.0"/>
    </contour>
    <contour>
      <point x="844.0" y="143.0" type="qcurve" smooth="yes"/>
      <point x="1002.25" y="143.0"/>
      <point x="1274.25" y="300.5"/>
      <point x="1353.0" y="437.0" type="qcurve" smooth="yes"/>
      <point x="1432.0" y="572.6415094339623"/>
      <point x="1432.0" y="731.0" type="qcurve" smooth="yes"/>
      <point x="1432.0" y="887.75"/>
      <point x="1277.5" y="1160.5"/>
      <point x="1141.0" y="1240.0" type="qcurve" smooth="yes"/>
      <point x="1005.3584905660377" y="1319.0"/>
      <point x="844.0" y="1319.0" type="qcurve" smooth="yes"/>
      <point x="685.75" y="1319.0"/>
      <point x="413.0" y="1162.5"/>
      <point x="335.0" y="1026.0" type="qcurve" smooth="yes"/>
      <point x="256.0" y="890.3584905660377"/>
      <point x="256.0" y="731.0" type="qcurve" smooth="yes"/>
      <point x="256.0" y="572.75"/>
      <point x="415.25" y="298.25"/>
      <point x="551.0" y="221.0" type="qcurve" smooth="yes"/>
      <point x="687.5" y="143.0"/>
    </contour>
  </outline>
</glyph>
<glyph name="ordfeminine" format="1">
  <advance width="813"/>
  <unicode hex="00AA"/>
  <note>
ordfeminine
</note>
  <outline>
    <contour>
      <point x="288.0" y="729.0" type="qcurve" smooth="yes"/>
      <point x="173.25" y="729.0"/>
      <point x="49.0" y="856.25"/>
      <point x="49.0" y="968.0" type="qcurve" smooth="yes"/>
      <point x="49.0" y="1083.5"/>
      <point x="203.25" y="1193.0"/>
      <point x="393" y="1202" type="qcurve" smooth="yes"/>
      <point x="481" y="1206" type="line"/>
      <point x="481.0" y="1212.0" type="line" smooth="yes"/>
      <point x="481.0" y="1254.0"/>
      <point x="428.75" y="1288.0"/>
      <point x="377.0" y="1288.0" type="qcurve" smooth="yes"/>
      <point x="322.25" y="1288.0"/>
      <point x="221.25" y="1257.75"/>
      <point x="168" y="1233" type="qcurve"/>
      <point x="92.0" y="1399.0" type="line"/>
      <point x="184.25" y="1443.25"/>
      <point x="335.0" y="1479.0"/>
      <point x="410.0" y="1479.0" type="qcurve" smooth="yes"/>
      <point x="578.0" y="1479.0"/>
      <point x="733.0" y="1328.0"/>
      <point x="733" y="1190" type="qcurve" smooth="yes"/>
      <point x="733" y="741" type="line"/>
      <point x="571" y="741" type="line"/>
      <point x="527" y="868" type="line"/>
      <point x="525.0" y="868.0" type="line"/>
      <point x="478.5" y="792.25"/>
      <point x="363.0" y="729.0"/>
    </contour>
    <contour>
      <point x="371.0" y="911.0" type="qcurve" smooth="yes"/>
      <point x="421.25" y="911.0"/>
      <point x="481.0" y="987.75"/>
      <point x="481" y="1047" type="qcurve" smooth="yes"/>
      <point x="481" y="1069" type="line"/>
      <point x="397.0" y="1063.0" type="line" smooth="yes"/>
      <point x="301.0" y="1056.704918032787"/>
      <point x="301.0" y="980.0" type="qcurve" smooth="yes"/>
      <point x="301.0" y="911.0"/>
    </contour>
  </outline>
</glyph>
<glyph name="registered" format="1">
  <advance width="1688"/>
  <unicode hex="00AE"/>
  <note>
registered
</note>
  <outline>
    <contour>
      <point x="844.0" y="-20.0" type="qcurve" smooth="yes"/>
      <point x="706.0" y="-20.0"/>
      <point x="456.16666666666663" y="73.75"/>
      <point x="255.0" y="244.5"/>
      <point x="190.0" y="360.0" type="qcurve" smooth="yes"/>
      <point x="141.25" y="446.25"/>
      <point x="92.0" y="632.0"/>
      <point x="92.0" y="731.0" type="qcurve" smooth="yes"/>
      <point x="92.0" y="931.25"/>
      <point x="292.25" y="1280.75"/>
      <point x="467.0" y="1382.0" type="qcurve" smooth="yes"/>
      <point x="554.75" y="1432.25"/>
      <point x="742.75" y="1483.0"/>
      <point x="844.0" y="1483.0" type="qcurve" smooth="yes"/>
      <point x="1041.25" y="1483.0"/>
      <point x="1386.75" y="1288.75"/>
      <point x="1491.0" y="1114.0" type="qcurve" smooth="yes"/>
      <point x="1542.75" y="1026.25"/>
      <point x="1595.0" y="835.25"/>
      <point x="1595.0" y="731.0" type="qcurve" smooth="yes"/>
      <point x="1595.0" y="527.0"/>
      <point x="1394.5" y="182.25"/>
      <point x="1222.0" y="81.0" type="qcurve" smooth="yes"/>
      <point x="1135.75" y="30.75"/>
      <point x="946.75" y="-20.0"/>
    </contour>
    <contour>
      <point x="844.0" y="143.0" type="qcurve" smooth="yes"/>
      <point x="1002.25" y="143.0"/>
      <point x="1274.25" y="300.5"/>
      <point x="1353.0" y="437.0" type="qcurve" smooth="yes"/>
      <point x="1392.75" y="505.25"/>
      <point x="1432.0" y="652.25"/>
      <point x="1432.0" y="731.0" type="qcurve" smooth="yes"/>
      <point x="1432.0" y="887.75"/>
      <point x="1277.5" y="1160.5"/>
      <point x="1141.0" y="1240.0" type="qcurve" smooth="yes"/>
      <point x="1072.75" y="1279.75"/>
      <point x="924.25" y="1319.0"/>
      <point x="844.0" y="1319.0" type="qcurve" smooth="yes"/>
      <point x="685.75" y="1319.0"/>
      <point x="413.0" y="1162.5"/>
      <point x="335.0" y="1026.0" type="qcurve" smooth="yes"/>
      <point x="295.25" y="957.75"/>
      <point x="256.0" y="809.75"/>
      <point x="256.0" y="731.0" type="qcurve" smooth="yes"/>
      <point x="256.0" y="572.75"/>
      <point x="415.25" y="298.25"/>
      <point x="551.0" y="221.0" type="qcurve" smooth="yes"/>
      <point x="619.25" y="182.0"/>
      <point x="765.25" y="143.0"/>
    </contour>
    <contour>
      <point x="506" y="313" type="line"/>
      <point x="506" y="1188" type="line"/>
      <point x="797.0" y="1188.0" type="line" smooth="yes"/>
      <point x="1000.25" y="1188.0"/>
      <point x="1204.0" y="1053.0"/>
      <point x="1204.0" y="918.0" type="qcurve" smooth="yes"/>
      <point x="1204.0" y="831.0"/>
      <point x="1138.0" y="712.0"/>
      <point x="1063" y="676" type="qcurve"/>
      <point x="1257" y="313" type="line"/>
      <point x="967" y="313" type="line"/>
      <point x="821" y="633" type="line"/>
      <point x="786" y="633" type="line"/>
      <point x="786" y="313" type="line"/>
    </contour>
    <contour>
      <point x="786" y="809" type="line"/>
      <point x="797.0" y="809.0" type="line" smooth="yes"/>
      <point x="854.75" y="809.0"/>
      <point x="922.0" y="852.25"/>
      <point x="922.0" y="907.0" type="qcurve" smooth="yes"/>
      <point x="922.0" y="954.25"/>
      <point x="867.25" y="993.0"/>
      <point x="799" y="993" type="qcurve" smooth="yes"/>
      <point x="786" y="993" type="line"/>
    </contour>
  </outline>
</glyph>
<glyph name="degree" format="1">
  <advance width="864"/>
  <unicode hex="00B0"/>
  <note>
degree
</note>
  <outline>
    <contour>
      <point x="432.0" y="750.0" type="qcurve" smooth="yes"/>
      <point x="330.5" y="750.0"/>
      <point x="162.91666666666666" y="847.4166666666667"/>
      <point x="63.0" y="1012.4999999999999"/>
      <point x="63.0" y="1114.0" type="qcurve" smooth="yes"/>
      <point x="63.0" y="1215.0"/>
      <point x="162.91666666666666" y="1382.6666666666665"/>
      <point x="330.5" y="1483.0"/>
      <point x="432.0" y="1483.0" type="qcurve" smooth="yes"/>
      <point x="533.0" y="1483.0"/>
      <point x="700.6666666666666" y="1383.0833333333335"/>
      <point x="801.0" y="1215.5"/>
      <point x="801.0" y="1114.0" type="qcurve" smooth="yes"/>
      <point x="801.0" y="1013.0000000000001"/>
      <point x="701.0833333333333" y="847.8333333333333"/>
      <point x="533.5" y="750.0"/>
    </contour>
    <contour>
      <point x="432.0" y="987.0" type="qcurve" smooth="yes"/>
      <point x="486.0" y="987.0"/>
      <point x="563.0" y="1065.25"/>
      <point x="563.0" y="1114.0" type="qcurve" smooth="yes"/>
      <point x="563.0" y="1165.75"/>
      <point x="488.25" y="1247.0"/>
      <point x="432.0" y="1247.0" type="qcurve" smooth="yes"/>
      <point x="375.75" y="1247.0"/>
      <point x="301.0" y="1165.75"/>
      <point x="301.0" y="1114.0" type="qcurve" smooth="yes"/>
      <point x="301.0" y="1063.75"/>
      <point x="378.0" y="987.0"/>
    </contour>
  </outline>
</glyph>
<glyph name="plusminus" format="1">
  <advance width="1159"/>
  <unicode hex="00B1"/>
  <note>
plusminus
</note>
  <outline>
    <contour>
      <point x="444" y="324" type="line"/>
      <point x="444" y="684" type="line"/>
      <point x="72" y="684" type="line"/>
      <point x="72" y="952" type="line"/>
      <point x="444" y="952" type="line"/>
      <point x="444" y="1319" type="line"/>
      <point x="713" y="1319" type="line"/>
      <point x="713" y="952" type="line"/>
      <point x="1085" y="952" type="line"/>
      <point x="1085" y="684" type="line"/>
      <point x="713" y="684" type="line"/>
      <point x="713" y="324" type="line"/>
    </contour>
    <contour>
      <point x="72" y="0" type="line"/>
      <point x="72" y="268" type="line"/>
      <point x="1085" y="268" type="line"/>
      <point x="1085" y="0" type="line"/>
    </contour>
  </outline>
</glyph>
<glyph name="micro" format="1">
  <advance width="1376"/>
  <unicode hex="00B5"/>
  <note>
mu
</note>
  <outline>
    <contour>
      <point x="135" y="-492" type="line"/>
      <point x="135" y="1133" type="line"/>
      <point x="526" y="1133" type="line"/>
      <point x="526.0" y="518.0" type="line" smooth="yes"/>
      <point x="526.0" y="403.25"/>
      <point x="593.25" y="289.0"/>
      <point x="672.0" y="289.0" type="qcurve" smooth="yes"/>
      <point x="752.3414634146342" y="289.0"/>
      <point x="794.0" y="350.0" type="qcurve" smooth="yes"/>
      <point x="848.0" y="430.27027027027026"/>
      <point x="848" y="637" type="qcurve" smooth="yes"/>
      <point x="848" y="1133" type="line"/>
      <point x="1241" y="1133" type="line"/>
      <point x="1241" y="0" type="line"/>
      <point x="948" y="0" type="line"/>
      <point x="895" y="152" type="line"/>
      <point x="879.0" y="152.0" type="line"/>
      <point x="845.25" y="64.25"/>
      <point x="732.0" y="-20.0"/>
      <point x="666.0" y="-20.0" type="qcurve" smooth="yes"/>
      <point x="609.75" y="-20.0"/>
      <point x="541.5" y="20.25"/>
      <point x="513" y="63" type="qcurve"/>
      <point x="515.0" y="63.0" type="line"/>
      <point x="520.25" y="18.0"/>
      <point x="526.0" y="-99.25"/>
      <point x="526" y="-172" type="qcurve" smooth="yes"/>
      <point x="526" y="-492" type="line"/>
    </contour>
  </outline>
</glyph>
<glyph name="paragraph" format="1">
  <advance width="1317"/>
  <unicode hex="00B6"/>
  <note>
paragraph
</note>
  <outline>
    <contour>
      <point x="647" y="-260" type="line"/>
      <point x="647.0" y="559.0" type="line"/>
      <point x="593.0" y="541.0"/>
      <point x="522.0" y="541.0" type="qcurve" smooth="yes"/>
      <point x="414.0" y="541.0"/>
      <point x="255.625" y="603.359375"/>
      <point x="152.375" y="728.390625"/>
      <point x="102.0" y="916.375"/>
      <point x="102.0" y="1042.0" type="qcurve" smooth="yes"/>
      <point x="102.0" y="1297.75"/>
      <point x="316.75" y="1556.0"/>
      <point x="553" y="1556" type="qcurve" smooth="yes"/>
      <point x="1186" y="1556" type="line"/>
      <point x="1186" y="-260" type="line"/>
      <point x="995" y="-260" type="line"/>
      <point x="995" y="1327" type="line"/>
      <point x="838" y="1327" type="line"/>
      <point x="838" y="-260" type="line"/>
    </contour>
  </outline>
</glyph>
<glyph name="onesuperior" format="1">
  <advance width="817"/>
  <unicode hex="00B9"/>
  <note>
onesuperior
</note>
  <outline>
    <contour>
      <point x="334" y="586" type="line"/>
      <point x="334.0" y="942.0" type="line" smooth="yes"/>
      <point x="334.0" y="965.5"/>
      <point x="337.3333333333333" y="1061.3333333333335"/>
      <point x="342.0" y="1148.5"/>
      <point x="344.0" y="1159.0" type="qcurve"/>
      <point x="339.5" y="1149.25"/>
      <point x="324.25" y="1128.0"/>
      <point x="313.0" y="1116.0" type="qcurve" smooth="yes"/>
      <point x="301.75" y="1104.0"/>
      <point x="246.5" y="1054.75"/>
      <point x="203" y="1018" type="qcurve"/>
      <point x="57" y="1188" type="line"/>
      <point x="397" y="1462" type="line"/>
      <point x="616" y="1462" type="line"/>
      <point x="616" y="586" type="line"/>
    </contour>
  </outline>
</glyph>
<glyph name="Oslash" format="1">
  <advance width="1632"/>
  <unicode hex="00D8"/>
  <note>
Oslash
</note>
  <outline>
    <contour>
      <point x="424" y="-109" type="line"/>
      <point x="231" y="16" type="line"/>
      <point x="315.0" y="141.0" type="line"/>
      <point x="104.0" y="334.04255319148933"/>
      <point x="104.0" y="735.0" type="qcurve" smooth="yes"/>
      <point x="104.0" y="978.5"/>
      <point x="267.1666666666667" y="1312.9166666666665"/>
      <point x="585.0" y="1485.0"/>
      <point x="817.0" y="1485.0" type="qcurve" smooth="yes"/>
      <point x="1008.7567567567568" y="1485.0"/>
      <point x="1147" y="1430" type="qcurve"/>
      <point x="1223" y="1548" type="line"/>
      <point x="1413" y="1434" type="line"/>
      <point x="1331.0" y="1309.0" type="line"/>
      <point x="1526.0" y="1120.0"/>
      <point x="1526.0" y="733.0" type="qcurve" smooth="yes"/>
      <point x="1526.0" y="487.0"/>
      <point x="1364.25" y="151.5"/>
      <point x="1047.5" y="-20.0"/>
      <point x="815.0" y="-20.0" type="qcurve" smooth="yes"/>
      <point x="637.0" y="-20.0"/>
      <point x="508" y="23" type="qcurve"/>
    </contour>
    <contour>
      <point x="549" y="494" type="qcurve"/>
      <point x="952.0" y="1133.0" type="line"/>
      <point x="918.25" y="1147.25"/>
      <point x="850.75" y="1161.0"/>
      <point x="817.0" y="1161.0" type="qcurve" smooth="yes"/>
      <point x="668.5" y="1161.0"/>
      <point x="520.0" y="946.75"/>
      <point x="520.0" y="733.0" type="qcurve" smooth="yes"/>
      <point x="520.0" y="579.4736842105264"/>
    </contour>
    <contour>
      <point x="815.0" y="309.0" type="qcurve" smooth="yes"/>
      <point x="965.0" y="309.0"/>
      <point x="1110.0" y="514.75"/>
      <point x="1110.0" y="733.0" type="qcurve" smooth="yes"/>
      <point x="1110.0" y="858.5"/>
      <point x="1092" y="944" type="qcurve"/>
      <point x="698.0" y="324.0" type="line"/>
      <point x="752.0" y="309.0"/>
    </contour>
    <contour>
      <point x="816" y="0" type="move" name="bottom"/>
    </contour>
    <contour>
      <point x="816" y="1462" type="move" name="top"/>
    </contour>
  </outline>
</glyph>
<glyph name="germandbls" format="1">
  <advance width="1536"/>
  <unicode hex="00DF"/>
  <note>
germandbls
</note>
  <outline>
    <contour>
      <point x="987.0" y="-20.0" type="qcurve" smooth="yes"/>
      <point x="876.0" y="-20.0"/>
      <point x="703.25" y="10.5"/>
      <point x="653" y="39" type="qcurve"/>
      <point x="653.0" y="330.0" type="line"/>
      <point x="701.75" y="300.0"/>
      <point x="867.0" y="250.0"/>
      <point x="933.0" y="250.0" type="qcurve" smooth="yes"/>
      <point x="993.0" y="250.0"/>
      <point x="1069.0" y="297.0"/>
      <point x="1069.0" y="339.0" type="qcurve" smooth="yes"/>
      <point x="1069.0" y="370.0"/>
      <point x="1019.3333333333333" y="420.66666666666663"/>
      <point x="935.0" y="468.0"/>
      <point x="883.0" y="494.0" type="qcurve" smooth="yes"/>
      <point x="799.5" y="536.0"/>
      <point x="701.4166666666666" y="614.6666666666666"/>
      <point x="659.0" y="700.0"/>
      <point x="659.0" y="752.0" type="qcurve" smooth="yes"/>
      <point x="659.0" y="823.25"/>
      <point x="730.0" y="923.0"/>
      <point x="799.0" y="974.0" type="qcurve" smooth="yes"/>
      <point x="857.5" y="1016.75"/>
      <point x="938.0" y="1093.25"/>
      <point x="938.0" y="1145.0" type="qcurve" smooth="yes"/>
      <point x="938.0" y="1200.5"/>
      <point x="837.5" y="1268.0"/>
      <point x="746.0" y="1268.0" type="qcurve" smooth="yes"/>
      <point x="637.25" y="1268.0"/>
      <point x="526.0" y="1163.25"/>
      <point x="526" y="1059" type="qcurve" smooth="yes"/>
      <point x="526" y="0" type="line"/>
      <point x="135" y="0" type="line"/>
      <point x="135.0" y="1100.0" type="line" smooth="yes"/>
      <point x="135.0" y="1315.25"/>
      <point x="467.75" y="1567.0"/>
      <point x="761.0" y="1567.0" type="qcurve" smooth="yes"/>
      <point x="933.0" y="1567.0"/>
      <point x="1193.3333333333333" y="1477.6666666666667"/>
      <point x="1339.0" y="1311.0"/>
      <point x="1339.0" y="1195.0" type="qcurve" smooth="yes"/>
      <point x="1339.0" y="1134.25"/>
      <point x="1300.0" y="1040.5"/>
      <point x="1270.0" y="1003.0" type="qcurve" smooth="yes"/>
      <point x="1240.0" y="965.5"/>
      <point x="1171.0" y="905.75"/>
      <point x="1141.0" y="884.0" type="qcurve" smooth="yes"/>
      <point x="1108.0" y="860.0"/>
      <point x="1071.0" y="826.25"/>
      <point x="1071.0" y="809.0" type="qcurve" smooth="yes"/>
      <point x="1071.0" y="798.5"/>
      <point x="1084.0" y="777.5"/>
      <point x="1096.0" y="767.0" type="qcurve" smooth="yes"/>
      <point x="1111.0" y="754.25"/>
      <point x="1156.75" y="727.0"/>
      <point x="1189.0" y="709.0" type="qcurve" smooth="yes"/>
      <point x="1286.5" y="653.5"/>
      <point x="1405.25" y="559.25"/>
      <point x="1436.0" y="509.0" type="qcurve" smooth="yes"/>
      <point x="1458.5" y="472.25"/>
      <point x="1477.0" y="389.0"/>
      <point x="1477.0" y="338.0" type="qcurve" smooth="yes"/>
      <point x="1477.0" y="149.0"/>
      <point x="1236.75" y="-20.0"/>
    </contour>
    <contour>
      <point x="768" y="0" type="move" name="bottom"/>
    </contour>
    <contour>
      <point x="768" y="1133" type="move" name="top"/>
    </contour>
  </outline>
</glyph>
<glyph name="ae" format="1">
  <advance width="1915"/>
  <unicode hex="00E6"/>
  <note>
ae
</note>
  <outline>
    <contour>
      <point x="462.0" y="-20.0" type="qcurve" smooth="yes"/>
      <point x="271.5" y="-20.0"/>
      <point x="74.0" y="181.25"/>
      <point x="74.0" y="344.0" type="qcurve" smooth="yes"/>
      <point x="74.0" y="526.25"/>
      <point x="325.0" y="706.75"/>
      <point x="571" y="715" type="qcurve" smooth="yes"/>
      <point x="754" y="721" type="line"/>
      <point x="754.0" y="739.0" type="line" smooth="yes"/>
      <point x="754.0" y="811.0"/>
      <point x="684.25" y="877.0"/>
      <point x="610.0" y="877.0" type="qcurve" smooth="yes"/>
      <point x="552.25" y="877.0"/>
      <point x="393.5" y="837.5"/>
      <point x="305" y="797" type="qcurve"/>
      <point x="195.0" y="1053.0" type="line"/>
      <point x="291.75" y="1104.75"/>
      <point x="524.25" y="1153.0"/>
      <point x="639.0" y="1153.0" type="qcurve" smooth="yes"/>
      <point x="747.75" y="1153.0"/>
      <point x="913.0" y="1108.5"/>
      <point x="985.0" y="1059.0" type="qcurve"/>
      <point x="1057.0" y="1110.75"/>
      <point x="1232.75" y="1153.0"/>
      <point x="1322.0" y="1153.0" type="qcurve" smooth="yes"/>
      <point x="1568.0" y="1153.0"/>
      <point x="1829.0" y="879.75"/>
      <point x="1829" y="633" type="qcurve" smooth="yes"/>
      <point x="1829" y="461" type="line"/>
      <point x="1133.0" y="461.0" type="line"/>
      <point x="1138.25" y="374.0"/>
      <point x="1268.75" y="258.0"/>
      <point x="1406.0" y="258.0" type="qcurve" smooth="yes"/>
      <point x="1482.5" y="258.0"/>
      <point x="1670.75" y="299.75"/>
      <point x="1757" y="344" type="qcurve"/>
      <point x="1757.0" y="63.0" type="line"/>
      <point x="1671.5" y="18.0"/>
      <point x="1472.5" y="-20.0"/>
      <point x="1366.0" y="-20.0" type="qcurve" smooth="yes"/>
      <point x="1204.75" y="-20.0"/>
      <point x="995.0" y="67.25"/>
      <point x="911.0" y="170.0" type="qcurve"/>
      <point x="841.0" y="97.0"/>
      <point x="714.4166666666666" y="14.166666666666668"/>
      <point x="565.5" y="-20.0"/>
    </contour>
    <contour>
      <point x="581.0" y="256.0" type="qcurve" smooth="yes"/>
      <point x="656.0" y="256.0"/>
      <point x="756.0" y="346.0"/>
      <point x="756" y="418" type="qcurve" smooth="yes"/>
      <point x="756" y="506" type="line"/>
      <point x="672.0" y="502.0" type="line" smooth="yes"/>
      <point x="568.5" y="497.5"/>
      <point x="473.0" y="430.75"/>
      <point x="473.0" y="361.0" type="qcurve" smooth="yes"/>
      <point x="473.0" y="307.0"/>
      <point x="527.75" y="256.0"/>
    </contour>
    <contour>
      <point x="1139" y="707" type="qcurve"/>
      <point x="1479.0" y="707.0" type="line"/>
      <point x="1476.0" y="788.0"/>
      <point x="1387.75" y="887.0"/>
      <point x="1309.0" y="887.0" type="qcurve" smooth="yes"/>
      <point x="1237.0" y="887.0"/>
      <point x="1145.0" y="797.75"/>
    </contour>
    <contour>
      <point x="958" y="0" type="move" name="bottom"/>
    </contour>
    <contour>
      <point x="958" y="1133" type="move" name="top"/>
    </contour>
  </outline>
</glyph>
<glyph name="eth" format="1">
  <advance width="1313"/>
  <unicode hex="00F0"/>
  <note>
eth
</note>
  <outline>
    <contour>
      <point x="649.0" y="-20.0" type="qcurve" smooth="yes"/>
      <point x="476.5" y="-20.0"/>
      <point x="224.75" y="105.66666666666666"/>
      <point x="88.0" y="338.0"/>
      <point x="88.0" y="498.0" type="qcurve" smooth="yes"/>
      <point x="88.0" y="657.5"/>
      <point x="206.24999999999997" y="888.9166666666666"/>
      <point x="421.5" y="1014.0"/>
      <point x="567.0" y="1014.0" type="qcurve" smooth="yes"/>
      <point x="663.0" y="1014.0"/>
      <point x="784.75" y="972.0"/>
      <point x="811" y="930" type="qcurve"/>
      <point x="819.0" y="934.0" type="line"/>
      <point x="750.4285714285714" y="1066.5714285714287"/>
      <point x="676" y="1141" type="qcurve"/>
      <point x="494" y="1022" type="line"/>
      <point x="377" y="1206" type="line"/>
      <point x="520.0" y="1298.0" type="line"/>
      <point x="482.5" y="1321.25"/>
      <point x="408.5" y="1367.75"/>
      <point x="371" y="1391" type="qcurve"/>
      <point x="479.0" y="1573.0" type="line"/>
      <point x="654.3457838143746" y="1498.9315223542728"/>
      <point x="745" y="1438" type="qcurve"/>
      <point x="954" y="1575" type="line"/>
      <point x="1069" y="1393" type="line"/>
      <point x="924.0" y="1296.0" type="line"/>
      <point x="1083.0" y="1139.25"/>
      <point x="1217.0" y="798.25"/>
      <point x="1217.0" y="580.0" type="qcurve" smooth="yes"/>
      <point x="1217.0" y="396.5"/>
      <point x="1079.25" y="127.08333333333334"/>
      <point x="824.5" y="-20.0"/>
    </contour>
    <contour>
      <point x="653.0" y="258.0" type="qcurve" smooth="yes"/>
      <point x="743.75" y="258.0"/>
      <point x="817.0" y="400.25"/>
      <point x="817.0" y="545.0" type="qcurve" smooth="yes"/>
      <point x="817.0" y="629.0"/>
      <point x="727.25" y="733.0"/>
      <point x="653.0" y="733.0" type="qcurve" smooth="yes"/>
      <point x="560.75" y="733.0"/>
      <point x="489.0" y="620.75"/>
      <point x="489.0" y="500.0" type="qcurve" smooth="yes"/>
      <point x="489.0" y="379.25"/>
      <point x="571.25" y="258.0"/>
    </contour>
  </outline>
</glyph>
<glyph name="divide" format="1">
  <advance width="1159"/>
  <unicode hex="00F7"/>
  <note>
divide
</note>
  <outline>
    <contour>
      <point x="72" y="588" type="line"/>
      <point x="72" y="856" type="line"/>
      <point x="1085" y="856" type="line"/>
      <point x="1085" y="588" type="line"/>
    </contour>
    <contour>
      <point x="578.0" y="162.0" type="qcurve" smooth="yes"/>
      <point x="506.75" y="162.0"/>
      <point x="422.0" y="250.25"/>
      <point x="422.0" y="332.0" type="qcurve" smooth="yes"/>
      <point x="422.0" y="502.0"/>
      <point x="578.0" y="502.0" type="qcurve" smooth="yes"/>
      <point x="653.0" y="502.0"/>
      <point x="735.0" y="415.25"/>
      <point x="735.0" y="332.0" type="qcurve" smooth="yes"/>
      <point x="735.0" y="251.75"/>
      <point x="647.75" y="162.0"/>
    </contour>
    <contour>
      <point x="578.0" y="942.0" type="qcurve" smooth="yes"/>
      <point x="506.75" y="942.0"/>
      <point x="422.0" y="1030.25"/>
      <point x="422.0" y="1112.0" type="qcurve" smooth="yes"/>
      <point x="422.0" y="1282.0"/>
      <point x="578.0" y="1282.0" type="qcurve" smooth="yes"/>
      <point x="653.0" y="1282.0"/>
      <point x="735.0" y="1195.25"/>
      <point x="735.0" y="1112.0" type="qcurve" smooth="yes"/>
      <point x="735.0" y="1031.75"/>
      <point x="647.75" y="942.0"/>
    </contour>
  </outline>
</glyph>
<glyph name="thorn" format="1">
  <advance width="1317"/>
  <unicode hex="00FE"/>
  <note>
thorn
</note>
  <outline>
    <contour>
      <point x="135" y="-492" type="line"/>
      <point x="135" y="1556" type="line"/>
      <point x="526" y="1556" type="line"/>
      <point x="526.0" y="1212.0" type="line" smooth="yes"/>
      <point x="526.0" y="1158.75"/>
      <point x="517.0" y="1046.25"/>
      <point x="508" y="987" type="qcurve"/>
      <point x="526.0" y="987.0" type="line"/>
      <point x="568.75" y="1065.0"/>
      <point x="727.25" y="1153.0"/>
      <point x="827.0" y="1153.0" type="qcurve" smooth="yes"/>
      <point x="1012.25" y="1153.0"/>
      <point x="1229.0" y="845.0"/>
      <point x="1229.0" y="569.0" type="qcurve" smooth="yes"/>
      <point x="1229.0" y="388.5"/>
      <point x="1128.083333333333" y="124.08333333333334"/>
      <point x="941.5" y="-20.0"/>
      <point x="813.0" y="-20.0" type="qcurve" smooth="yes"/>
      <point x="726.75" y="-20.0"/>
      <point x="583.0" y="44.5"/>
      <point x="526" y="109" type="qcurve"/>
      <point x="512.0" y="109.0" type="line"/>
      <point x="516.5" y="74.5"/>
      <point x="522.75" y="18.0"/>
      <point x="526.0" y="-26.5"/>
      <point x="526" y="-43" type="qcurve" smooth="yes"/>
      <point x="526" y="-492" type="line"/>
    </contour>
    <contour>
      <point x="688.0" y="295.0" type="qcurve" smooth="yes"/>
      <point x="741.5" y="295.0"/>
      <point x="804.0833333333333" y="357.75"/>
      <point x="831.0" y="481.5"/>
      <point x="831.0" y="573.0" type="qcurve" smooth="yes"/>
      <point x="831.0" y="662.5"/>
      <point x="802.7499999999999" y="784.0833333333334"/>
      <point x="737.5" y="846.0"/>
      <point x="682.0" y="846.0" type="qcurve" smooth="yes"/>
      <point x="625.5" y="846.0"/>
      <point x="556.9166666666665" y="791.3333333333333"/>
      <point x="526.0" y="682.0"/>
      <point x="526" y="600" type="qcurve" smooth="yes"/>
      <point x="526.0" y="571.0" type="line" smooth="yes"/>
      <point x="526.0" y="473.5"/>
      <point x="560.3333333333333" y="351.75"/>
      <point x="632.0" y="295.0"/>
    </contour>
    <contour>
      <point x="659" y="0" type="move" name="bottom"/>
    </contour>
    <contour>
      <point x="659" y="1133" type="move" name="top"/>
    </contour>
  </outline>
</glyph>
<glyph name="dcroat" format="1">
  <advance width="1358"/>
  <unicode hex="0111"/>
  <note>
dcroat
</note>
  <outline>
    <contour>
      <point x="471.0" y="-20.0" type="qcurve" smooth="yes"/>
      <point x="293.25" y="-20.0"/>
      <point x="86.0" y="268.75"/>
      <point x="86.0" y="514.0" type="qcurve" smooth="yes"/>
      <point x="86.0" y="769.75"/>
      <point x="307.75" y="1053.0"/>
      <point x="508.0" y="1053.0" type="qcurve" smooth="yes"/>
      <point x="606.25" y="1053.0"/>
      <point x="757.75" y="970.75"/>
      <point x="811" y="889" type="qcurve"/>
      <point x="819.0" y="889.0" type="line"/>
      <point x="807.0" y="936.25"/>
      <point x="788.0" y="1084.25"/>
      <point x="788" y="1157" type="qcurve" smooth="yes"/>
      <point x="788" y="1167" type="line"/>
      <point x="557" y="1167" type="line"/>
      <point x="557" y="1409" type="line"/>
      <point x="788" y="1409" type="line"/>
      <point x="788" y="1556" type="line"/>
      <point x="1182" y="1556" type="line"/>
      <point x="1182" y="1409" type="line"/>
      <point x="1337" y="1409" type="line"/>
      <point x="1337" y="1167" type="line"/>
      <point x="1182" y="1167" type="line"/>
      <point x="1182" y="0" type="line"/>
      <point x="862" y="0" type="line"/>
      <point x="774" y="143" type="line"/>
      <point x="760.0" y="143.0" type="line"/>
      <point x="707.5" y="61.25"/>
      <point x="563.25" y="-20.0"/>
    </contour>
    <contour>
      <point x="668.0" y="289.0" type="qcurve" smooth="yes"/>
      <point x="752.0" y="289.0"/>
      <point x="818.0" y="387.25"/>
      <point x="821" y="487" type="qcurve" smooth="yes"/>
      <point x="821.0" y="512.0" type="line" smooth="yes"/>
      <point x="821.0" y="584.5"/>
      <point x="781.5" y="684.9166666666667"/>
      <point x="710.0" y="737.0"/>
      <point x="662.0" y="737.0" type="qcurve" smooth="yes"/>
      <point x="590.0" y="737.0"/>
      <point x="518.0" y="623.25"/>
      <point x="518.0" y="510.0" type="qcurve" smooth="yes"/>
      <point x="518.0" y="441.5"/>
      <point x="555.0833333333333" y="342.41666666666663"/>
      <point x="622.5" y="289.0"/>
    </contour>
  </outline>
</glyph>
<glyph name="kgreenlandic" format="1">
  <advance width="1350"/>
  <unicode hex="0138"/>
  <note>
kgreenlandic
</note>
  <outline>
    <contour>
      <point x="135" y="0" type="line"/>
      <point x="135" y="1133" type="line"/>
      <point x="528" y="1133" type="line"/>
      <point x="528.0" y="887.0" type="line" smooth="yes"/>
      <point x="528.0" y="828.5"/>
      <point x="523.25" y="706.75"/>
      <point x="518" y="643" type="qcurve"/>
      <point x="526.0" y="643.0" type="line"/>
      <point x="549.25" y="679.75"/>
      <point x="608.75" y="767.5"/>
      <point x="647" y="817" type="qcurve" smooth="yes"/>
      <point x="893" y="1133" type="line"/>
      <point x="1331" y="1133" type="line"/>
      <point x="926" y="637" type="line"/>
      <point x="1350" y="0" type="line"/>
      <point x="909" y="0" type="line"/>
      <point x="657" y="399" type="line"/>
      <point x="528" y="301" type="line"/>
      <point x="528" y="0" type="line"/>
    </contour>
    <contour>
      <point x="675" y="0" type="move" name="bottom"/>
    </contour>
    <contour>
      <point x="675" y="1133" type="move" name="top"/>
    </contour>
  </outline>
</glyph>
<glyph name="Ldot" format="1">
  <advance width="1192"/>
  <unicode hex="013F"/>
  <note>
Ldot
</note>
  <outline>
    <contour>
      <point x="1116" y="0" type="line"/>
      <point x="158" y="0" type="line"/>
      <point x="158" y="1462" type="line"/>
      <point x="553" y="1462" type="line"/>
      <point x="553" y="319" type="line"/>
      <point x="1116" y="319" type="line"/>
    </contour>
    <contour>
      <point x="735.0" y="763.0" type="qcurve" smooth="yes"/>
      <point x="735.0" y="850.75"/>
      <point x="833.25" y="937.0"/>
      <point x="942.0" y="937.0" type="qcurve" smooth="yes"/>
      <point x="1050.75" y="937.0"/>
      <point x="1151.0" y="849.25"/>
      <point x="1151.0" y="763.0" type="qcurve" smooth="yes"/>
      <point x="1151.0" y="591.0"/>
      <point x="942.0" y="591.0" type="qcurve" smooth="yes"/>
      <point x="735.0" y="591.0"/>
    </contour>
  </outline>
</glyph>
<glyph name="Eng" format="1">
  <advance width="1708"/>
  <unicode hex="014A"/>
  <note>
Eng
</note>
  <outline>
    <contour>
      <point x="1028.0" y="-489.0" type="qcurve" smooth="yes"/>
      <point x="901.9230769230769" y="-489.0"/>
      <point x="805" y="-469" type="qcurve"/>
      <point x="805.0" y="-162.0" type="line"/>
      <point x="868.0" y="-174.0"/>
      <point x="933.5" y="-182.0"/>
      <point x="977.0" y="-182.0" type="qcurve" smooth="yes"/>
      <point x="1138.25" y="-182.0"/>
      <point x="1238.25" y="-16.0"/>
      <point x="1209" y="149" type="qcurve"/>
      <point x="1321" y="-146" type="line"/>
      <point x="498" y="1030" type="line"/>
      <point x="489.0" y="1030.0" type="line"/>
      <point x="498.75" y="934.75"/>
      <point x="508.0" y="727.25"/>
      <point x="508" y="614" type="qcurve" smooth="yes"/>
      <point x="508" y="0" type="line"/>
      <point x="158" y="0" type="line"/>
      <point x="158" y="1462" type="line"/>
      <point x="633" y="1462" type="line"/>
      <point x="1206" y="653" type="line"/>
      <point x="1214.0" y="653.0" type="line"/>
      <point x="1205.75" y="769.25"/>
      <point x="1198.0" y="979.75"/>
      <point x="1198" y="1075" type="qcurve" smooth="yes"/>
      <point x="1198" y="1462" type="line"/>
      <point x="1550" y="1462" type="line"/>
      <point x="1550.0" y="-8.0" type="line" smooth="yes"/>
      <point x="1550.0" y="-233.0"/>
      <point x="1270.25" y="-489.0"/>
    </contour>
  </outline>
</glyph>
<glyph name="OE" format="1">
  <advance width="1960"/>
  <unicode hex="0152"/>
  <note>
OE
</note>
  <outline>
    <contour>
      <point x="774.0" y="-20.0" type="qcurve" smooth="yes"/>
      <point x="561.5" y="-20.0"/>
      <point x="261.91666666666663" y="160.41666666666666"/>
      <point x="104.0" y="498.50000000000006"/>
      <point x="104.0" y="735.0" type="qcurve" smooth="yes"/>
      <point x="104.0" y="974.5"/>
      <point x="261.25" y="1309.5833333333333"/>
      <point x="561.5" y="1485.0"/>
      <point x="776.0" y="1485.0" type="qcurve" smooth="yes"/>
      <point x="820.5" y="1485.0"/>
      <point x="921.4166666666665" y="1478.5"/>
      <point x="1006.0" y="1468.0"/>
      <point x="1026" y="1462" type="qcurve"/>
      <point x="1862" y="1462" type="line"/>
      <point x="1862" y="1145" type="line"/>
      <point x="1389" y="1145" type="line"/>
      <point x="1389" y="915" type="line"/>
      <point x="1825" y="915" type="line"/>
      <point x="1825" y="598" type="line"/>
      <point x="1389" y="598" type="line"/>
      <point x="1389" y="322" type="line"/>
      <point x="1862" y="322" type="line"/>
      <point x="1862" y="0" type="line"/>
      <point x="1018.0" y="0.0" type="line"/>
      <point x="995.5" y="-5.5"/>
      <point x="908.9166666666665" y="-14.583333333333332"/>
      <point x="812.0" y="-20.0"/>
    </contour>
    <contour>
      <point x="776.0" y="309.0" type="qcurve" smooth="yes"/>
      <point x="846.5" y="309.0"/>
      <point x="954.75" y="330.25"/>
      <point x="993" y="352" type="qcurve"/>
      <point x="993.0" y="1112.0" type="line"/>
      <point x="959.25" y="1135.25"/>
      <point x="841.0" y="1161.0"/>
      <point x="778.0" y="1161.0" type="qcurve" smooth="yes"/>
      <point x="652.75" y="1161.0"/>
      <point x="520.0" y="942.25"/>
      <point x="520.0" y="733.0" type="qcurve" smooth="yes"/>
      <point x="520.0" y="528.25"/>
      <point x="649.25" y="309.0"/>
    </contour>
    <contour>
      <point x="980" y="0" type="move" name="bottom"/>
    </contour>
    <contour>
      <point x="980" y="1462" type="move" name="top"/>
    </contour>
  </outline>
</glyph>
<glyph name="oe" format="1">
  <advance width="2007"/>
  <unicode hex="0153"/>
  <note>
oe
</note>
  <outline>
    <contour>
      <point x="649.0" y="-20.0" type="qcurve" smooth="yes"/>
      <point x="477.00000000000006" y="-20.0"/>
      <point x="224.16666666666669" y="124.08333333333334"/>
      <point x="86.0" y="388.5"/>
      <point x="86.0" y="569.0" type="qcurve" smooth="yes"/>
      <point x="86.0" y="753.5"/>
      <point x="220.49999999999997" y="1014.75"/>
      <point x="475.0" y="1153.0"/>
      <point x="655.0" y="1153.0" type="qcurve" smooth="yes"/>
      <point x="768.25" y="1153.0"/>
      <point x="955.75" y="1089.75"/>
      <point x="1030.0" y="1026.0" type="qcurve"/>
      <point x="1183.894117647059" y="1153.0"/>
      <point x="1430.0" y="1153.0" type="qcurve" smooth="yes"/>
      <point x="1657.25" y="1153.0"/>
      <point x="1921.0" y="881.25"/>
      <point x="1921" y="633" type="qcurve" smooth="yes"/>
      <point x="1921" y="461" type="line"/>
      <point x="1225.0" y="461.0" type="line"/>
      <point x="1228.75" y="371.0"/>
      <point x="1368.75" y="258.0"/>
      <point x="1485.0" y="258.0" type="qcurve" smooth="yes"/>
      <point x="1549.5" y="258.0"/>
      <point x="1673.6666666666665" y="277.25"/>
      <point x="1792.5" y="315.5"/>
      <point x="1849" y="344" type="qcurve"/>
      <point x="1849.0" y="63.0" type="line"/>
      <point x="1756.75" y="15.75"/>
      <point x="1566.75" y="-20.0"/>
      <point x="1434.0" y="-20.0" type="qcurve" smooth="yes"/>
      <point x="1314.75" y="-20.0"/>
      <point x="1123.75" y="48.75"/>
      <point x="1051.0" y="117.0" type="qcurve"/>
      <point x="975.25" y="48.75"/>
      <point x="774.25" y="-20.0"/>
    </contour>
    <contour>
      <point x="653.0" y="270.0" type="qcurve" smooth="yes"/>
      <point x="734.7826086956521" y="270.0"/>
      <point x="778.0" y="341.0" type="qcurve" smooth="yes"/>
      <point x="800.5" y="378.5"/>
      <point x="819.0" y="493.25"/>
      <point x="819.0" y="569.0" type="qcurve" smooth="yes"/>
      <point x="819.0" y="659.75"/>
      <point x="790.0" y="786.5"/>
      <point x="757.0" y="821.0" type="qcurve" smooth="yes"/>
      <point x="719.0370370370371" y="862.0"/>
      <point x="651.0" y="862.0" type="qcurve" smooth="yes"/>
      <point x="575.6285714285714" y="862.0"/>
      <point x="537.0" y="810.0" type="qcurve" smooth="yes"/>
      <point x="510.75" y="774.0"/>
      <point x="485.0" y="653.0"/>
      <point x="485.0" y="569.0" type="qcurve" smooth="yes"/>
      <point x="485.0" y="494.75"/>
      <point x="506.75" y="364.75"/>
      <point x="536.0" y="325.0" type="qcurve" smooth="yes"/>
      <point x="554.75" y="299.5"/>
      <point x="612.5" y="270.0"/>
    </contour>
    <contour>
      <point x="1231" y="707" type="qcurve"/>
      <point x="1571.0" y="707.0" type="line"/>
      <point x="1568.75" y="788.75"/>
      <point x="1476.75" y="887.0"/>
      <point x="1407.0" y="887.0" type="qcurve" smooth="yes"/>
      <point x="1326.0" y="887.0"/>
      <point x="1237.75" y="797.0"/>
    </contour>
    <contour>
      <point x="1004" y="0" type="move" name="bottom"/>
    </contour>
    <contour>
      <point x="1004" y="1133" type="move" name="top"/>
    </contour>
  </outline>
</glyph>
<glyph name="tbar" format="1">
  <advance width="983"/>
  <unicode hex="0167"/>
  <note>
tbar
</note>
  <outline>
    <contour>
      <point x="561.0" y="-20.0" type="qcurve" smooth="yes"/>
      <point x="363.75" y="-20.0"/>
      <point x="190.0" y="172.75"/>
      <point x="190" y="373" type="qcurve" smooth="yes"/>
      <point x="190" y="444" type="line"/>
      <point x="74" y="444" type="line"/>
      <point x="74" y="688" type="line"/>
      <point x="190" y="688" type="line"/>
      <point x="190" y="840" type="line"/>
      <point x="53" y="840" type="line"/>
      <point x="53" y="999" type="line"/>
      <point x="227" y="1122" type="line"/>
      <point x="328" y="1360" type="line"/>
      <point x="584" y="1360" type="line"/>
      <point x="584" y="1133" type="line"/>
      <point x="893" y="1133" type="line"/>
      <point x="893" y="840" type="line"/>
      <point x="584" y="840" type="line"/>
      <point x="584" y="688" type="line"/>
      <point x="848" y="688" type="line"/>
      <point x="848" y="444" type="line"/>
      <point x="584" y="444" type="line"/>
      <point x="584.0" y="399.0" type="line" smooth="yes"/>
      <point x="584.0" y="336.0"/>
      <point x="639.0" y="289.0"/>
      <point x="690.0" y="289.0" type="qcurve" smooth="yes"/>
      <point x="747.75" y="289.0"/>
      <point x="842.25" y="313.0"/>
      <point x="909" y="334" type="qcurve"/>
      <point x="909.0" y="43.0" type="line"/>
      <point x="763.5" y="-20.0"/>
    </contour>
  </outline>
</glyph>
<glyph name="florin" format="1">
  <advance width="1137"/>
  <unicode hex="0192"/>
  <note>
florin
</note>
  <outline>
    <contour>
      <point x="354.0" y="-492.0" type="qcurve" smooth="yes"/>
      <point x="312.0" y="-492.0"/>
      <point x="183.25" y="-477.25"/>
      <point x="139" y="-463" type="qcurve"/>
      <point x="139.0" y="-162.0" type="line"/>
      <point x="200.5" y="-180.0"/>
      <point x="250.0" y="-180.0" type="qcurve" smooth="yes"/>
      <point x="297.25" y="-180.0"/>
      <point x="344.0" y="-108.25"/>
      <point x="344" y="-37" type="qcurve" smooth="yes"/>
      <point x="344" y="840" type="line"/>
      <point x="195" y="840" type="line"/>
      <point x="195" y="1032" type="line"/>
      <point x="352" y="1128" type="line"/>
      <point x="352.0" y="1165.0" type="line" smooth="yes"/>
      <point x="352.0" y="1378.0"/>
      <point x="526.25" y="1567.0"/>
      <point x="725.0" y="1567.0" type="qcurve" smooth="yes"/>
      <point x="890.5" y="1567.0"/>
      <point x="1051" y="1513" type="qcurve"/>
      <point x="975.0" y="1255.0" type="line"/>
      <point x="935.25" y="1267.75"/>
      <point x="865.25" y="1280.0"/>
      <point x="836.0" y="1280.0" type="qcurve" smooth="yes"/>
      <point x="812.0" y="1280.0"/>
      <point x="776.0" y="1267.25"/>
      <point x="764.0" y="1253.0" type="qcurve" smooth="yes"/>
      <point x="749.0" y="1236.5"/>
      <point x="735.0" y="1179.0"/>
      <point x="735" y="1137" type="qcurve" smooth="yes"/>
      <point x="735" y="1133" type="line"/>
      <point x="991" y="1133" type="line"/>
      <point x="991" y="840" type="line"/>
      <point x="735" y="840" type="line"/>
      <point x="735.0" y="-84.0" type="line" smooth="yes"/>
      <point x="735.0" y="-281.25"/>
      <point x="536.25" y="-492.0"/>
    </contour>
  </outline>
</glyph>
<glyph name="Ohorn" format="1">
  <advance width="1731"/>
  <unicode hex="01A0"/>
  <note>
Ohorn
</note>
  <outline>
    <contour>
      <point x="815.0" y="-20.0" type="qcurve" smooth="yes"/>
      <point x="470.75" y="-20.0"/>
      <point x="104.0" y="368.25"/>
      <point x="104.0" y="735.0" type="qcurve" smooth="yes"/>
      <point x="104.0" y="1100.25"/>
      <point x="472.25" y="1485.0"/>
      <point x="821.0" y="1485.0" type="qcurve" smooth="yes"/>
      <point x="1182.5" y="1485.0"/>
      <point x="1358.0" y="1290.0" type="qcurve"/>
      <point x="1397.0" y="1364.25"/>
      <point x="1423.0" y="1486.25"/>
      <point x="1423" y="1556" type="qcurve"/>
      <point x="1798" y="1556" type="line"/>
      <point x="1812.0" y="1534.0" type="line"/>
      <point x="1770.75" y="1336.0"/>
      <point x="1621.0" y="1124.0"/>
      <point x="1489.0" y="1067.0" type="qcurve"/>
      <point x="1528.0" y="921.5"/>
      <point x="1528.0" y="733.0" type="qcurve" smooth="yes"/>
      <point x="1528.0" y="364.75"/>
      <point x="1165.25" y="-20.0"/>
    </contour>
    <contour>
      <point x="815.0" y="309.0" type="qcurve" smooth="yes"/>
      <point x="1112.0" y="309.0"/>
      <point x="1112.0" y="733.0" type="qcurve" smooth="yes"/>
      <point x="1112.0" y="1161.0"/>
      <point x="817.0" y="1161.0" type="qcurve" smooth="yes"/>
      <point x="520.0" y="1161.0"/>
      <point x="520.0" y="733.0" type="qcurve" smooth="yes"/>
      <point x="520.0" y="309.0"/>
    </contour>
    <contour>
      <point x="866" y="0" type="move" name="bottom"/>
    </contour>
    <contour>
      <point x="866" y="1462" type="move" name="top"/>
    </contour>
  </outline>
</glyph>
<glyph name="ohorn" format="1">
  <advance width="1479"/>
  <unicode hex="01A1"/>
  <note>
ohorn
</note>
  <outline>
    <contour>
      <point x="649.0" y="-20.0" type="qcurve" smooth="yes"/>
      <point x="477.00000000000006" y="-20.0"/>
      <point x="224.16666666666669" y="124.08333333333334"/>
      <point x="86.0" y="388.5"/>
      <point x="86.0" y="569.0" type="qcurve" smooth="yes"/>
      <point x="86.0" y="753.5"/>
      <point x="220.49999999999997" y="1014.75"/>
      <point x="475.0" y="1153.0"/>
      <point x="655.0" y="1153.0" type="qcurve" smooth="yes"/>
      <point x="771.25" y="1153.0"/>
      <point x="982.0" y="1086.25"/>
      <point x="1057.0" y="1018.0" type="qcurve"/>
      <point x="1105.75" y="1041.25"/>
      <point x="1161.0" y="1189.0"/>
      <point x="1161" y="1300" type="qcurve"/>
      <point x="1538" y="1300" type="line"/>
      <point x="1552.0" y="1278.0" type="line"/>
      <point x="1517.5" y="1086.0"/>
      <point x="1357.0" y="864.0"/>
      <point x="1180.0" y="819.0" type="qcurve"/>
      <point x="1217.0" y="705.04"/>
      <point x="1217.0" y="569.0" type="qcurve" smooth="yes"/>
      <point x="1217.0" y="383.5"/>
      <point x="1082.5833333333333" y="119.91666666666667"/>
      <point x="828.5" y="-20.0"/>
    </contour>
    <contour>
      <point x="653.0" y="291.0" type="qcurve" smooth="yes"/>
      <point x="743.2352941176471" y="291.0"/>
      <point x="784.0" y="368.0" type="qcurve" smooth="yes"/>
      <point x="802.0" y="402.5"/>
      <point x="819.0" y="503.0"/>
      <point x="819.0" y="569.0" type="qcurve" smooth="yes"/>
      <point x="819.0" y="734.948717948718"/>
      <point x="764.0" y="797.0" type="qcurve" smooth="yes"/>
      <point x="725.0" y="842.0"/>
      <point x="651.0" y="842.0" type="qcurve" smooth="yes"/>
      <point x="580.5769230769231" y="842.0"/>
      <point x="545.0" y="805.0" type="qcurve" smooth="yes"/>
      <point x="514.25" y="773.5"/>
      <point x="485.0" y="656.0"/>
      <point x="485.0" y="569.0" type="qcurve" smooth="yes"/>
      <point x="485.0" y="500.0"/>
      <point x="503.5" y="395.5"/>
      <point x="523.0" y="361.0" type="qcurve" smooth="yes"/>
      <point x="543.25" y="325.75"/>
      <point x="607.25" y="291.0"/>
    </contour>
    <contour>
      <point x="740" y="0" type="move" name="bottom"/>
    </contour>
    <contour>
      <point x="740" y="1133" type="move" name="top"/>
    </contour>
  </outline>
</glyph>
<glyph name="Uhorn" format="1">
  <advance width="1843"/>
  <unicode hex="01AF"/>
  <note>
Uhorn
</note>
  <outline>
    <contour>
      <point x="760.0" y="-20.0" type="qcurve" smooth="yes"/>
      <point x="469.75" y="-20.0"/>
      <point x="150.0" y="268.75"/>
      <point x="150" y="520" type="qcurve" smooth="yes"/>
      <point x="150" y="1462" type="line"/>
      <point x="547" y="1462" type="line"/>
      <point x="547.0" y="565.0" type="line" smooth="yes"/>
      <point x="547.0" y="426.25"/>
      <point x="646.75" y="309.0"/>
      <point x="772.0" y="309.0" type="qcurve" smooth="yes"/>
      <point x="895.75" y="309.0"/>
      <point x="1006.0" y="429.75"/>
      <point x="1006" y="567" type="qcurve" smooth="yes"/>
      <point x="1006" y="1462" type="line"/>
      <point x="1401" y="1462" type="line"/>
      <point x="1401.0" y="1260.0" type="line"/>
      <point x="1466.25" y="1293.0"/>
      <point x="1534.0" y="1450.25"/>
      <point x="1534" y="1556" type="qcurve"/>
      <point x="1911" y="1556" type="line"/>
      <point x="1925.0" y="1534.0" type="line"/>
      <point x="1886.75" y="1356.25"/>
      <point x="1766.0" y="1172.0"/>
      <point x="1664.0" y="1115.0" type="qcurve" smooth="yes"/>
      <point x="1612.25" y="1085.75"/>
      <point x="1481.25" y="1046.5"/>
      <point x="1401" y="1036" type="qcurve"/>
      <point x="1401.0" y="516.0" type="line" smooth="yes"/>
      <point x="1401.0" y="343.0"/>
      <point x="1233.8333333333333" y="103.83333333333334"/>
      <point x="944.0" y="-20.0"/>
    </contour>
    <contour>
      <point x="758" y="0" type="move" name="bottom"/>
    </contour>
    <contour>
      <point x="772" y="1462" type="move" name="top"/>
    </contour>
  </outline>
</glyph>
<glyph name="jdotless" format="1">
  <advance width="664"/>
  <unicode hex="0237"/>
  <note>
uni0237
</note>
  <outline>
    <contour>
      <point x="106.0" y="-492.0" type="qcurve" smooth="yes"/>
      <point x="58.0" y="-492.0"/>
      <point x="-67.25" y="-476.75"/>
      <point x="-104" y="-467" type="qcurve"/>
      <point x="-104.0" y="-162.0" type="line"/>
      <point x="-39.5" y="-180.0"/>
      <point x="16.0" y="-180.0" type="qcurve" smooth="yes"/>
      <point x="65.0" y="-180.0"/>
      <point x="94.0" y="-151.0" type="qcurve" smooth="yes"/>
      <point x="135.0" y="-108.48148148148148"/>
      <point x="135" y="-10" type="qcurve" smooth="yes"/>
      <point x="135" y="1133" type="line"/>
      <point x="526" y="1133" type="line"/>
      <point x="526.0" y="-92.0" type="line" smooth="yes"/>
      <point x="526.0" y="-278.75"/>
      <point x="307.0" y="-492.0"/>
    </contour>
    <contour>
      <point x="332" y="0" type="move" name="bottom"/>
    </contour>
    <contour>
      <point x="332" y="1133" type="move" name="top"/>
    </contour>
  </outline>
</glyph>
<glyph name="apostrophemod" format="1">
  <advance width="512"/>
  <unicode hex="02BC"/>
  <note>
afii57929
</note>
  <outline>
    <contour>
      <point x="29" y="877" type="line"/>
      <point x="51.5" y="982.5"/>
      <point x="88.41666666666666" y="1182.6666666666667"/>
      <point x="117.0" y="1371.5"/>
      <point x="127" y="1460" type="qcurve"/>
      <point x="469" y="1460" type="line"/>
      <point x="484.0" y="1438.0" type="line"/>
      <point x="438.25" y="1255.0"/>
      <point x="349.75" y="974.5"/>
      <point x="307" y="877" type="qcurve"/>
    </contour>
  </outline>
</glyph>
<glyph name="firsttonechinese" format="1">
  <advance width="1214"/>
  <unicode hex="02C9"/>
  <note>
uni02C9
</note>
  <outline>
    <contour>
      <point x="244" y="1241" type="line"/>
      <point x="244" y="1477" type="line"/>
      <point x="971" y="1477" type="line"/>
      <point x="971" y="1241" type="line"/>
    </contour>
  </outline>
</glyph>
<glyph name="hungarumlaut" format="1">
  <advance width="1198"/>
  <unicode hex="02DD"/>
  <note>
hungarumlaut
</note>
  <outline>
    <component base="hungarumlautcomb"/>
    <contour>
      <point x="491.724" y="1127" type="move" name="_top"/>
    </contour>
  </outline>
</glyph>
<glyph name="gravecomb" format="1">
  <unicode hex="0300"/>
  <note>
gravecomb
</note>
  <outline>
    <contour>
      <point x="-712" y="1241" type="line"/>
      <point x="-758.0" y="1270.5"/>
      <point x="-914.25" y="1377.8333333333333"/>
      <point x="-1081.5" y="1498.5"/>
      <point x="-1144" y="1548" type="qcurve"/>
      <point x="-1144" y="1569" type="line"/>
      <point x="-714.0" y="1569.0" type="line"/>
      <point x="-687.0" y="1533.0"/>
      <point x="-568.25" y="1396.75"/>
      <point x="-452" y="1270" type="qcurve"/>
      <point x="-452" y="1241" type="line"/>
    </contour>
    <contour>
      <point x="-668" y="1123" type="move" name="_top"/>
    </contour>
    <contour>
      <point x="-798" y="1569" type="move" name="top"/>
    </contour>
  </outline>
</glyph>
<glyph name="acutecomb" format="1">
  <unicode hex="0301"/>
  <note>
acutecomb
</note>
  <outline>
    <contour>
      <point x="-939" y="1241" type="line"/>
      <point x="-939.0" y="1270.0" type="line"/>
      <point x="-851.25" y="1363.0"/>
      <point x="-717.75" y="1509.75"/>
      <point x="-675" y="1569" type="qcurve"/>
      <point x="-247" y="1569" type="line"/>
      <point x="-247.0" y="1548.0" type="line"/>
      <point x="-287.125" y="1516.125"/>
      <point x="-403.828125" y="1430.0260416666667"/>
      <point x="-530.421875" y="1340.2239583333333"/>
      <point x="-643.0" y="1263.5"/>
      <point x="-679" y="1241" type="qcurve"/>
    </contour>
    <contour>
      <point x="-723" y="1133" type="move" name="_top"/>
    </contour>
    <contour>
      <point x="-593" y="1569" type="move" name="top"/>
    </contour>
  </outline>
</glyph>
<glyph name="circumflexcomb" format="1">
  <advance width="1237"/>
  <unicode hex="0302"/>
  <note>
circumflex
</note>
  <outline>
    <contour>
      <point x="164" y="1241" type="line"/>
      <point x="164.0" y="1270.0" type="line"/>
      <point x="210.0" y="1313.5"/>
      <point x="310.0833333333333" y="1423.6666666666665"/>
      <point x="396.5" y="1530.5"/>
      <point x="422" y="1569" type="qcurve"/>
      <point x="815.0" y="1569.0" type="line"/>
      <point x="911.75" y="1429.25"/>
      <point x="1071" y="1270" type="qcurve"/>
      <point x="1071" y="1241" type="line"/>
      <point x="817.0" y="1241.0" type="line"/>
      <point x="776.5" y="1265.0"/>
      <point x="727.0" y="1301.0" type="qcurve" smooth="yes"/>
      <point x="676.0" y="1338.5"/>
      <point x="616.0" y="1391.0" type="qcurve"/>
      <point x="559.0" y="1343.0"/>
      <point x="514.0" y="1307.0" type="qcurve" smooth="yes"/>
      <point x="462.3225806451613" y="1266.8064516129032"/>
      <point x="422" y="1241" type="qcurve"/>
    </contour>
    <contour>
      <point x="618" y="1133" type="move" name="_top"/>
    </contour>
    <contour>
      <point x="618" y="1569" type="move" name="top"/>
    </contour>
  </outline>
</glyph>
<glyph name="tildecomb" format="1">
  <unicode hex="0303"/>
  <note>
tildecomb
</note>
  <outline>
    <contour>
      <point x="-1179" y="1237" type="line"/>
      <point x="-1167.75" y="1411.75"/>
      <point x="-1046.25" y="1579.0"/>
      <point x="-927.0" y="1579.0" type="qcurve" smooth="yes"/>
      <point x="-888.75" y="1579.0"/>
      <point x="-803.25" y="1549.0"/>
      <point x="-759.0" y="1531.0" type="qcurve" smooth="yes"/>
      <point x="-714.75" y="1513.0"/>
      <point x="-629.25" y="1483.0"/>
      <point x="-591.0" y="1483.0" type="qcurve" smooth="yes"/>
      <point x="-537.375" y="1483.0"/>
      <point x="-519" y="1581" type="qcurve"/>
      <point x="-337.0" y="1581.0" type="line"/>
      <point x="-348.25" y="1413.75"/>
      <point x="-474.25" y="1239.0"/>
      <point x="-583.0" y="1239.0" type="qcurve" smooth="yes"/>
      <point x="-628.0" y="1239.0"/>
      <point x="-718.75" y="1269.0"/>
      <point x="-763.0" y="1287.0" type="qcurve" smooth="yes"/>
      <point x="-807.25" y="1305.0"/>
      <point x="-890.25" y="1335.0"/>
      <point x="-927.0" y="1335.0" type="qcurve" smooth="yes"/>
      <point x="-980.9076923076923" y="1335.0"/>
      <point x="-999" y="1237" type="qcurve"/>
    </contour>
    <contour>
      <point x="-758" y="1133" type="move" name="_top"/>
    </contour>
    <contour>
      <point x="-758" y="1581" type="move" name="top"/>
    </contour>
  </outline>
</glyph>
<glyph name="macroncomb" format="1">
  <advance width="600"/>
  <unicode hex="0304"/>
  <outline>
    <contour>
      <point x="-27" y="1241" type="line"/>
      <point x="-27" y="1477" type="line"/>
      <point x="700" y="1477" type="line"/>
      <point x="700" y="1241" type="line"/>
    </contour>
    <contour>
      <point x="337" y="1133" type="move" name="_top"/>
    </contour>
    <contour>
      <point x="337" y="1477" type="move" name="top"/>
    </contour>
  </outline>
</glyph>
<glyph name="brevecomb" format="1">
  <advance width="1225"/>
  <unicode hex="0306"/>
  <note>
breve
</note>
  <outline>
    <contour>
      <point x="609.0" y="1241.0" type="qcurve" smooth="yes"/>
      <point x="422.25" y="1241.0"/>
      <point x="217.0" y="1431.25"/>
      <point x="208" y="1612" type="qcurve"/>
      <point x="419.0" y="1612.0" type="line"/>
      <point x="439.25" y="1534.0"/>
      <point x="513.75" y="1481.0"/>
      <point x="609.0" y="1481.0" type="qcurve" smooth="yes"/>
      <point x="690.0" y="1481.0"/>
      <point x="779.25" y="1543.75"/>
      <point x="798" y="1612" type="qcurve"/>
      <point x="1017.0" y="1612.0" type="line"/>
      <point x="1007.25" y="1441.0"/>
      <point x="791.25" y="1241.0"/>
    </contour>
    <contour>
      <point x="613" y="1133" type="move" name="_top"/>
    </contour>
    <contour>
      <point x="613" y="1612" type="move" name="top"/>
    </contour>
  </outline>
</glyph>
<glyph name="dotaccentcomb" format="1">
  <advance width="666"/>
  <unicode hex="0307"/>
  <note>
dotaccent
</note>
  <outline>
    <contour>
      <point x="334.0" y="1243.0" type="qcurve" smooth="yes"/>
      <point x="127.0" y="1243.0"/>
      <point x="127.0" y="1415.0" type="qcurve" smooth="yes"/>
      <point x="127.0" y="1502.75"/>
      <point x="225.25" y="1589.0"/>
      <point x="334.0" y="1589.0" type="qcurve" smooth="yes"/>
      <point x="442.75" y="1589.0"/>
      <point x="543.0" y="1501.25"/>
      <point x="543.0" y="1415.0" type="qcurve" smooth="yes"/>
      <point x="543.0" y="1243.0"/>
    </contour>
    <contour>
      <point x="335" y="1133" type="move" name="_top"/>
    </contour>
    <contour>
      <point x="335" y="1589" type="move" name="top"/>
    </contour>
  </outline>
</glyph>
<glyph name="dieresiscomb" format="1">
  <advance width="1233"/>
  <unicode hex="0308"/>
  <note>
dieresis
</note>
  <outline>
    <contour>
      <point x="856.0" y="1257.0" type="qcurve" smooth="yes"/>
      <point x="775.0" y="1257.0"/>
      <point x="684.0" y="1340.25"/>
      <point x="684.0" y="1413.0" type="qcurve" smooth="yes"/>
      <point x="684.0" y="1488.0"/>
      <point x="775.75" y="1571.0"/>
      <point x="856.0" y="1571.0" type="qcurve" smooth="yes"/>
      <point x="936.25" y="1571.0"/>
      <point x="1029.0" y="1485.0"/>
      <point x="1029.0" y="1413.0" type="qcurve" smooth="yes"/>
      <point x="1029.0" y="1341.75"/>
      <point x="936.25" y="1257.0"/>
    </contour>
    <contour>
      <point x="375.0" y="1257.0" type="qcurve" smooth="yes"/>
      <point x="297.0" y="1257.0"/>
      <point x="205.0" y="1338.75"/>
      <point x="205.0" y="1413.0" type="qcurve" smooth="yes"/>
      <point x="205.0" y="1488.0"/>
      <point x="297.0" y="1571.0"/>
      <point x="375.0" y="1571.0" type="qcurve" smooth="yes"/>
      <point x="453.75" y="1571.0"/>
      <point x="547.0" y="1485.75"/>
      <point x="547.0" y="1413.0" type="qcurve" smooth="yes"/>
      <point x="547.0" y="1341.75"/>
      <point x="453.75" y="1257.0"/>
    </contour>
    <contour>
      <point x="617" y="1133" type="move" name="_top"/>
    </contour>
    <contour>
      <point x="617" y="1571" type="move" name="top"/>
    </contour>
  </outline>
</glyph>
<glyph name="hookabovecomb" format="1">
  <unicode hex="0309"/>
  <note>
hookabovecomb
</note>
  <outline>
    <contour>
      <point x="-793" y="1225" type="line"/>
      <point x="-821.0" y="1354.0" type="line"/>
      <point x="-755.0" y="1362.25"/>
      <point x="-709.0" y="1405.25"/>
      <point x="-709.0" y="1442.0" type="qcurve" smooth="yes"/>
      <point x="-709.0" y="1471.25"/>
      <point x="-749.25" y="1505.0"/>
      <point x="-780.0" y="1505.0" type="qcurve" smooth="yes"/>
      <point x="-810.0" y="1505.0"/>
      <point x="-858.0" y="1497.25"/>
      <point x="-918" y="1477" type="qcurve"/>
      <point x="-918.0" y="1681.0" type="line"/>
      <point x="-826.4761904761905" y="1712.0"/>
      <point x="-698.0" y="1712.0" type="qcurve" smooth="yes"/>
      <point x="-554.75" y="1712.0"/>
      <point x="-406.0" y="1591.75"/>
      <point x="-406.0" y="1483.0" type="qcurve" smooth="yes"/>
      <point x="-406.0" y="1405.0"/>
      <point x="-488.75" y="1295.25"/>
      <point x="-575" y="1272" type="qcurve"/>
      <point x="-586" y="1225" type="line"/>
    </contour>
    <contour>
      <point x="-662" y="1133" type="move" name="_top"/>
    </contour>
    <contour>
      <point x="-662" y="1712" type="move" name="top"/>
    </contour>
  </outline>
</glyph>
<glyph name="ringcomb" format="1">
  <advance width="1120"/>
  <unicode hex="030A"/>
  <note>
ring
</note>
  <outline>
    <contour>
      <point x="557.0" y="1237.0" type="qcurve" smooth="yes"/>
      <point x="436.25" y="1237.0"/>
      <point x="293.0" y="1374.25"/>
      <point x="293.0" y="1489.0" type="qcurve" smooth="yes"/>
      <point x="293.0" y="1605.25"/>
      <point x="436.25" y="1743.0"/>
      <point x="557.0" y="1743.0" type="qcurve" smooth="yes"/>
      <point x="674.75" y="1743.0"/>
      <point x="829.0" y="1602.75"/>
      <point x="829.0" y="1491.0" type="qcurve" smooth="yes"/>
      <point x="829.0" y="1377.75"/>
      <point x="677.0" y="1237.0"/>
    </contour>
    <contour>
      <point x="557.0" y="1405.0" type="qcurve" smooth="yes"/>
      <point x="592.25" y="1405.0"/>
      <point x="641.0" y="1452.25"/>
      <point x="641.0" y="1489.0" type="qcurve" smooth="yes"/>
      <point x="641.0" y="1527.25"/>
      <point x="592.25" y="1573.0"/>
      <point x="557.0" y="1573.0" type="qcurve" smooth="yes"/>
      <point x="521.75" y="1573.0"/>
      <point x="473.0" y="1527.25"/>
      <point x="473.0" y="1489.0" type="qcurve" smooth="yes"/>
      <point x="473.0" y="1452.25"/>
      <point x="515.0" y="1405.0"/>
    </contour>
    <contour>
      <point x="561" y="1133" type="move" name="_top"/>
    </contour>
    <contour>
      <point x="561" y="1743" type="move" name="top"/>
    </contour>
  </outline>
</glyph>
<glyph name="hungarumlautcomb" format="1">
  <advance width="1198"/>
  <unicode hex="030B"/>
  <note>
hungarumlaut
</note>
  <outline>
    <contour>
      <point x="541" y="1241" type="line"/>
      <point x="541.0" y="1270.0" type="line"/>
      <point x="600.0" y="1350.0"/>
      <point x="681.1666666666667" y="1463.6666666666665"/>
      <point x="733.0" y="1542.0"/>
      <point x="748" y="1569" type="qcurve"/>
      <point x="1120" y="1569" type="line"/>
      <point x="1120.0" y="1548.0" type="line"/>
      <point x="1106.875" y="1526.625"/>
      <point x="1032.4583333333333" y="1456.6041666666667"/>
      <point x="926.5416666666666" y="1371.3958333333333"/>
      <point x="804.125" y="1281.875"/>
      <point x="743" y="1241" type="qcurve"/>
    </contour>
    <contour>
      <point x="78" y="1241" type="line"/>
      <point x="78.0" y="1270.0" type="line"/>
      <point x="136.5" y="1350.0"/>
      <point x="217.75" y="1464.083333333333"/>
      <point x="270.0" y="1542.5"/>
      <point x="285" y="1569" type="qcurve"/>
      <point x="655" y="1569" type="line"/>
      <point x="655.0" y="1548.0" type="line"/>
      <point x="643.0" y="1528.5"/>
      <point x="577.2552083333334" y="1465.1354166666667"/>
      <point x="477.9947916666667" y="1383.8645833333333"/>
      <point x="352.625" y="1290.5"/>
      <point x="281" y="1241" type="qcurve"/>
    </contour>
    <contour>
      <point x="599" y="1133" type="move" name="_top"/>
    </contour>
    <contour>
      <point x="599" y="1569" type="move" name="top"/>
    </contour>
  </outline>
</glyph>
<glyph name="caroncomb" format="1">
  <advance width="1237"/>
  <unicode hex="030C"/>
  <note>
caron
</note>
  <outline>
    <contour>
      <point x="423" y="1241" type="line"/>
      <point x="410.25" y="1261.25"/>
      <point x="375.25" y="1307.25"/>
      <point x="355.0" y="1332.0" type="qcurve" smooth="yes"/>
      <point x="314.5" y="1382.25"/>
      <point x="215.25" y="1490.5"/>
      <point x="165" y="1540" type="qcurve"/>
      <point x="165" y="1569" type="line"/>
      <point x="423.0" y="1569.0" type="line"/>
      <point x="493.9010477299185" y="1524.3015133876602"/>
      <point x="617.0" y="1419.0" type="qcurve"/>
      <point x="734.0" y="1521.0"/>
      <point x="818" y="1569" type="qcurve"/>
      <point x="1072" y="1569" type="line"/>
      <point x="1072.0" y="1540.0" type="line"/>
      <point x="1025.5" y="1493.5"/>
      <point x="924.25" y="1380.0"/>
      <point x="880.0" y="1326.0" type="qcurve" smooth="yes"/>
      <point x="840.8928571428571" y="1279.0714285714287"/>
      <point x="816" y="1241" type="qcurve"/>
    </contour>
    <contour>
      <point x="619" y="1133" type="move" name="_top"/>
    </contour>
    <contour>
      <point x="619" y="1569" type="move" name="top"/>
    </contour>
  </outline>
</glyph>
<glyph name="dblgravecomb" format="1">
  <unicode hex="030F"/>
  <note>
uni030F
</note>
  <outline>
    <contour>
      <point x="-571" y="1241" type="line"/>
      <point x="-626.5" y="1284.5"/>
      <point x="-758.0" y="1404.0833333333335"/>
      <point x="-865.5" y="1516.0"/>
      <point x="-885" y="1548" type="qcurve"/>
      <point x="-885" y="1569" type="line"/>
      <point x="-543.0" y="1569.0" type="line"/>
      <point x="-509.25" y="1494.0"/>
      <point x="-410.25" y="1327.0"/>
      <point x="-369" y="1270" type="qcurve"/>
      <point x="-369" y="1241" type="line"/>
    </contour>
    <contour>
      <point x="-995" y="1241" type="line"/>
      <point x="-1050.5" y="1284.5"/>
      <point x="-1182.25" y="1405.75"/>
      <point x="-1289.0" y="1518.0"/>
      <point x="-1307" y="1548" type="qcurve"/>
      <point x="-1307" y="1569" type="line"/>
      <point x="-965.0" y="1569.0" type="line"/>
      <point x="-943.5" y="1522.5"/>
      <point x="-882.75" y="1410.3333333333335"/>
      <point x="-819.0" y="1305.5"/>
      <point x="-793" y="1270" type="qcurve"/>
      <point x="-793" y="1241" type="line"/>
    </contour>
    <contour>
      <point x="-838" y="1133" type="move" name="_top"/>
    </contour>
    <contour>
      <point x="-838" y="1569" type="move" name="top"/>
    </contour>
  </outline>
</glyph>
<glyph name="commaturnedabovecomb" format="1">
  <advance width="600"/>
  <unicode hex="0312"/>
  <outline>
    <contour>
      <point x="419" y="1241" type="line"/>
      <point x="419.0" y="1264.0" type="line"/>
      <point x="454.25" y="1340.5"/>
      <point x="531.25" y="1492.5"/>
      <point x="589" y="1569" type="qcurve"/>
      <point x="821" y="1569" type="line"/>
      <point x="821.0" y="1540.0" type="line"/>
      <point x="786.3230769230769" y="1354.553846153846"/>
      <point x="776" y="1241" type="qcurve"/>
    </contour>
    <contour>
      <point x="620" y="1133" type="move" name="_top"/>
    </contour>
    <contour>
      <point x="620" y="1569" type="move" name="top"/>
    </contour>
  </outline>
</glyph>
<glyph name="dotbelowcomb" format="1">
  <unicode hex="0323"/>
  <note>
dotbelowcomb
</note>
  <outline>
    <contour>
      <point x="-2.0" y="-479.0" type="qcurve" smooth="yes"/>
      <point x="-208.0" y="-479.0"/>
      <point x="-208.0" y="-305.0" type="qcurve" smooth="yes"/>
      <point x="-208.0" y="-217.25"/>
      <point x="-110.0" y="-131.0"/>
      <point x="-2.0" y="-131.0" type="qcurve" smooth="yes"/>
      <point x="107.5" y="-131.0"/>
      <point x="208.0" y="-218.75"/>
      <point x="208.0" y="-305.0" type="qcurve" smooth="yes"/>
      <point x="208.0" y="-392.0"/>
      <point x="103.0" y="-479.0"/>
    </contour>
    <contour>
      <point x="-1" y="0" type="move" name="_bottom"/>
    </contour>
    <contour>
      <point x="-1" y="-479" type="move" name="bottom"/>
    </contour>
  </outline>
</glyph>
<glyph name="commaaccentcomb" format="1">
  <advance width="600"/>
  <unicode hex="0326"/>
  <outline>
    <contour>
      <point x="113" y="-453" type="line"/>
      <point x="113.0" y="-424.0" type="line"/>
      <point x="123.5" y="-386.5"/>
      <point x="144.0" y="-278.25"/>
      <point x="158.5" y="-167.0"/>
      <point x="160" y="-125" type="qcurve"/>
      <point x="515" y="-125" type="line"/>
      <point x="515.0" y="-147.0" type="line"/>
      <point x="444.5" y="-312.0"/>
      <point x="347" y="-453" type="qcurve"/>
    </contour>
    <contour>
      <point x="314" y="0" type="move" name="_bottom"/>
    </contour>
    <contour>
      <point x="314" y="-453" type="move" name="bottom"/>
    </contour>
  </outline>
</glyph>
<glyph name="cedillacomb" format="1">
  <advance width="383"/>
  <unicode hex="0327"/>
  <note>
cedilla
</note>
  <outline>
    <contour>
      <point x="123.0" y="-492.0" type="qcurve" smooth="yes"/>
      <point x="-12.15789473684211" y="-492.0"/>
      <point x="-90" y="-463" type="qcurve"/>
      <point x="-90.0" y="-258.0" type="line"/>
      <point x="-7.5" y="-285.0"/>
      <point x="57.0" y="-285.0" type="qcurve" smooth="yes"/>
      <point x="109.0" y="-285.0"/>
      <point x="109.0" y="-238.0" type="qcurve" smooth="yes"/>
      <point x="109.0" y="-205.0"/>
      <point x="27.0" y="-154.0"/>
      <point x="-39" y="-139" type="qcurve"/>
      <point x="33" y="0" type="line"/>
      <point x="236" y="0" type="line"/>
      <point x="227.0" y="-29.0" type="line"/>
      <point x="323.0" y="-68.0"/>
      <point x="397.0" y="-174.75"/>
      <point x="397.0" y="-252.0" type="qcurve" smooth="yes"/>
      <point x="397.0" y="-360.75"/>
      <point x="246.75" y="-492.0"/>
    </contour>
    <contour>
      <point x="154" y="0" type="move" name="_bottom"/>
    </contour>
    <contour>
      <point x="154" y="-492" type="move" name="bottom"/>
    </contour>
  </outline>
</glyph>
<glyph name="ogonekcomb" format="1">
  <advance width="434"/>
  <unicode hex="0328"/>
  <note>
ogonek
</note>
  <outline>
    <contour>
      <point x="270.0" y="-492.0" type="qcurve" smooth="yes"/>
      <point x="147.75" y="-492.0"/>
      <point x="-6.0" y="-362.75"/>
      <point x="-6.0" y="-260.0" type="qcurve" smooth="yes"/>
      <point x="-6.0" y="-191.0"/>
      <point x="74.25" y="-66.0"/>
      <point x="168" y="0" type="qcurve"/>
      <point x="381.0" y="0.0" type="line"/>
      <point x="327.0" y="-49.5"/>
      <point x="248.0" y="-148.0"/>
      <point x="248.0" y="-199.0" type="qcurve" smooth="yes"/>
      <point x="248.0" y="-266.0"/>
      <point x="326.0" y="-266.0" type="qcurve" smooth="yes"/>
      <point x="397.06666666666666" y="-266.0"/>
      <point x="444" y="-244" type="qcurve"/>
      <point x="444.0" y="-465.0" type="line"/>
      <point x="361.5" y="-492.0"/>
    </contour>
    <contour>
      <point x="451" y="10" type="move" name="_ogonek"/>
    </contour>
  </outline>
</glyph>
<glyph name="tonos" format="1">
  <advance width="1108"/>
  <unicode hex="0384"/>
  <note>
tonos
</note>
  <outline>
    <contour>
      <point x="345" y="1241" type="line"/>
      <point x="345.0" y="1274.0" type="line"/>
      <point x="358.5" y="1319.5"/>
      <point x="388.75" y="1453.9166666666667"/>
      <point x="414.0" y="1586.0"/>
      <point x="420" y="1628" type="qcurve"/>
      <point x="764" y="1628" type="line"/>
      <point x="764.0" y="1602.0" type="line"/>
      <point x="722.75" y="1512.0"/>
      <point x="626.25" y="1331.75"/>
      <point x="570" y="1241" type="qcurve"/>
    </contour>
    <contour>
      <point x="549" y="1112" type="move" name="_top"/>
    </contour>
    <contour>
      <point x="725" y="1556" type="move" name="_topleft"/>
    </contour>
  </outline>
</glyph>
<glyph name="dieresistonos" format="1">
  <advance width="1157"/>
  <unicode hex="0385"/>
  <note>
dieresistonos
</note>
  <outline>
    <contour>
      <point x="461" y="1389" type="line"/>
      <point x="461.0" y="1417.0" type="line"/>
      <point x="496.9788732394366" y="1626.8767605633802"/>
      <point x="500" y="1716" type="qcurve"/>
      <point x="807" y="1716" type="line"/>
      <point x="807.0" y="1696.0" type="line"/>
      <point x="758.0708628595248" y="1578.8666110879533"/>
      <point x="633" y="1389" type="qcurve"/>
    </contour>
    <contour>
      <point x="268.0" y="1257.0" type="qcurve" smooth="yes"/>
      <point x="115.0" y="1257.0"/>
      <point x="115.0" y="1413.0" type="qcurve" smooth="yes"/>
      <point x="115.0" y="1571.0"/>
      <point x="268.0" y="1571.0" type="qcurve" smooth="yes"/>
      <point x="337.0" y="1571.0"/>
      <point x="424.0" y="1494.75"/>
      <point x="424.0" y="1413.0" type="qcurve" smooth="yes"/>
      <point x="424.0" y="1332.75"/>
      <point x="337.0" y="1257.0"/>
    </contour>
    <contour>
      <point x="887.0" y="1257.0" type="qcurve" smooth="yes"/>
      <point x="729.0" y="1257.0"/>
      <point x="729.0" y="1413.0" type="qcurve" smooth="yes"/>
      <point x="729.0" y="1571.0"/>
      <point x="887.0" y="1571.0" type="qcurve" smooth="yes"/>
      <point x="958.25" y="1571.0"/>
      <point x="1042.0" y="1494.75"/>
      <point x="1042.0" y="1413.0" type="qcurve" smooth="yes"/>
      <point x="1042.0" y="1332.75"/>
      <point x="958.25" y="1257.0"/>
    </contour>
    <contour>
      <point x="579" y="1133" type="move" name="_top"/>
    </contour>
  </outline>
</glyph>
<glyph name="anoteleia" format="1">
  <advance width="592"/>
  <unicode hex="0387"/>
  <note>
anoteleia
</note>
  <outline>
    <contour>
      <point x="299.0" y="530.0" type="qcurve" smooth="yes"/>
      <point x="199.25" y="530.0"/>
      <point x="86.0" y="632.25"/>
      <point x="86.0" y="723.0" type="qcurve" smooth="yes"/>
      <point x="86.0" y="815.25"/>
      <point x="194.75" y="915.0"/>
      <point x="299.0" y="915.0" type="qcurve" smooth="yes"/>
      <point x="398.0" y="915.0"/>
      <point x="504.0" y="815.25"/>
      <point x="504.0" y="723.0" type="qcurve" smooth="yes"/>
      <point x="504.0" y="633.0"/>
      <point x="395.0" y="530.0"/>
    </contour>
  </outline>
</glyph>
<glyph name="Alpha" format="1">
  <advance width="1487"/>
  <unicode hex="0391"/>
  <note>
    Alpha
  </note>
  <outline>
    <component base="A"/>
    <contour>
      <point x="320" y="1462" type="move" name="topleft"/>
    </contour>
  </outline>
</glyph>
<glyph name="Eta" format="1">
  <advance width="1569"/>
  <unicode hex="0397"/>
  <note>
Eta
</note>
  <outline>
    <component base="H"/>
    <contour>
      <point x="26.018" y="1462" type="move" name="topleft"/>
    </contour>
  </outline>
</glyph>
<glyph name="Theta" format="1">
  <advance width="1632"/>
  <unicode hex="0398"/>
  <note>
Theta
</note>
  <outline>
    <contour>
      <point x="815.0" y="-20.0" type="qcurve" smooth="yes"/>
      <point x="470.75" y="-20.0"/>
      <point x="104.0" y="366.0"/>
      <point x="104.0" y="735.0" type="qcurve" smooth="yes"/>
      <point x="104.0" y="1100.25"/>
      <point x="469.0" y="1485.0"/>
      <point x="817.0" y="1485.0" type="qcurve" smooth="yes"/>
      <point x="1165.75" y="1485.0"/>
      <point x="1526.0" y="1102.75"/>
      <point x="1526.0" y="733.0" type="qcurve" smooth="yes"/>
      <point x="1526.0" y="364.0"/>
      <point x="1163.75" y="-20.0"/>
    </contour>
    <contour>
      <point x="815.0" y="297.0" type="qcurve" smooth="yes"/>
      <point x="977.75" y="297.0"/>
      <point x="1135.0" y="508.75"/>
      <point x="1135.0" y="733.0" type="qcurve" smooth="yes"/>
      <point x="1135.0" y="957.25"/>
      <point x="979.0" y="1174.0"/>
      <point x="817.0" y="1174.0" type="qcurve" smooth="yes"/>
      <point x="496.0" y="1174.0"/>
      <point x="496.0" y="733.0" type="qcurve" smooth="yes"/>
      <point x="496.0" y="511.0"/>
      <point x="656.0" y="297.0"/>
    </contour>
    <contour>
      <point x="610" y="594" type="line"/>
      <point x="610" y="893" type="line"/>
      <point x="1022" y="893" type="line"/>
      <point x="1022" y="594" type="line"/>
    </contour>
  </outline>
</glyph>
<glyph name="Lambda" format="1">
  <advance width="1421"/>
  <unicode hex="039B"/>
  <note>
Lambda
</note>
  <outline>
    <contour>
      <point x="0" y="0" type="line"/>
      <point x="479" y="1462" type="line"/>
      <point x="944" y="1462" type="line"/>
      <point x="1421" y="0" type="line"/>
      <point x="977" y="0" type="line"/>
      <point x="778.0" y="741.0" type="line" smooth="yes"/>
      <point x="765.5" y="791.5"/>
      <point x="735.75" y="928.4166666666666"/>
      <point x="713.0" y="1053.0"/>
      <point x="711.0" y="1085.0" type="qcurve"/>
      <point x="707.5" y="1051.0"/>
      <point x="686.3333333333333" y="925.4166666666665"/>
      <point x="658.5" y="791.5"/>
      <point x="645" y="745" type="qcurve" smooth="yes"/>
      <point x="442" y="0" type="line"/>
    </contour>
  </outline>
</glyph>
<glyph name="Xi" format="1">
  <advance width="1176"/>
  <unicode hex="039E"/>
  <note>
Xi
</note>
  <outline>
    <contour>
      <point x="80" y="0" type="line"/>
      <point x="80" y="322" type="line"/>
      <point x="1096" y="322" type="line"/>
      <point x="1096" y="0" type="line"/>
    </contour>
    <contour>
      <point x="203" y="598" type="line"/>
      <point x="203" y="915" type="line"/>
      <point x="973" y="915" type="line"/>
      <point x="973" y="598" type="line"/>
    </contour>
    <contour>
      <point x="121" y="1145" type="line"/>
      <point x="121" y="1462" type="line"/>
      <point x="1055" y="1462" type="line"/>
      <point x="1055" y="1145" type="line"/>
    </contour>
  </outline>
</glyph>
<glyph name="Omicron" format="1">
  <advance width="1632"/>
  <unicode hex="039F"/>
  <note>
Omicron
</note>
  <outline>
    <component base="O"/>
    <contour>
      <point x="25.846" y="1462" type="move" name="topleft"/>
    </contour>
  </outline>
</glyph>
<glyph name="Sigma" format="1">
  <advance width="1233"/>
  <unicode hex="03A3"/>
  <note>
Sigma
</note>
  <outline>
    <contour>
      <point x="74" y="0" type="line"/>
      <point x="74" y="307" type="line"/>
      <point x="518" y="768" type="line"/>
      <point x="86" y="1165" type="line"/>
      <point x="86" y="1462" type="line"/>
      <point x="1098" y="1462" type="line"/>
      <point x="1098" y="1145" type="line"/>
      <point x="762.0" y="1145.0" type="line" smooth="yes"/>
      <point x="600.2857142857143" y="1145.0"/>
      <point x="526" y="1155" type="qcurve"/>
      <point x="948" y="770" type="line"/>
      <point x="504.0" y="309.0" type="line"/>
      <point x="575.25" y="315.75"/>
      <point x="701.25" y="322.0"/>
      <point x="756" y="322" type="qcurve" smooth="yes"/>
      <point x="1157" y="322" type="line"/>
      <point x="1157" y="0" type="line"/>
    </contour>
  </outline>
</glyph>
<glyph name="Psi" format="1">
  <advance width="1905"/>
  <unicode hex="03A8"/>
  <note>
Psi
</note>
  <outline>
    <contour>
      <point x="762" y="0" type="line"/>
      <point x="762" y="397" type="line"/>
      <point x="725.0" y="397.0" type="line" smooth="yes"/>
      <point x="398.75" y="397.0"/>
      <point x="113.0" y="660.25"/>
      <point x="113" y="958" type="qcurve" smooth="yes"/>
      <point x="113" y="1462" type="line"/>
      <point x="502" y="1462" type="line"/>
      <point x="502.0" y="963.0" type="line" smooth="yes"/>
      <point x="502.0" y="904.5"/>
      <point x="525.25" y="817.25"/>
      <point x="550.0" y="788.0" type="qcurve" smooth="yes"/>
      <point x="579.25" y="754.25"/>
      <point x="675.25" y="723.0"/>
      <point x="745" y="723" type="qcurve" smooth="yes"/>
      <point x="762" y="723" type="line"/>
      <point x="762" y="1462" type="line"/>
      <point x="1143" y="1462" type="line"/>
      <point x="1143" y="723" type="line"/>
      <point x="1163.0" y="723.0" type="line" smooth="yes"/>
      <point x="1217.0" y="723.0"/>
      <point x="1303.25" y="752.0"/>
      <point x="1334.0" y="779.0" type="qcurve" smooth="yes"/>
      <point x="1367.75" y="809.0"/>
      <point x="1403.0" y="899.5"/>
      <point x="1403" y="958" type="qcurve" smooth="yes"/>
      <point x="1403" y="1462" type="line"/>
      <point x="1792" y="1462" type="line"/>
      <point x="1792.0" y="985.0" type="line" smooth="yes"/>
      <point x="1792.0" y="679.75"/>
      <point x="1502.25" y="397.0"/>
      <point x="1182" y="397" type="qcurve" smooth="yes"/>
      <point x="1143" y="397" type="line"/>
      <point x="1143" y="0" type="line"/>
    </contour>
  </outline>
</glyph>
<glyph name="Omega" format="1">
  <advance width="1630"/>
  <unicode hex="03A9"/>
  <note>
uni03A9
</note>
  <outline>
    <contour>
      <point x="49" y="0" type="line"/>
      <point x="49" y="324" type="line"/>
      <point x="422.0" y="324.0" type="line"/>
      <point x="345.5" y="360.75"/>
      <point x="224.25" y="477.5"/>
      <point x="183.0" y="551.0" type="qcurve" smooth="yes"/>
      <point x="144.0" y="620.0"/>
      <point x="102.0" y="779.25"/>
      <point x="102.0" y="864.0" type="qcurve" smooth="yes"/>
      <point x="102.0" y="1030.5"/>
      <point x="237.0" y="1286.5"/>
      <point x="360.0" y="1366.0" type="qcurve" smooth="yes"/>
      <point x="449.25" y="1423.75"/>
      <point x="678.5" y="1485.0"/>
      <point x="815.0" y="1485.0" type="qcurve" smooth="yes"/>
      <point x="1027.25" y="1485.0"/>
      <point x="1352.25" y="1334.0"/>
      <point x="1440.0" y="1193.0" type="qcurve" smooth="yes"/>
      <point x="1484.25" y="1121.75"/>
      <point x="1528.0" y="958.25"/>
      <point x="1528.0" y="866.0" type="qcurve" smooth="yes"/>
      <point x="1528.0" y="768.5"/>
      <point x="1476.25" y="592.5"/>
      <point x="1426.0" y="519.0" type="qcurve" smooth="yes"/>
      <point x="1340.9383561643835" y="393.72739726027396"/>
      <point x="1200" y="324" type="qcurve"/>
      <point x="1581" y="324" type="line"/>
      <point x="1581" y="0" type="line"/>
      <point x="903" y="0" type="line"/>
      <point x="903.0" y="365.0" type="line"/>
      <point x="963.0" y="402.5"/>
      <point x="1046.65625" y="487.5052083333333"/>
      <point x="1098.34375" y="590.7447916666666"/>
      <point x="1122.0" y="719.625"/>
      <point x="1122.0" y="801.0" type="qcurve" smooth="yes"/>
      <point x="1122.0" y="911.5"/>
      <point x="1048.083333333333" y="1073.0833333333335"/>
      <point x="910.5" y="1161.0"/>
      <point x="815.0" y="1161.0" type="qcurve" smooth="yes"/>
      <point x="719.0" y="1161.0"/>
      <point x="581.4999999999999" y="1071.9166666666667"/>
      <point x="508.0" y="908.5"/>
      <point x="508.0" y="797.0" type="qcurve" smooth="yes"/>
      <point x="508.0" y="687.5"/>
      <point x="551.1666666666666" y="529.75"/>
      <point x="645.0" y="413.0"/>
      <point x="721" y="365" type="qcurve"/>
      <point x="721" y="0" type="line"/>
    </contour>
    <contour>
      <point x="815" y="0" type="move" name="bottom"/>
    </contour>
    <contour>
      <point x="20" y="1462" type="move" name="topleft"/>
    </contour>
  </outline>
</glyph>
<glyph name="alpha" format="1">
  <advance width="1376"/>
  <unicode hex="03B1"/>
  <note>
alpha
</note>
  <outline>
    <contour>
      <point x="516.0" y="-20.0" type="qcurve" smooth="yes"/>
      <point x="314.25" y="-20.0"/>
      <point x="86.0" y="288.75"/>
      <point x="86.0" y="561.0" type="qcurve" smooth="yes"/>
      <point x="86.0" y="840.75"/>
      <point x="327.0" y="1149.0"/>
      <point x="543.0" y="1149.0" type="qcurve" smooth="yes"/>
      <point x="659.25" y="1149.0"/>
      <point x="806.75" y="1067.25"/>
      <point x="854" y="981" type="qcurve"/>
      <point x="870.0" y="981.0" type="line"/>
      <point x="879.5" y="1016.0"/>
      <point x="901.6666666666666" y="1073.25"/>
      <point x="926.5" y="1117.5"/>
      <point x="940" y="1133" type="qcurve"/>
      <point x="1268.0" y="1133.0" type="line"/>
      <point x="1242.0" y="1063.0"/>
      <point x="1204.3333333333335" y="902.2499999999998"/>
      <point x="1184.0" y="738.5"/>
      <point x="1184" y="664" type="qcurve" smooth="yes"/>
      <point x="1184.0" y="408.0" type="line" smooth="yes"/>
      <point x="1184.0" y="347.25"/>
      <point x="1224.75" y="287.0"/>
      <point x="1266.0" y="287.0" type="qcurve" smooth="yes"/>
      <point x="1299.2857142857142" y="287.0"/>
      <point x="1325" y="297" type="qcurve"/>
      <point x="1325.0" y="6.0" type="line"/>
      <point x="1314.5" y="-0.5"/>
      <point x="1254.5" y="-12.416666666666668"/>
      <point x="1188.5" y="-20.0"/>
      <point x="1169.0" y="-20.0" type="qcurve" smooth="yes"/>
      <point x="1040.0" y="-20.0"/>
      <point x="900.75" y="57.75"/>
      <point x="858" y="147" type="qcurve"/>
      <point x="834.0" y="147.0" type="line"/>
      <point x="779.25" y="63.75"/>
      <point x="620.25" y="-20.0"/>
    </contour>
    <contour>
      <point x="649.0" y="283.0" type="qcurve" smooth="yes"/>
      <point x="704.5" y="283.0"/>
      <point x="777.5" y="326.0"/>
      <point x="797.0" y="377.0" type="qcurve" smooth="yes"/>
      <point x="809.75" y="408.5"/>
      <point x="822.25" y="496.0"/>
      <point x="823" y="553" type="qcurve" smooth="yes"/>
      <point x="823.0" y="563.0" type="line" smooth="yes"/>
      <point x="823.0" y="650.0"/>
      <point x="794.0" y="767.0"/>
      <point x="764.0" y="800.0" type="qcurve" smooth="yes"/>
      <point x="743.0" y="823.25"/>
      <point x="683.25" y="846.0"/>
      <point x="645.0" y="846.0" type="qcurve" smooth="yes"/>
      <point x="577.6571428571428" y="846.0"/>
      <point x="536.0" y="792.0" type="qcurve" smooth="yes"/>
      <point x="509.75" y="756.0"/>
      <point x="483.0" y="638.5"/>
      <point x="483.0" y="559.0" type="qcurve" smooth="yes"/>
      <point x="483.0" y="444.1578947368421"/>
      <point x="512.0" y="377.0" type="qcurve" smooth="yes"/>
      <point x="532.25" y="329.75"/>
      <point x="600.25" y="283.0"/>
    </contour>
    <contour>
      <point x="688" y="1133" type="move" name="top"/>
    </contour>
  </outline>
</glyph>
<glyph name="beta" format="1">
  <advance width="1403"/>
  <unicode hex="03B2"/>
  <note>
beta
</note>
  <outline>
    <contour>
      <point x="135" y="-492" type="line"/>
      <point x="135.0" y="1096.0" type="line" smooth="yes"/>
      <point x="135.0" y="1320.25"/>
      <point x="434.25" y="1567.0"/>
      <point x="702.0" y="1567.0" type="qcurve" smooth="yes"/>
      <point x="950.25" y="1567.0"/>
      <point x="1231.0" y="1357.0"/>
      <point x="1231.0" y="1171.0" type="qcurve" smooth="yes"/>
      <point x="1231.0" y="1023.25"/>
      <point x="1084.25" y="852.75"/>
      <point x="950" y="831" type="qcurve"/>
      <point x="950.0" y="823.0" type="line"/>
      <point x="1142.0" y="798.25"/>
      <point x="1321.0" y="609.0"/>
      <point x="1321.0" y="444.0" type="qcurve" smooth="yes"/>
      <point x="1321.0" y="302.0"/>
      <point x="1202.1666666666667" y="93.66666666666666"/>
      <point x="986.0" y="-20.0"/>
      <point x="840.0" y="-20.0" type="qcurve" smooth="yes"/>
      <point x="744.0" y="-20.0"/>
      <point x="577.75" y="12.75"/>
      <point x="526" y="39" type="qcurve"/>
      <point x="526" y="-492" type="line"/>
    </contour>
    <contour>
      <point x="717.0" y="287.0" type="qcurve" smooth="yes"/>
      <point x="813.0" y="287.0"/>
      <point x="924.0" y="384.25"/>
      <point x="924.0" y="481.0" type="qcurve" smooth="yes"/>
      <point x="924.0" y="559.75"/>
      <point x="815.75" y="653.0"/>
      <point x="719" y="653" type="qcurve" smooth="yes"/>
      <point x="662" y="653" type="line"/>
      <point x="662" y="944" type="line"/>
      <point x="700.0" y="944.0" type="line" smooth="yes"/>
      <point x="768.25" y="944.0"/>
      <point x="842.0" y="1036.0"/>
      <point x="842.0" y="1114.0" type="qcurve" smooth="yes"/>
      <point x="842.0" y="1192.0"/>
      <point x="758.25" y="1276.0"/>
      <point x="690.0" y="1276.0" type="qcurve" smooth="yes"/>
      <point x="605.25" y="1276.0"/>
      <point x="526.0" y="1169.0"/>
      <point x="526" y="1061" type="qcurve" smooth="yes"/>
      <point x="526.0" y="340.0" type="line"/>
      <point x="556.0" y="318.25"/>
      <point x="671.25" y="287.0"/>
    </contour>
  </outline>
</glyph>
<glyph name="gamma" format="1">
  <advance width="1235"/>
  <unicode hex="03B3"/>
  <note>
gamma
</note>
  <outline>
    <contour>
      <point x="313" y="-492" type="line"/>
      <point x="313.0" y="-438.0"/>
      <point x="336.49999999999994" y="-273.74999999999994"/>
      <point x="380.0" y="-82.5"/>
      <point x="410" y="12" type="qcurve"/>
      <point x="-2" y="1133" type="line"/>
      <point x="406" y="1133" type="line"/>
      <point x="522.0" y="766.0" type="line" smooth="yes"/>
      <point x="544.0" y="693.0"/>
      <point x="577.6666666666666" y="573.5833333333333"/>
      <point x="602.0" y="460.5"/>
      <point x="610" y="397" type="qcurve"/>
      <point x="618.0" y="397.0" type="line"/>
      <point x="628.5" y="469.0"/>
      <point x="673.75" y="644.5"/>
      <point x="709" y="748" type="qcurve" smooth="yes"/>
      <point x="834" y="1133" type="line"/>
      <point x="1241" y="1133" type="line"/>
      <point x="823.0" y="14.0" type="line" smooth="yes"/>
      <point x="794.5" y="-60.0"/>
      <point x="750.25" y="-239.41666666666663"/>
      <point x="725.0" y="-418.5"/>
      <point x="725" y="-492" type="qcurve"/>
    </contour>
  </outline>
</glyph>
<glyph name="delta" format="1">
  <advance width="1303"/>
  <unicode hex="03B4"/>
  <note>
delta
</note>
  <outline>
    <contour>
      <point x="645.0" y="-20.0" type="qcurve" smooth="yes"/>
      <point x="476.49999999999994" y="-20.0"/>
      <point x="225.08333333333334" y="92.33333333333334"/>
      <point x="86.0" y="298.0"/>
      <point x="86.0" y="438.0" type="qcurve" smooth="yes"/>
      <point x="86.0" y="552.0"/>
      <point x="166.0" y="730.5833333333333"/>
      <point x="326.0" y="859.5"/>
      <point x="446.0" y="899.0" type="qcurve"/>
      <point x="373.5" y="946.0"/>
      <point x="277.08333333333326" y="1055.4166666666667"/>
      <point x="229.0" y="1180.5"/>
      <point x="229.0" y="1251.0" type="qcurve" smooth="yes"/>
      <point x="229.0" y="1407.0"/>
      <point x="480.0" y="1575.0"/>
      <point x="717.0" y="1575.0" type="qcurve" smooth="yes"/>
      <point x="805.0" y="1575.0"/>
      <point x="975.0833333333333" y="1549.583333333333"/>
      <point x="1139.5" y="1498.5"/>
      <point x="1219" y="1460" type="qcurve"/>
      <point x="1073.0" y="1178.0" type="line"/>
      <point x="967.25" y="1231.25"/>
      <point x="792.0" y="1284.0"/>
      <point x="723.0" y="1284.0" type="qcurve" smooth="yes"/>
      <point x="662.25" y="1284.0"/>
      <point x="602.0" y="1251.25"/>
      <point x="602.0" y="1219.0" type="qcurve" smooth="yes"/>
      <point x="602.0" y="1186.5"/>
      <point x="641.0" y="1155.0" type="qcurve" smooth="yes"/>
      <point x="659.75" y="1139.25"/>
      <point x="771.75" y="1071.75"/>
      <point x="864.0" y="1020.0" type="qcurve" smooth="yes"/>
      <point x="936.0" y="980.5"/>
      <point x="1049.583333333333" y="892.6666666666666"/>
      <point x="1133.5" y="793.5"/>
      <point x="1161.0" y="737.0" type="qcurve" smooth="yes"/>
      <point x="1189.5" y="680.75"/>
      <point x="1217.0" y="552.5"/>
      <point x="1217.0" y="479.0" type="qcurve" smooth="yes"/>
      <point x="1217.0" y="239.0"/>
      <point x="915.75" y="-20.0"/>
    </contour>
    <contour>
      <point x="649.0" y="270.0" type="qcurve" smooth="yes"/>
      <point x="727.75" y="270.0"/>
      <point x="819.0" y="381.25"/>
      <point x="819.0" y="481.0" type="qcurve" smooth="yes"/>
      <point x="819.0" y="556.75"/>
      <point x="736.75" y="691.5"/>
      <point x="655.0" y="750.0" type="qcurve"/>
      <point x="619.0" y="738.0"/>
      <point x="558.5" y="687.0"/>
      <point x="536.0" y="651.0" type="qcurve" smooth="yes"/>
      <point x="511.25" y="612.0"/>
      <point x="483.0" y="515.0"/>
      <point x="483.0" y="461.0" type="qcurve" smooth="yes"/>
      <point x="483.0" y="403.0"/>
      <point x="523.9166666666666" y="317.16666666666663"/>
      <point x="598.5" y="270.0"/>
    </contour>
  </outline>
</glyph>
<glyph name="epsilon" format="1">
  <advance width="1135"/>
  <unicode hex="03B5"/>
  <note>
epsilon
</note>
  <outline>
    <contour>
      <point x="604.0" y="-20.0" type="qcurve" smooth="yes"/>
      <point x="327.25" y="-20.0"/>
      <point x="63.0" y="145.75"/>
      <point x="63.0" y="322.0" type="qcurve" smooth="yes"/>
      <point x="63.0" y="426.25"/>
      <point x="210.0" y="572.25"/>
      <point x="336" y="588" type="qcurve"/>
      <point x="336.0" y="598.0" type="line"/>
      <point x="242.25" y="622.75"/>
      <point x="131.0" y="755.25"/>
      <point x="131.0" y="846.0" type="qcurve" smooth="yes"/>
      <point x="131.0" y="993.75"/>
      <point x="389.25" y="1153.0"/>
      <point x="633.0" y="1153.0" type="qcurve" smooth="yes"/>
      <point x="744.0" y="1153.0"/>
      <point x="939.25" y="1117.25"/>
      <point x="1063" y="1067" type="qcurve"/>
      <point x="952.0" y="803.0" type="line"/>
      <point x="873.25" y="838.25"/>
      <point x="721.75" y="874.0"/>
      <point x="649.0" y="874.0" type="qcurve" smooth="yes"/>
      <point x="574.75" y="874.0"/>
      <point x="500.0" y="836.5"/>
      <point x="500.0" y="799.0" type="qcurve" smooth="yes"/>
      <point x="500.0" y="754.5"/>
      <point x="551.0" y="735.0" type="qcurve" smooth="yes"/>
      <point x="576.5" y="725.25"/>
      <point x="660.5" y="715.0"/>
      <point x="719" y="715" type="qcurve" smooth="yes"/>
      <point x="842" y="715" type="line"/>
      <point x="842" y="461" type="line"/>
      <point x="694.0" y="461.0" type="line" smooth="yes"/>
      <point x="604.0" y="461.0"/>
      <point x="553.0" y="452.0" type="qcurve" smooth="yes"/>
      <point x="502.0" y="443.0"/>
      <point x="455.0" y="406.0"/>
      <point x="455.0" y="367.0" type="qcurve" smooth="yes"/>
      <point x="455.0" y="318.25"/>
      <point x="558.5" y="270.0"/>
      <point x="662.0" y="270.0" type="qcurve" smooth="yes"/>
      <point x="731.5" y="270.0"/>
      <point x="867.0833333333334" y="289.41666666666663"/>
      <point x="999.0" y="328.5"/>
      <point x="1063" y="358" type="qcurve"/>
      <point x="1063.0" y="59.0" type="line"/>
      <point x="954.25" y="13.25"/>
      <point x="738.25" y="-20.0"/>
    </contour>
    <contour>
      <point x="568" y="1133" type="move" name="top"/>
    </contour>
  </outline>
</glyph>
<glyph name="zeta" format="1">
  <advance width="1044"/>
  <unicode hex="03B6"/>
  <note>
zeta
</note>
  <outline>
    <contour>
      <point x="522" y="-365" type="line"/>
      <point x="587.25" y="-293.75"/>
      <point x="674.0" y="-138.0"/>
      <point x="674.0" y="-102.0" type="qcurve" smooth="yes"/>
      <point x="674.0" y="-71.25"/>
      <point x="635.75" y="-35.25"/>
      <point x="590.0" y="-18.0" type="qcurve" smooth="yes"/>
      <point x="546.1233480176212" y="-1.9118942731277535"/>
      <point x="444" y="24" type="qcurve" smooth="yes"/>
      <point x="440.0" y="25.0" type="line" smooth="yes"/>
      <point x="308.75" y="55.75"/>
      <point x="155.5" y="164.25"/>
      <point x="121.0" y="246.0" type="qcurve" smooth="yes"/>
      <point x="86.0" y="329.69565217391306"/>
      <point x="86.0" y="471.0" type="qcurve" smooth="yes"/>
      <point x="86.0" y="637.5094339622642"/>
      <point x="165.0" y="797.0" type="qcurve" smooth="yes"/>
      <point x="233.57372654155495" y="935.6713136729222"/>
      <point x="359.0" y="1067.0" type="qcurve" smooth="yes"/>
      <point x="410.75" y="1122.5"/>
      <point x="535.25" y="1232.5"/>
      <point x="608.0" y="1288.0" type="qcurve"/>
      <point x="534.6666666666666" y="1266.0"/>
      <point x="442" y="1266" type="qcurve" smooth="yes"/>
      <point x="141" y="1266" type="line"/>
      <point x="141" y="1556" type="line"/>
      <point x="1038" y="1556" type="line"/>
      <point x="1038.0" y="1325.0" type="line"/>
      <point x="876.0" y="1193.0"/>
      <point x="651.0" y="955.25"/>
      <point x="585.0" y="842.0" type="qcurve" smooth="yes"/>
      <point x="483.0" y="667.5652173913044"/>
      <point x="483.0" y="489.0" type="qcurve" smooth="yes"/>
      <point x="483.0" y="404.13513513513516"/>
      <point x="538.0" y="364.0" type="qcurve" smooth="yes"/>
      <point x="593.6820083682009" y="322.2384937238494"/>
      <point x="762.0" y="285.0" type="qcurve" smooth="yes"/>
      <point x="901.5887969446212" y="256.48185868873327"/>
      <point x="976.0" y="191.0" type="qcurve" smooth="yes"/>
      <point x="1061.0" y="114.94736842105263"/>
      <point x="1061.0" y="-18.0" type="qcurve" smooth="yes"/>
      <point x="1061.0" y="-181.16129032258064"/>
      <point x="922" y="-365" type="qcurve"/>
    </contour>
  </outline>
</glyph>
<glyph name="theta" format="1">
  <advance width="1315"/>
  <unicode hex="03B8"/>
  <note>
theta
</note>
  <outline>
    <contour>
      <point x="655.0" y="-20.0" type="qcurve" smooth="yes"/>
      <point x="378.25" y="-20.0"/>
      <point x="86.0" y="389.25"/>
      <point x="86.0" y="780.0" type="qcurve" smooth="yes"/>
      <point x="86.0" y="1188.0"/>
      <point x="367.75" y="1579.0"/>
      <point x="655.0" y="1579.0" type="qcurve" smooth="yes"/>
      <point x="936.25" y="1579.0"/>
      <point x="1229.0" y="1167.75"/>
      <point x="1229.0" y="780.0" type="qcurve" smooth="yes"/>
      <point x="1229.0" y="374.25"/>
      <point x="943.75" y="-20.0"/>
    </contour>
    <contour>
      <point x="655.0" y="254.0" type="qcurve" smooth="yes"/>
      <point x="742.723076923077" y="254.0"/>
      <point x="786.0" y="351.0" type="qcurve" smooth="yes"/>
      <point x="828.0160827110856" y="448.5373348650201"/>
      <point x="831" y="641" type="qcurve"/>
      <point x="483.0" y="641.0" type="line"/>
      <point x="484.480677764566" y="452.9539239001189"/>
      <point x="526.0" y="353.0" type="qcurve" smooth="yes"/>
      <point x="566.5" y="254.0"/>
    </contour>
    <contour>
      <point x="487" y="915" type="qcurve"/>
      <point x="834.0" y="915.0" type="line"/>
      <point x="826.5" y="1113.0"/>
      <point x="786.0" y="1209.0" type="qcurve" smooth="yes"/>
      <point x="744.0" y="1305.0"/>
      <point x="659.0" y="1305.0" type="qcurve" smooth="yes"/>
      <point x="573.5" y="1305.0"/>
      <point x="533.0" y="1209.0" type="qcurve" smooth="yes"/>
      <point x="491.44306049822063" y="1110.4946619217083"/>
    </contour>
  </outline>
</glyph>
<glyph name="iota" format="1">
  <advance width="891"/>
  <unicode hex="03B9"/>
  <note>
iota
</note>
  <outline>
    <contour>
      <point x="541.0" y="-20.0" type="qcurve" smooth="yes"/>
      <point x="331.0" y="-20.0"/>
      <point x="133.0" y="176.75"/>
      <point x="133" y="371" type="qcurve" smooth="yes"/>
      <point x="133" y="1133" type="line"/>
      <point x="524" y="1133" type="line"/>
      <point x="524.0" y="389.0" type="line" smooth="yes"/>
      <point x="524.0" y="287.0"/>
      <point x="641.0" y="287.0" type="qcurve" smooth="yes"/>
      <point x="695.75" y="287.0"/>
      <point x="790.0" y="308.25"/>
      <point x="850" y="330" type="qcurve"/>
      <point x="850.0" y="43.0" type="line"/>
      <point x="716.5" y="-20.0"/>
    </contour>
    <contour>
      <point x="366" y="1133" type="move" name="top"/>
    </contour>
  </outline>
</glyph>
<glyph name="kappa" format="1">
  <advance width="1350"/>
  <unicode hex="03BA"/>
  <note>
kappa
</note>
  <outline>
    <contour>
      <point x="135" y="0" type="line"/>
      <point x="135" y="1133" type="line"/>
      <point x="528" y="1133" type="line"/>
      <point x="528.0" y="887.0" type="line" smooth="yes"/>
      <point x="528.0" y="828.5"/>
      <point x="523.25" y="706.75"/>
      <point x="518" y="643" type="qcurve"/>
      <point x="526.0" y="643.0" type="line"/>
      <point x="543.0" y="665.5"/>
      <point x="579.4166666666666" y="721.25"/>
      <point x="621.5" y="784.0"/>
      <point x="647" y="817" type="qcurve" smooth="yes"/>
      <point x="893" y="1133" type="line"/>
      <point x="1331" y="1133" type="line"/>
      <point x="926" y="637" type="line"/>
      <point x="1350" y="0" type="line"/>
      <point x="909" y="0" type="line"/>
      <point x="657" y="399" type="line"/>
      <point x="528" y="301" type="line"/>
      <point x="528" y="0" type="line"/>
    </contour>
  </outline>
</glyph>
<glyph name="lambda" format="1">
  <advance width="1362"/>
  <unicode hex="03BB"/>
  <note>
lambda
</note>
  <outline>
    <contour>
      <point x="1126.0" y="-20.0" type="qcurve" smooth="yes"/>
      <point x="1002.25" y="-20.0"/>
      <point x="829.25" y="114.0"/>
      <point x="770" y="270" type="qcurve" smooth="yes"/>
      <point x="700.0" y="461.0" type="line" smooth="yes"/>
      <point x="664.0" y="567.5"/>
      <point x="649" y="653" type="qcurve"/>
      <point x="641.0" y="653.0" type="line"/>
      <point x="621.9089887640449" y="536.9853932584269"/>
      <point x="592" y="463" type="qcurve" smooth="yes"/>
      <point x="406" y="0" type="line"/>
      <point x="0" y="0" type="line"/>
      <point x="487" y="1057" type="line"/>
      <point x="473.0" y="1098.0" type="line" smooth="yes"/>
      <point x="444.94987035436475" y="1180.5920484010371"/>
      <point x="402.0" y="1218.0" type="qcurve" smooth="yes"/>
      <point x="351.9310344827586" y="1262.0"/>
      <point x="272.0" y="1262.0" type="qcurve" smooth="yes"/>
      <point x="206.54545454545456" y="1262.0"/>
      <point x="137" y="1245" type="qcurve"/>
      <point x="137.0" y="1552.0" type="line"/>
      <point x="176.75" y="1561.0"/>
      <point x="293.0" y="1569.0"/>
      <point x="326.0" y="1569.0" type="qcurve" smooth="yes"/>
      <point x="439.25" y="1569.0"/>
      <point x="605.75" y="1518.25"/>
      <point x="668.0" y="1462.0" type="qcurve" smooth="yes"/>
      <point x="716.75" y="1417.75"/>
      <point x="792.75" y="1288.5"/>
      <point x="825" y="1200" type="qcurve" smooth="yes"/>
      <point x="1071.0" y="512.0" type="line" smooth="yes"/>
      <point x="1104.0" y="422.0"/>
      <point x="1156.75" y="327.25"/>
      <point x="1186.0" y="307.0" type="qcurve" smooth="yes"/>
      <point x="1215.2307692307693" y="287.0"/>
      <point x="1268.0" y="287.0" type="qcurve" smooth="yes"/>
      <point x="1307.2857142857142" y="287.0"/>
      <point x="1343" y="297" type="qcurve"/>
      <point x="1343.0" y="14.0" type="line"/>
      <point x="1327.5" y="6.0"/>
      <point x="1246.5833333333333" y="-9.666666666666666"/>
      <point x="1156.0" y="-20.0"/>
    </contour>
  </outline>
</glyph>
